<ttFont>
    <TTGlyph name="A" xMin="31" yMin="-36" xMax="538" yMax="786">
      <contour>
        <pt x="110" y="13" on="1"/>
        <pt x="110" y="-6" on="0"/>
        <pt x="85" y="-25" on="0"/>
        <pt x="55" y="-25" on="0"/>
        <pt x="31" y="-6" on="0"/>
        <pt x="31" y="13" on="1"/>
        <pt x="31" y="91" on="0"/>
        <pt x="67" y="235" on="0"/>
        <pt x="94" y="306" on="1"/>
        <pt x="87" y="319" on="0"/>
        <pt x="90" y="335" on="1"/>
        <pt x="96" y="356" on="0"/>
        <pt x="116" y="361" on="1"/>
        <pt x="136" y="409" on="0"/>
        <pt x="179" y="504" on="0"/>
        <pt x="219" y="600" on="0"/>
        <pt x="253" y="698" on="0"/>
        <pt x="264" y="749" on="1"/>
        <pt x="267" y="764" on="0"/>
        <pt x="286" y="786" on="0"/>
        <pt x="303" y="786" on="1"/>
        <pt x="319" y="786" on="0"/>
        <pt x="345" y="763" on="0"/>
        <pt x="343" y="746" on="1"/>
        <pt x="340" y="688" on="0"/>
        <pt x="350" y="591" on="0"/>
        <pt x="370" y="496" on="0"/>
        <pt x="395" y="401" on="0"/>
        <pt x="406" y="354" on="1"/>
        <pt x="417" y="309" on="0"/>
        <pt x="435" y="219" on="0"/>
        <pt x="455" y="177" on="1"/>
        <pt x="465" y="156" on="0"/>
        <pt x="487" y="117" on="0"/>
        <pt x="500" y="97" on="1"/>
        <pt x="512" y="79" on="0"/>
        <pt x="532" y="40" on="0"/>
        <pt x="536" y="17" on="1"/>
        <pt x="538" y="1" on="0"/>
        <pt x="525" y="-27" on="0"/>
        <pt x="508" y="-32" on="1"/>
        <pt x="494" y="-36" on="0"/>
        <pt x="462" y="-20" on="0"/>
        <pt x="459" y="-4" on="1"/>
        <pt x="455" y="19" on="0"/>
        <pt x="432" y="55" on="0"/>
        <pt x="420" y="74" on="1"/>
        <pt x="406" y="96" on="0"/>
        <pt x="383" y="141" on="0"/>
        <pt x="374" y="165" on="1"/>
        <pt x="364" y="190" on="0"/>
        <pt x="350" y="241" on="0"/>
        <pt x="344" y="267" on="1"/>
        <pt x="299" y="270" on="0"/>
        <pt x="212" y="273" on="0"/>
        <pt x="168" y="278" on="1"/>
        <pt x="144" y="214" on="0"/>
        <pt x="111" y="82" on="0"/>
      </contour>
      <contour>
        <pt x="204" y="367" on="1"/>
        <pt x="202" y="364" on="0"/>
        <pt x="201" y="357" on="0"/>
        <pt x="199" y="354" on="1"/>
        <pt x="231" y="351" on="0"/>
        <pt x="293" y="350" on="0"/>
        <pt x="325" y="348" on="1"/>
        <pt x="314" y="396" on="0"/>
        <pt x="289" y="491" on="0"/>
        <pt x="279" y="540" on="1"/>
        <pt x="261" y="496" on="0"/>
        <pt x="223" y="411" on="0"/>
      </contour>
    </TTGlyph>
    <TTGlyph name="AE" xMin="-34" yMin="3" xMax="916" yMax="769">
      <contour>
        <pt x="-11" y="14" on="1"/>
        <pt x="-24" y="22" on="0"/>
        <pt x="-34" y="55" on="0"/>
        <pt x="-25" y="69" on="1"/>
        <pt x="34" y="154" on="0"/>
        <pt x="164" y="312" on="0"/>
        <pt x="228" y="393" on="1"/>
        <pt x="294" y="476" on="0"/>
        <pt x="409" y="650" on="0"/>
        <pt x="454" y="746" on="1"/>
        <pt x="461" y="761" on="0"/>
        <pt x="495" y="769" on="0"/>
        <pt x="509" y="761" on="1"/>
        <pt x="525" y="751" on="0"/>
        <pt x="528" y="732" on="1"/>
        <pt x="566" y="731" on="0"/>
        <pt x="643" y="729" on="0"/>
        <pt x="681" y="728" on="1"/>
        <pt x="726" y="727" on="0"/>
        <pt x="818" y="728" on="0"/>
        <pt x="863" y="737" on="1"/>
        <pt x="879" y="740" on="0"/>
        <pt x="907" y="726" on="0"/>
        <pt x="912" y="709" on="1"/>
        <pt x="916" y="694" on="0"/>
        <pt x="900" y="663" on="0"/>
        <pt x="884" y="660" on="1"/>
        <pt x="842" y="652" on="0"/>
        <pt x="758" y="646" on="0"/>
        <pt x="673" y="646" on="0"/>
        <pt x="588" y="650" on="0"/>
        <pt x="546" y="652" on="1"/>
        <pt x="535" y="598" on="0"/>
        <pt x="520" y="487" on="0"/>
        <pt x="515" y="430" on="1"/>
        <pt x="584" y="419" on="0"/>
        <pt x="724" y="419" on="0"/>
        <pt x="794" y="419" on="1"/>
        <pt x="813" y="419" on="0"/>
        <pt x="832" y="394" on="0"/>
        <pt x="832" y="364" on="0"/>
        <pt x="813" y="339" on="0"/>
        <pt x="794" y="339" on="1"/>
        <pt x="723" y="339" on="0"/>
        <pt x="581" y="341" on="0"/>
        <pt x="510" y="351" on="1"/>
        <pt x="509" y="294" on="0"/>
        <pt x="518" y="181" on="0"/>
        <pt x="530" y="125" on="1"/>
        <pt x="598" y="124" on="0"/>
        <pt x="732" y="121" on="0"/>
        <pt x="800" y="120" on="1"/>
        <pt x="819" y="120" on="0"/>
        <pt x="838" y="95" on="0"/>
        <pt x="838" y="66" on="0"/>
        <pt x="819" y="41" on="0"/>
        <pt x="800" y="41" on="1"/>
        <pt x="737" y="41" on="0"/>
        <pt x="614" y="44" on="0"/>
        <pt x="551" y="45" on="1"/>
        <pt x="553" y="29" on="0"/>
        <pt x="533" y="9" on="0"/>
        <pt x="505" y="3" on="0"/>
        <pt x="478" y="16" on="0"/>
        <pt x="472" y="33" on="1"/>
        <pt x="471" y="36" on="0"/>
        <pt x="469" y="43" on="0"/>
        <pt x="468" y="47" on="1"/>
        <pt x="454" y="48" on="0"/>
        <pt x="439" y="66" on="0"/>
        <pt x="434" y="88" on="0"/>
        <pt x="441" y="111" on="0"/>
        <pt x="450" y="118" on="1"/>
        <pt x="440" y="167" on="0"/>
        <pt x="435" y="218" on="1"/>
        <pt x="372" y="214" on="0"/>
        <pt x="248" y="202" on="0"/>
        <pt x="185" y="190" on="1"/>
        <pt x="175" y="188" on="0"/>
        <pt x="166" y="190" on="1"/>
        <pt x="134" y="150" on="0"/>
        <pt x="73" y="71" on="0"/>
        <pt x="44" y="29" on="1"/>
        <pt x="34" y="15" on="0"/>
        <pt x="4" y="6" on="0"/>
      </contour>
      <contour>
        <pt x="293" y="348" on="1"/>
        <pt x="279" y="331" on="0"/>
        <pt x="252" y="296" on="0"/>
        <pt x="238" y="279" on="1"/>
        <pt x="286" y="286" on="0"/>
        <pt x="382" y="294" on="0"/>
        <pt x="431" y="298" on="1"/>
        <pt x="429" y="367" on="0"/>
        <pt x="441" y="505" on="0"/>
        <pt x="452" y="574" on="1"/>
        <pt x="416" y="514" on="0"/>
        <pt x="336" y="402" on="0"/>
      </contour>
    </TTGlyph>
    <TTGlyph name="Aacute" xMin="31" yMin="-36" xMax="538" yMax="1019">
      <component glyphName="A" x="0" y="0" flags="0x204"/>
      <component glyphName="acute" x="92" y="266" flags="0x4"/>
    </TTGlyph>
    <TTGlyph name="Acircumflex" xMin="31" yMin="-36" xMax="538" yMax="994">
      <component glyphName="A" x="0" y="0" flags="0x204"/>
      <component glyphName="circumflex" x="20" y="236" flags="0x4"/>
    </TTGlyph>
    <TTGlyph name="Adieresis" xMin="31" yMin="-36" xMax="538" yMax="951">
      <component glyphName="A" x="0" y="0" flags="0x204"/>
      <component glyphName="dieresis" x="31" y="225" flags="0x4"/>
    </TTGlyph>
    <TTGlyph name="Agrave" xMin="31" yMin="-36" xMax="538" yMax="1019">
      <component glyphName="A" x="0" y="0" flags="0x204"/>
      <component glyphName="grave" x="-40" y="266" flags="0x4"/>
    </TTGlyph>
    <TTGlyph name="Aring" xMin="31" yMin="-36" xMax="538" yMax="991">
      <contour>
        <pt x="204" y="367" on="1"/>
        <pt x="199" y="354" on="1"/>
        <pt x="231" y="351" on="0"/>
        <pt x="293" y="350" on="0"/>
        <pt x="325" y="348" on="1"/>
        <pt x="314" y="396" on="0"/>
        <pt x="289" y="491" on="0"/>
        <pt x="279" y="540" on="1"/>
        <pt x="261" y="496" on="0"/>
        <pt x="223" y="411" on="0"/>
      </contour>
      <contour>
        <pt x="266" y="979" on="1"/>
        <pt x="292" y="991" on="0"/>
        <pt x="346" y="989" on="0"/>
        <pt x="392" y="966" on="0"/>
        <pt x="427" y="924" on="0"/>
        <pt x="435" y="897" on="1"/>
        <pt x="441" y="876" on="0"/>
        <pt x="441" y="826" on="0"/>
        <pt x="426" y="780" on="0"/>
        <pt x="397" y="743" on="0"/>
        <pt x="375" y="733" on="1"/>
        <pt x="360" y="726" on="0"/>
        <pt x="342" y="723" on="1"/>
        <pt x="340" y="676" on="0"/>
        <pt x="351" y="583" on="0"/>
        <pt x="371" y="491" on="0"/>
        <pt x="395" y="399" on="0"/>
        <pt x="406" y="354" on="1"/>
        <pt x="417" y="309" on="0"/>
        <pt x="435" y="219" on="0"/>
        <pt x="455" y="177" on="1"/>
        <pt x="465" y="156" on="0"/>
        <pt x="487" y="117" on="0"/>
        <pt x="500" y="97" on="1"/>
        <pt x="512" y="79" on="0"/>
        <pt x="532" y="40" on="0"/>
        <pt x="536" y="17" on="1"/>
        <pt x="538" y="1" on="0"/>
        <pt x="525" y="-27" on="0"/>
        <pt x="508" y="-32" on="1"/>
        <pt x="494" y="-36" on="0"/>
        <pt x="462" y="-20" on="0"/>
        <pt x="459" y="-4" on="1"/>
        <pt x="455" y="19" on="0"/>
        <pt x="432" y="55" on="0"/>
        <pt x="420" y="74" on="1"/>
        <pt x="406" y="96" on="0"/>
        <pt x="383" y="141" on="0"/>
        <pt x="374" y="165" on="1"/>
        <pt x="364" y="190" on="0"/>
        <pt x="350" y="241" on="0"/>
        <pt x="344" y="267" on="1"/>
        <pt x="299" y="270" on="0"/>
        <pt x="212" y="273" on="0"/>
        <pt x="168" y="278" on="1"/>
        <pt x="144" y="214" on="0"/>
        <pt x="111" y="82" on="0"/>
        <pt x="110" y="13" on="1"/>
        <pt x="110" y="-6" on="0"/>
        <pt x="85" y="-25" on="0"/>
        <pt x="55" y="-25" on="0"/>
        <pt x="31" y="-6" on="0"/>
        <pt x="31" y="13" on="1"/>
        <pt x="31" y="91" on="0"/>
        <pt x="67" y="235" on="0"/>
        <pt x="94" y="306" on="1"/>
        <pt x="87" y="319" on="0"/>
        <pt x="90" y="335" on="1"/>
        <pt x="96" y="356" on="0"/>
        <pt x="116" y="361" on="1"/>
        <pt x="135" y="407" on="0"/>
        <pt x="176" y="499" on="0"/>
        <pt x="215" y="591" on="0"/>
        <pt x="248" y="684" on="0"/>
        <pt x="260" y="732" on="1"/>
        <pt x="232" y="743" on="0"/>
        <pt x="192" y="785" on="0"/>
        <pt x="186" y="816" on="1"/>
        <pt x="185" y="827" on="1"/>
        <pt x="182" y="847" on="0"/>
        <pt x="193" y="893" on="0"/>
        <pt x="215" y="936" on="0"/>
        <pt x="247" y="970" on="0"/>
      </contour>
      <contour>
        <pt x="361" y="848" on="1"/>
        <pt x="362" y="855" on="0"/>
        <pt x="361" y="862" on="1"/>
        <pt x="360" y="869" on="0"/>
        <pt x="359" y="871" on="0"/>
        <pt x="359" y="872" on="1"/>
        <pt x="358" y="876" on="0"/>
        <pt x="356" y="882" on="1"/>
        <pt x="356" y="881" on="0"/>
        <pt x="352" y="890" on="0"/>
        <pt x="351" y="891" on="1"/>
        <pt x="344" y="900" on="0"/>
        <pt x="331" y="908" on="0"/>
        <pt x="326" y="910" on="1"/>
        <pt x="308" y="916" on="0"/>
        <pt x="295" y="904" on="1"/>
        <pt x="287" y="895" on="0"/>
        <pt x="273" y="874" on="0"/>
        <pt x="270" y="864" on="1"/>
        <pt x="264" y="843" on="1"/>
        <pt x="264" y="833" on="1"/>
        <pt x="268" y="818" on="0"/>
        <pt x="283" y="808" on="0"/>
        <pt x="300" y="804" on="1"/>
        <pt x="302" y="803" on="0"/>
        <pt x="308" y="802" on="0"/>
        <pt x="310" y="801" on="1"/>
        <pt x="319" y="800" on="0"/>
        <pt x="330" y="801" on="0"/>
        <pt x="325" y="800" on="1"/>
        <pt x="334" y="802" on="0"/>
        <pt x="337" y="802" on="0"/>
        <pt x="344" y="807" on="1"/>
        <pt x="349" y="813" on="0"/>
        <pt x="353" y="819" on="0"/>
        <pt x="354" y="820" on="1"/>
        <pt x="360" y="834" on="0"/>
        <pt x="360" y="839" on="1"/>
      </contour>
    </TTGlyph>
    <TTGlyph name="Atilde" xMin="31" yMin="-36" xMax="538" yMax="975">
      <component glyphName="A" x="0" y="0" flags="0x204"/>
      <component glyphName="tilde" x="31" y="246" flags="0x4"/>
    </TTGlyph>
    <TTGlyph name="B" xMin="36" yMin="-7" xMax="493" yMax="770">
      <contour>
        <pt x="75" y="353" on="1"/>
        <pt x="59" y="351" on="0"/>
        <pt x="36" y="377" on="0"/>
        <pt x="36" y="392" on="1"/>
        <pt x="36" y="410" on="0"/>
        <pt x="59" y="430" on="0"/>
        <pt x="76" y="432" on="1"/>
        <pt x="85" y="497" on="0"/>
        <pt x="90" y="625" on="0"/>
        <pt x="92" y="690" on="1"/>
        <pt x="79" y="694" on="0"/>
        <pt x="62" y="713" on="0"/>
        <pt x="62" y="728" on="1"/>
        <pt x="62" y="743" on="0"/>
        <pt x="85" y="770" on="0"/>
        <pt x="102" y="768" on="1"/>
        <pt x="139" y="764" on="0"/>
        <pt x="214" y="755" on="0"/>
        <pt x="289" y="741" on="0"/>
        <pt x="362" y="719" on="0"/>
        <pt x="395" y="702" on="1"/>
        <pt x="418" y="691" on="0"/>
        <pt x="459" y="656" on="0"/>
        <pt x="486" y="613" on="0"/>
        <pt x="493" y="563" on="0"/>
        <pt x="482" y="536" on="1"/>
        <pt x="462" y="487" on="0"/>
        <pt x="393" y="420" on="0"/>
        <pt x="345" y="400" on="1"/>
        <pt x="335" y="395" on="0"/>
        <pt x="315" y="389" on="0"/>
        <pt x="305" y="385" on="1"/>
        <pt x="320" y="377" on="0"/>
        <pt x="336" y="364" on="1"/>
        <pt x="371" y="335" on="0"/>
        <pt x="423" y="262" on="0"/>
        <pt x="443" y="221" on="1"/>
        <pt x="454" y="198" on="0"/>
        <pt x="477" y="150" on="0"/>
        <pt x="478" y="124" on="1"/>
        <pt x="479" y="92" on="0"/>
        <pt x="438" y="47" on="0"/>
        <pt x="411" y="35" on="1"/>
        <pt x="339" y="4" on="0"/>
        <pt x="190" y="-7" on="0"/>
        <pt x="113" y="0" on="1"/>
        <pt x="100" y="-7" on="0"/>
        <pt x="70" y="-4" on="0"/>
        <pt x="62" y="9" on="1"/>
        <pt x="53" y="14" on="0"/>
        <pt x="41" y="31" on="0"/>
        <pt x="41" y="43" on="1"/>
        <pt x="41" y="50" on="0"/>
        <pt x="46" y="63" on="0"/>
        <pt x="50" y="68" on="1"/>
        <pt x="49" y="99" on="0"/>
        <pt x="59" y="160" on="0"/>
        <pt x="64" y="191" on="1"/>
        <pt x="71" y="231" on="0"/>
        <pt x="74" y="312" on="0"/>
        <pt x="76" y="352" on="1"/>
      </contour>
      <contour>
        <pt x="171" y="680" on="1"/>
        <pt x="169" y="620" on="0"/>
        <pt x="164" y="499" on="0"/>
        <pt x="161" y="439" on="1"/>
        <pt x="199" y="443" on="0"/>
        <pt x="276" y="458" on="0"/>
        <pt x="311" y="472" on="1"/>
        <pt x="325" y="477" on="0"/>
        <pt x="360" y="497" on="0"/>
        <pt x="369" y="505" on="1"/>
        <pt x="383" y="519" on="0"/>
        <pt x="398" y="539" on="0"/>
        <pt x="407" y="559" on="1"/>
        <pt x="405" y="556" on="0"/>
        <pt x="408" y="566" on="0"/>
        <pt x="409" y="570" on="1"/>
        <pt x="409" y="571" on="0"/>
        <pt x="410" y="578" on="0"/>
        <pt x="410" y="581" on="1"/>
        <pt x="407" y="591" on="0"/>
        <pt x="404" y="597" on="0"/>
        <pt x="402" y="599" on="1"/>
        <pt x="402" y="600" on="0"/>
        <pt x="395" y="608" on="0"/>
        <pt x="393" y="609" on="1"/>
        <pt x="388" y="614" on="0"/>
        <pt x="382" y="618" on="1"/>
        <pt x="374" y="623" on="0"/>
        <pt x="355" y="634" on="0"/>
        <pt x="347" y="637" on="1"/>
        <pt x="305" y="654" on="0"/>
        <pt x="216" y="674" on="0"/>
      </contour>
      <contour>
        <pt x="145" y="192" on="1"/>
        <pt x="140" y="164" on="0"/>
        <pt x="129" y="107" on="0"/>
        <pt x="129" y="78" on="1"/>
        <pt x="190" y="73" on="0"/>
        <pt x="311" y="80" on="0"/>
        <pt x="369" y="103" on="1"/>
        <pt x="381" y="107" on="0"/>
        <pt x="393" y="115" on="1"/>
        <pt x="398" y="125" on="0"/>
        <pt x="396" y="129" on="1"/>
        <pt x="391" y="145" on="0"/>
        <pt x="378" y="174" on="0"/>
        <pt x="369" y="191" on="1"/>
        <pt x="361" y="208" on="0"/>
        <pt x="343" y="239" on="0"/>
        <pt x="332" y="254" on="1"/>
        <pt x="322" y="266" on="1"/>
        <pt x="310" y="281" on="1"/>
        <pt x="303" y="288" on="0"/>
        <pt x="286" y="303" on="0"/>
        <pt x="281" y="306" on="1"/>
        <pt x="252" y="327" on="0"/>
        <pt x="190" y="349" on="0"/>
        <pt x="156" y="352" on="1"/>
        <pt x="154" y="312" on="0"/>
        <pt x="151" y="232" on="0"/>
      </contour>
    </TTGlyph>
    <TTGlyph name="C" xMin="12" yMin="6" xMax="503" yMax="732">
      <contour>
        <pt x="57" y="162" on="1"/>
        <pt x="33" y="220" on="0"/>
        <pt x="24" y="281" on="1"/>
        <pt x="19" y="316" on="0"/>
        <pt x="12" y="387" on="0"/>
        <pt x="22" y="422" on="1"/>
        <pt x="27" y="444" on="0"/>
        <pt x="43" y="485" on="0"/>
        <pt x="51" y="506" on="1"/>
        <pt x="57" y="522" on="0"/>
        <pt x="62" y="554" on="0"/>
        <pt x="67" y="571" on="1"/>
        <pt x="77" y="607" on="0"/>
        <pt x="117" y="660" on="0"/>
        <pt x="150" y="677" on="1"/>
        <pt x="181" y="694" on="0"/>
        <pt x="247" y="714" on="0"/>
        <pt x="281" y="720" on="1"/>
        <pt x="312" y="726" on="0"/>
        <pt x="375" y="732" on="0"/>
        <pt x="407" y="728" on="1"/>
        <pt x="424" y="726" on="0"/>
        <pt x="447" y="706" on="0"/>
        <pt x="447" y="689" on="1"/>
        <pt x="447" y="674" on="0"/>
        <pt x="424" y="647" on="0"/>
        <pt x="407" y="649" on="1"/>
        <pt x="404" y="649" on="0"/>
        <pt x="398" y="650" on="0"/>
        <pt x="395" y="650" on="1"/>
        <pt x="365" y="652" on="0"/>
        <pt x="304" y="645" on="0"/>
        <pt x="275" y="638" on="1"/>
        <pt x="258" y="633" on="0"/>
        <pt x="224" y="624" on="0"/>
        <pt x="208" y="617" on="1"/>
        <pt x="197" y="612" on="0"/>
        <pt x="186" y="606" on="1"/>
        <pt x="178" y="602" on="0"/>
        <pt x="175" y="599" on="1"/>
        <pt x="156" y="583" on="0"/>
        <pt x="144" y="555" on="0"/>
        <pt x="137" y="524" on="0"/>
        <pt x="131" y="492" on="0"/>
        <pt x="126" y="478" on="1"/>
        <pt x="118" y="458" on="0"/>
        <pt x="102" y="416" on="0"/>
        <pt x="97" y="394" on="1"/>
        <pt x="94" y="379" on="0"/>
        <pt x="96" y="349" on="0"/>
        <pt x="98" y="334" on="1"/>
        <pt x="100" y="308" on="0"/>
        <pt x="109" y="252" on="0"/>
        <pt x="125" y="200" on="0"/>
        <pt x="152" y="153" on="0"/>
        <pt x="172" y="135" on="1"/>
        <pt x="197" y="114" on="0"/>
        <pt x="261" y="95" on="0"/>
        <pt x="293" y="91" on="1"/>
        <pt x="333" y="85" on="0"/>
        <pt x="409" y="95" on="0"/>
        <pt x="443" y="118" on="1"/>
        <pt x="459" y="128" on="0"/>
        <pt x="488" y="117" on="0"/>
        <pt x="503" y="92" on="0"/>
        <pt x="500" y="59" on="0"/>
        <pt x="484" y="49" on="1"/>
        <pt x="436" y="17" on="0"/>
        <pt x="327" y="6" on="0"/>
        <pt x="272" y="14" on="1"/>
        <pt x="235" y="19" on="0"/>
        <pt x="165" y="40" on="0"/>
        <pt x="135" y="63" on="1"/>
        <pt x="83" y="101" on="0"/>
      </contour>
    </TTGlyph>
    <TTGlyph name="Ccedilla" xMin="12" yMin="-267" xMax="503" yMax="732">
      <contour>
        <pt x="374" y="-42" on="1"/>
        <pt x="393" y="-48" on="0"/>
        <pt x="427" y="-69" on="0"/>
        <pt x="450" y="-97" on="0"/>
        <pt x="459" y="-133" on="0"/>
        <pt x="453" y="-155" on="1"/>
        <pt x="442" y="-193" on="0"/>
        <pt x="381" y="-241" on="0"/>
        <pt x="346" y="-254" on="1"/>
        <pt x="330" y="-260" on="0"/>
        <pt x="294" y="-267" on="0"/>
        <pt x="258" y="-265" on="0"/>
        <pt x="225" y="-252" on="0"/>
        <pt x="213" y="-237" on="1"/>
        <pt x="203" y="-225" on="0"/>
        <pt x="199" y="-194" on="0"/>
        <pt x="212" y="-181" on="1"/>
        <pt x="222" y="-170" on="0"/>
        <pt x="257" y="-166" on="0"/>
        <pt x="268" y="-179" on="1"/>
        <pt x="282" y="-188" on="0"/>
        <pt x="287" y="-188" on="0"/>
        <pt x="295" y="-186" on="1"/>
        <pt x="304" y="-185" on="0"/>
        <pt x="329" y="-176" on="0"/>
        <pt x="339" y="-170" on="1"/>
        <pt x="343" y="-168" on="0"/>
        <pt x="349" y="-164" on="0"/>
        <pt x="352" y="-162" on="1"/>
        <pt x="360" y="-156" on="0"/>
        <pt x="365" y="-152" on="0"/>
        <pt x="367" y="-150" on="1"/>
        <pt x="371" y="-143" on="0"/>
        <pt x="375" y="-136" on="0"/>
        <pt x="377" y="-132" on="1"/>
        <pt x="371" y="-126" on="0"/>
        <pt x="347" y="-116" on="0"/>
        <pt x="336" y="-113" on="1"/>
        <pt x="322" y="-109" on="0"/>
        <pt x="295" y="-107" on="0"/>
        <pt x="281" y="-103" on="1"/>
        <pt x="261" y="-98" on="0"/>
        <pt x="234" y="-69" on="0"/>
        <pt x="230" y="-49" on="1"/>
        <pt x="226" y="-31" on="0"/>
        <pt x="235" y="3" on="0"/>
        <pt x="233" y="21" on="1"/>
        <pt x="207" y="27" on="0"/>
        <pt x="157" y="46" on="0"/>
        <pt x="135" y="63" on="1"/>
        <pt x="83" y="101" on="0"/>
        <pt x="57" y="162" on="1"/>
        <pt x="33" y="220" on="0"/>
        <pt x="24" y="281" on="1"/>
        <pt x="19" y="316" on="0"/>
        <pt x="12" y="387" on="0"/>
        <pt x="22" y="422" on="1"/>
        <pt x="27" y="444" on="0"/>
        <pt x="43" y="485" on="0"/>
        <pt x="51" y="506" on="1"/>
        <pt x="57" y="522" on="0"/>
        <pt x="62" y="554" on="0"/>
        <pt x="67" y="571" on="1"/>
        <pt x="77" y="607" on="0"/>
        <pt x="117" y="660" on="0"/>
        <pt x="150" y="677" on="1"/>
        <pt x="181" y="694" on="0"/>
        <pt x="247" y="714" on="0"/>
        <pt x="281" y="720" on="1"/>
        <pt x="312" y="726" on="0"/>
        <pt x="375" y="732" on="0"/>
        <pt x="407" y="728" on="1"/>
        <pt x="424" y="726" on="0"/>
        <pt x="447" y="706" on="0"/>
        <pt x="447" y="689" on="1"/>
        <pt x="447" y="674" on="0"/>
        <pt x="424" y="647" on="0"/>
        <pt x="407" y="649" on="1"/>
        <pt x="404" y="649" on="0"/>
        <pt x="398" y="650" on="0"/>
        <pt x="395" y="650" on="1"/>
        <pt x="365" y="652" on="0"/>
        <pt x="304" y="645" on="0"/>
        <pt x="275" y="638" on="1"/>
        <pt x="258" y="633" on="0"/>
        <pt x="224" y="624" on="0"/>
        <pt x="208" y="617" on="1"/>
        <pt x="197" y="612" on="0"/>
        <pt x="186" y="606" on="1"/>
        <pt x="178" y="602" on="0"/>
        <pt x="175" y="599" on="1"/>
        <pt x="156" y="583" on="0"/>
        <pt x="144" y="555" on="0"/>
        <pt x="137" y="524" on="0"/>
        <pt x="131" y="492" on="0"/>
        <pt x="126" y="478" on="1"/>
        <pt x="118" y="458" on="0"/>
        <pt x="102" y="416" on="0"/>
        <pt x="97" y="394" on="1"/>
        <pt x="94" y="379" on="0"/>
        <pt x="96" y="349" on="0"/>
        <pt x="98" y="334" on="1"/>
        <pt x="100" y="308" on="0"/>
        <pt x="109" y="252" on="0"/>
        <pt x="125" y="200" on="0"/>
        <pt x="152" y="153" on="0"/>
        <pt x="172" y="135" on="1"/>
        <pt x="197" y="114" on="0"/>
        <pt x="261" y="95" on="0"/>
        <pt x="293" y="91" on="1"/>
        <pt x="333" y="85" on="0"/>
        <pt x="409" y="95" on="0"/>
        <pt x="443" y="118" on="1"/>
        <pt x="459" y="128" on="0"/>
        <pt x="488" y="117" on="0"/>
        <pt x="503" y="92" on="0"/>
        <pt x="500" y="59" on="0"/>
        <pt x="484" y="49" on="1"/>
        <pt x="445" y="23" on="0"/>
        <pt x="358" y="7" on="0"/>
        <pt x="313" y="9" on="1"/>
        <pt x="312" y="1" on="0"/>
        <pt x="310" y="-14" on="0"/>
        <pt x="309" y="-22" on="1"/>
        <pt x="325" y="-31" on="0"/>
        <pt x="357" y="-36" on="0"/>
      </contour>
    </TTGlyph>
    <TTGlyph name="D" xMin="36" yMin="-24" xMax="525" yMax="738">
      <contour>
        <pt x="523" y="247" on="1"/>
        <pt x="518" y="186" on="0"/>
        <pt x="456" y="91" on="0"/>
        <pt x="405" y="58" on="1"/>
        <pt x="371" y="37" on="0"/>
        <pt x="293" y="3" on="0"/>
        <pt x="254" y="-6" on="1"/>
        <pt x="219" y="-14" on="0"/>
        <pt x="152" y="-12" on="0"/>
        <pt x="118" y="-8" on="1"/>
        <pt x="110" y="-17" on="0"/>
        <pt x="87" y="-24" on="0"/>
        <pt x="76" y="-21" on="1"/>
        <pt x="53" y="-15" on="0"/>
        <pt x="48" y="8" on="1"/>
        <pt x="36" y="20" on="0"/>
        <pt x="36" y="37" on="1"/>
        <pt x="36" y="59" on="0"/>
        <pt x="56" y="72" on="1"/>
        <pt x="62" y="112" on="0"/>
        <pt x="69" y="192" on="0"/>
        <pt x="71" y="233" on="1"/>
        <pt x="74" y="281" on="0"/>
        <pt x="78" y="375" on="0"/>
        <pt x="77" y="423" on="1"/>
        <pt x="77" y="453" on="0"/>
        <pt x="73" y="517" on="0"/>
        <pt x="73" y="580" on="0"/>
        <pt x="80" y="642" on="0"/>
        <pt x="91" y="671" on="1"/>
        <pt x="86" y="687" on="0"/>
        <pt x="100" y="721" on="0"/>
        <pt x="120" y="725" on="1"/>
        <pt x="132" y="738" on="0"/>
        <pt x="165" y="736" on="0"/>
        <pt x="176" y="726" on="1"/>
        <pt x="225" y="722" on="0"/>
        <pt x="318" y="693" on="0"/>
        <pt x="357" y="661" on="1"/>
        <pt x="405" y="623" on="0"/>
        <pt x="463" y="516" on="0"/>
        <pt x="481" y="459" on="1"/>
        <pt x="489" y="434" on="0"/>
        <pt x="506" y="382" on="0"/>
        <pt x="519" y="328" on="0"/>
        <pt x="525" y="274" on="0"/>
      </contour>
      <contour>
        <pt x="356" y="122" on="1"/>
        <pt x="369" y="130" on="0"/>
        <pt x="390" y="146" on="0"/>
        <pt x="401" y="157" on="1"/>
        <pt x="410" y="167" on="0"/>
        <pt x="420" y="179" on="0"/>
        <pt x="427" y="191" on="1"/>
        <pt x="444" y="226" on="0"/>
        <pt x="443" y="270" on="1"/>
        <pt x="443" y="295" on="0"/>
        <pt x="435" y="338" on="0"/>
        <pt x="427" y="365" on="1"/>
        <pt x="419" y="393" on="0"/>
        <pt x="402" y="448" on="0"/>
        <pt x="391" y="474" on="1"/>
        <pt x="383" y="496" on="0"/>
        <pt x="356" y="547" on="0"/>
        <pt x="342" y="564" on="1"/>
        <pt x="307" y="606" on="0"/>
        <pt x="219" y="643" on="0"/>
        <pt x="167" y="646" on="1"/>
        <pt x="156" y="618" on="0"/>
        <pt x="151" y="557" on="0"/>
        <pt x="153" y="495" on="0"/>
        <pt x="158" y="433" on="0"/>
        <pt x="157" y="404" on="1"/>
        <pt x="153" y="319" on="0"/>
        <pt x="146" y="153" on="0"/>
        <pt x="135" y="69" on="1"/>
        <pt x="153" y="67" on="0"/>
        <pt x="190" y="65" on="0"/>
        <pt x="208" y="67" on="1"/>
        <pt x="246" y="71" on="0"/>
        <pt x="323" y="102" on="0"/>
      </contour>
    </TTGlyph>
    <TTGlyph name="E" xMin="17" yMin="-8" xMax="480" yMax="696">
      <contour>
        <pt x="46" y="602" on="1"/>
        <pt x="26" y="608" on="0"/>
        <pt x="22" y="628" on="1"/>
        <pt x="17" y="642" on="0"/>
        <pt x="33" y="675" on="0"/>
        <pt x="50" y="677" on="1"/>
        <pt x="147" y="692" on="0"/>
        <pt x="342" y="695" on="0"/>
        <pt x="440" y="696" on="1"/>
        <pt x="459" y="696" on="0"/>
        <pt x="479" y="672" on="0"/>
        <pt x="479" y="642" on="0"/>
        <pt x="459" y="617" on="0"/>
        <pt x="440" y="617" on="1"/>
        <pt x="362" y="615" on="0"/>
        <pt x="204" y="615" on="0"/>
        <pt x="125" y="607" on="1"/>
        <pt x="127" y="567" on="0"/>
        <pt x="133" y="488" on="0"/>
        <pt x="136" y="448" on="1"/>
        <pt x="212" y="452" on="0"/>
        <pt x="363" y="464" on="0"/>
        <pt x="439" y="460" on="1"/>
        <pt x="458" y="459" on="0"/>
        <pt x="478" y="433" on="0"/>
        <pt x="478" y="403" on="0"/>
        <pt x="458" y="379" on="0"/>
        <pt x="439" y="380" on="1"/>
        <pt x="364" y="384" on="0"/>
        <pt x="217" y="372" on="0"/>
        <pt x="142" y="368" on="1"/>
        <pt x="148" y="296" on="0"/>
        <pt x="159" y="153" on="0"/>
        <pt x="161" y="81" on="1"/>
        <pt x="196" y="89" on="0"/>
        <pt x="268" y="104" on="0"/>
        <pt x="340" y="113" on="0"/>
        <pt x="412" y="113" on="0"/>
        <pt x="448" y="107" on="1"/>
        <pt x="464" y="104" on="0"/>
        <pt x="480" y="72" on="0"/>
        <pt x="476" y="58" on="1"/>
        <pt x="471" y="41" on="0"/>
        <pt x="443" y="27" on="0"/>
        <pt x="426" y="30" on="1"/>
        <pt x="394" y="36" on="0"/>
        <pt x="328" y="32" on="0"/>
        <pt x="296" y="27" on="1"/>
        <pt x="259" y="21" on="0"/>
        <pt x="186" y="5" on="0"/>
        <pt x="150" y="-4" on="1"/>
        <pt x="133" y="-8" on="0"/>
        <pt x="118" y="2" on="1"/>
        <pt x="104" y="4" on="0"/>
        <pt x="82" y="22" on="0"/>
        <pt x="82" y="40" on="1"/>
        <pt x="80" y="125" on="0"/>
        <pt x="69" y="291" on="0"/>
        <pt x="62" y="375" on="1"/>
        <pt x="51" y="386" on="0"/>
        <pt x="48" y="419" on="0"/>
        <pt x="58" y="431" on="1"/>
        <pt x="50" y="516" on="0"/>
      </contour>
    </TTGlyph>
    <TTGlyph name="Eacute" xMin="17" yMin="-8" xMax="480" yMax="948">
      <component glyphName="E" x="0" y="0" flags="0x204"/>
      <component glyphName="acute" x="0" y="195" flags="0x4"/>
    </TTGlyph>
    <TTGlyph name="Ecircumflex" xMin="17" yMin="-8" xMax="480" yMax="942">
      <component glyphName="E" x="0" y="0" flags="0x204"/>
      <component glyphName="circumflex" x="-30" y="184" flags="0x4"/>
    </TTGlyph>
    <TTGlyph name="Edieresis" xMin="17" yMin="-8" xMax="480" yMax="880">
      <component glyphName="E" x="0" y="0" flags="0x204"/>
      <component glyphName="dieresis" x="-30" y="154" flags="0x4"/>
    </TTGlyph>
    <TTGlyph name="Egrave" xMin="17" yMin="-8" xMax="480" yMax="927">
      <component glyphName="E" x="0" y="0" flags="0x204"/>
      <component glyphName="grave" x="-50" y="174" flags="0x4"/>
    </TTGlyph>
    <TTGlyph name="Eth" xMin="-54" yMin="-24" xMax="525" yMax="738">
      <contour>
        <pt x="77" y="394" on="1"/>
        <pt x="77" y="423" on="1"/>
        <pt x="77" y="453" on="0"/>
        <pt x="73" y="517" on="0"/>
        <pt x="73" y="580" on="0"/>
        <pt x="80" y="642" on="0"/>
        <pt x="91" y="671" on="1"/>
        <pt x="86" y="687" on="0"/>
        <pt x="100" y="721" on="0"/>
        <pt x="120" y="725" on="1"/>
        <pt x="132" y="738" on="0"/>
        <pt x="165" y="736" on="0"/>
        <pt x="176" y="726" on="1"/>
        <pt x="225" y="722" on="0"/>
        <pt x="318" y="693" on="0"/>
        <pt x="357" y="661" on="1"/>
        <pt x="405" y="623" on="0"/>
        <pt x="463" y="516" on="0"/>
        <pt x="481" y="459" on="1"/>
        <pt x="489" y="434" on="0"/>
        <pt x="506" y="382" on="0"/>
        <pt x="519" y="328" on="0"/>
        <pt x="525" y="274" on="0"/>
        <pt x="523" y="247" on="1"/>
        <pt x="518" y="186" on="0"/>
        <pt x="456" y="91" on="0"/>
        <pt x="405" y="58" on="1"/>
        <pt x="371" y="37" on="0"/>
        <pt x="293" y="3" on="0"/>
        <pt x="254" y="-6" on="1"/>
        <pt x="219" y="-14" on="0"/>
        <pt x="152" y="-12" on="0"/>
        <pt x="118" y="-8" on="1"/>
        <pt x="110" y="-17" on="0"/>
        <pt x="87" y="-24" on="0"/>
        <pt x="76" y="-21" on="1"/>
        <pt x="53" y="-15" on="0"/>
        <pt x="48" y="8" on="1"/>
        <pt x="36" y="20" on="0"/>
        <pt x="36" y="37" on="1"/>
        <pt x="36" y="59" on="0"/>
        <pt x="56" y="72" on="1"/>
        <pt x="62" y="112" on="0"/>
        <pt x="69" y="192" on="0"/>
        <pt x="71" y="233" on="1"/>
        <pt x="73" y="253" on="0"/>
        <pt x="74" y="295" on="0"/>
        <pt x="75" y="316" on="1"/>
        <pt x="60" y="314" on="0"/>
        <pt x="23" y="310" on="0"/>
        <pt x="-1" y="306" on="1"/>
        <pt x="-17" y="303" on="0"/>
        <pt x="-45" y="317" on="0"/>
        <pt x="-50" y="334" on="1"/>
        <pt x="-54" y="348" on="0"/>
        <pt x="-38" y="380" on="0"/>
        <pt x="-22" y="383" on="1"/>
        <pt x="10" y="388" on="0"/>
        <pt x="57" y="394" on="0"/>
      </contour>
      <contour>
        <pt x="244" y="387" on="1"/>
        <pt x="263" y="387" on="0"/>
        <pt x="283" y="361" on="0"/>
        <pt x="283" y="331" on="0"/>
        <pt x="263" y="307" on="0"/>
        <pt x="244" y="307" on="1"/>
        <pt x="215" y="309" on="0"/>
        <pt x="171" y="311" on="0"/>
        <pt x="153" y="313" on="1"/>
        <pt x="151" y="251" on="0"/>
        <pt x="143" y="130" on="0"/>
        <pt x="135" y="69" on="1"/>
        <pt x="153" y="67" on="0"/>
        <pt x="190" y="65" on="0"/>
        <pt x="208" y="67" on="1"/>
        <pt x="246" y="71" on="0"/>
        <pt x="323" y="102" on="0"/>
        <pt x="356" y="122" on="1"/>
        <pt x="369" y="130" on="0"/>
        <pt x="390" y="146" on="0"/>
        <pt x="401" y="157" on="1"/>
        <pt x="410" y="167" on="0"/>
        <pt x="420" y="179" on="0"/>
        <pt x="427" y="191" on="1"/>
        <pt x="444" y="226" on="0"/>
        <pt x="443" y="270" on="1"/>
        <pt x="443" y="295" on="0"/>
        <pt x="435" y="338" on="0"/>
        <pt x="427" y="365" on="1"/>
        <pt x="419" y="393" on="0"/>
        <pt x="402" y="448" on="0"/>
        <pt x="391" y="474" on="1"/>
        <pt x="383" y="496" on="0"/>
        <pt x="356" y="547" on="0"/>
        <pt x="342" y="564" on="1"/>
        <pt x="307" y="606" on="0"/>
        <pt x="219" y="643" on="0"/>
        <pt x="167" y="646" on="1"/>
        <pt x="156" y="618" on="0"/>
        <pt x="151" y="557" on="0"/>
        <pt x="153" y="495" on="0"/>
        <pt x="158" y="433" on="0"/>
        <pt x="157" y="404" on="1"/>
        <pt x="156" y="392" on="1"/>
        <pt x="174" y="390" on="0"/>
        <pt x="217" y="388" on="0"/>
      </contour>
    </TTGlyph>
    <TTGlyph name="Euro" xMin="-10" yMin="33" xMax="608" yMax="713">
      <contour>
        <pt x="568" y="706" on="1"/>
        <pt x="585" y="704" on="0"/>
        <pt x="608" y="683" on="0"/>
        <pt x="608" y="666" on="1"/>
        <pt x="608" y="651" on="0"/>
        <pt x="585" y="624" on="0"/>
        <pt x="568" y="626" on="1"/>
        <pt x="502" y="632" on="0"/>
        <pt x="377" y="583" on="0"/>
        <pt x="326" y="542" on="1"/>
        <pt x="296" y="519" on="0"/>
        <pt x="268" y="490" on="1"/>
        <pt x="303" y="492" on="0"/>
        <pt x="373" y="494" on="0"/>
        <pt x="408" y="492" on="1"/>
        <pt x="427" y="491" on="0"/>
        <pt x="447" y="466" on="0"/>
        <pt x="447" y="436" on="0"/>
        <pt x="427" y="412" on="0"/>
        <pt x="408" y="413" on="1"/>
        <pt x="357" y="415" on="0"/>
        <pt x="257" y="410" on="0"/>
        <pt x="206" y="405" on="1"/>
        <pt x="191" y="376" on="0"/>
        <pt x="185" y="345" on="1"/>
        <pt x="184" y="340" on="0"/>
        <pt x="183" y="331" on="0"/>
        <pt x="183" y="326" on="1"/>
        <pt x="225" y="330" on="0"/>
        <pt x="309" y="334" on="0"/>
        <pt x="351" y="331" on="1"/>
        <pt x="370" y="330" on="0"/>
        <pt x="389" y="304" on="0"/>
        <pt x="389" y="274" on="0"/>
        <pt x="370" y="251" on="0"/>
        <pt x="351" y="252" on="1"/>
        <pt x="311" y="254" on="0"/>
        <pt x="233" y="251" on="0"/>
        <pt x="194" y="247" on="1"/>
        <pt x="213" y="192" on="0"/>
        <pt x="256" y="155" on="1"/>
        <pt x="279" y="136" on="0"/>
        <pt x="338" y="112" on="0"/>
        <pt x="368" y="113" on="1"/>
        <pt x="406" y="115" on="0"/>
        <pt x="480" y="140" on="0"/>
        <pt x="518" y="148" on="1"/>
        <pt x="534" y="151" on="0"/>
        <pt x="562" y="137" on="0"/>
        <pt x="567" y="120" on="1"/>
        <pt x="571" y="105" on="0"/>
        <pt x="555" y="74" on="0"/>
        <pt x="539" y="71" on="1"/>
        <pt x="514" y="66" on="0"/>
        <pt x="465" y="50" on="0"/>
        <pt x="440" y="44" on="1"/>
        <pt x="398" y="33" on="0"/>
        <pt x="316" y="36" on="0"/>
        <pt x="275" y="53" on="1"/>
        <pt x="206" y="80" on="0"/>
        <pt x="162" y="141" on="1"/>
        <pt x="129" y="183" on="0"/>
        <pt x="113" y="241" on="1"/>
        <pt x="78" y="238" on="0"/>
        <pt x="44" y="238" on="1"/>
        <pt x="25" y="238" on="0"/>
        <pt x="6" y="263" on="0"/>
        <pt x="6" y="293" on="0"/>
        <pt x="25" y="318" on="0"/>
        <pt x="44" y="318" on="1"/>
        <pt x="59" y="318" on="0"/>
        <pt x="88" y="319" on="0"/>
        <pt x="103" y="320" on="1"/>
        <pt x="103" y="354" on="0"/>
        <pt x="114" y="389" on="1"/>
        <pt x="94" y="393" on="0"/>
        <pt x="51" y="387" on="0"/>
        <pt x="30" y="385" on="1"/>
        <pt x="13" y="383" on="0"/>
        <pt x="-10" y="410" on="0"/>
        <pt x="-10" y="425" on="1"/>
        <pt x="-10" y="443" on="0"/>
        <pt x="13" y="463" on="0"/>
        <pt x="30" y="465" on="1"/>
        <pt x="159" y="480" on="1"/>
        <pt x="185" y="520" on="0"/>
        <pt x="254" y="588" on="0"/>
        <pt x="292" y="616" on="1"/>
        <pt x="351" y="659" on="0"/>
        <pt x="493" y="713" on="0"/>
      </contour>
    </TTGlyph>
    <TTGlyph name="F" xMin="39" yMin="-32" xMax="538" yMax="736">
      <contour>
        <pt x="81" y="-32" on="1"/>
        <pt x="66" y="-32" on="0"/>
        <pt x="39" y="-8" on="0"/>
        <pt x="41" y="8" on="1"/>
        <pt x="57" y="168" on="0"/>
        <pt x="57" y="488" on="0"/>
        <pt x="56" y="649" on="1"/>
        <pt x="48" y="661" on="0"/>
        <pt x="47" y="692" on="0"/>
        <pt x="58" y="703" on="1"/>
        <pt x="64" y="721" on="0"/>
        <pt x="100" y="731" on="0"/>
        <pt x="116" y="723" on="1"/>
        <pt x="163" y="733" on="0"/>
        <pt x="259" y="736" on="0"/>
        <pt x="355" y="733" on="0"/>
        <pt x="452" y="730" on="0"/>
        <pt x="500" y="733" on="1"/>
        <pt x="519" y="734" on="0"/>
        <pt x="538" y="711" on="0"/>
        <pt x="538" y="681" on="0"/>
        <pt x="519" y="654" on="0"/>
        <pt x="500" y="653" on="1"/>
        <pt x="455" y="650" on="0"/>
        <pt x="363" y="654" on="0"/>
        <pt x="271" y="657" on="0"/>
        <pt x="181" y="655" on="0"/>
        <pt x="136" y="646" on="1"/>
        <pt x="136" y="577" on="0"/>
        <pt x="137" y="441" on="0"/>
        <pt x="137" y="372" on="1"/>
        <pt x="168" y="372" on="0"/>
        <pt x="232" y="374" on="0"/>
        <pt x="295" y="374" on="0"/>
        <pt x="358" y="369" on="0"/>
        <pt x="389" y="362" on="1"/>
        <pt x="408" y="357" on="0"/>
        <pt x="420" y="329" on="0"/>
        <pt x="412" y="300" on="0"/>
        <pt x="387" y="280" on="0"/>
        <pt x="368" y="285" on="1"/>
        <pt x="311" y="298" on="0"/>
        <pt x="194" y="292" on="0"/>
        <pt x="136" y="292" on="1"/>
        <pt x="134" y="221" on="0"/>
        <pt x="128" y="80" on="0"/>
        <pt x="121" y="8" on="1"/>
        <pt x="119" y="-8" on="0"/>
        <pt x="98" y="-32" on="0"/>
      </contour>
    </TTGlyph>
    <TTGlyph name="G" xMin="4" yMin="-46" xMax="566" yMax="701">
      <contour>
        <pt x="156" y="-17" on="1"/>
        <pt x="126" y="2" on="0"/>
        <pt x="78" y="58" on="0"/>
        <pt x="42" y="124" on="0"/>
        <pt x="18" y="194" on="0"/>
        <pt x="12" y="229" on="1"/>
        <pt x="6" y="262" on="0"/>
        <pt x="4" y="331" on="0"/>
        <pt x="14" y="364" on="1"/>
        <pt x="22" y="390" on="0"/>
        <pt x="49" y="438" on="0"/>
        <pt x="65" y="460" on="1"/>
        <pt x="104" y="514" on="0"/>
        <pt x="200" y="610" on="0"/>
        <pt x="257" y="646" on="1"/>
        <pt x="283" y="663" on="0"/>
        <pt x="340" y="689" on="0"/>
        <pt x="399" y="701" on="0"/>
        <pt x="459" y="696" on="0"/>
        <pt x="489" y="682" on="1"/>
        <pt x="504" y="675" on="0"/>
        <pt x="512" y="641" on="0"/>
        <pt x="504" y="628" on="1"/>
        <pt x="495" y="613" on="0"/>
        <pt x="464" y="607" on="0"/>
        <pt x="449" y="614" on="1"/>
        <pt x="432" y="622" on="0"/>
        <pt x="406" y="620" on="1"/>
        <pt x="396" y="620" on="0"/>
        <pt x="367" y="613" on="0"/>
        <pt x="353" y="607" on="1"/>
        <pt x="324" y="596" on="0"/>
        <pt x="267" y="557" on="0"/>
        <pt x="242" y="536" on="1"/>
        <pt x="198" y="498" on="0"/>
        <pt x="121" y="409" on="0"/>
        <pt x="95" y="357" on="1"/>
        <pt x="92" y="350" on="0"/>
        <pt x="86" y="322" on="0"/>
        <pt x="85" y="312" on="1"/>
        <pt x="83" y="283" on="0"/>
        <pt x="88" y="255" on="1"/>
        <pt x="94" y="222" on="0"/>
        <pt x="115" y="157" on="0"/>
        <pt x="132" y="128" on="1"/>
        <pt x="148" y="101" on="0"/>
        <pt x="191" y="48" on="0"/>
        <pt x="223" y="40" on="1"/>
        <pt x="257" y="31" on="0"/>
        <pt x="293" y="44" on="1"/>
        <pt x="301" y="47" on="0"/>
        <pt x="315" y="54" on="0"/>
        <pt x="323" y="58" on="1"/>
        <pt x="326" y="60" on="0"/>
        <pt x="332" y="64" on="0"/>
        <pt x="335" y="66" on="1"/>
        <pt x="358" y="86" on="0"/>
        <pt x="394" y="130" on="0"/>
        <pt x="410" y="154" on="1"/>
        <pt x="418" y="168" on="0"/>
        <pt x="435" y="197" on="0"/>
        <pt x="440" y="211" on="1"/>
        <pt x="445" y="224" on="0"/>
        <pt x="451" y="245" on="0"/>
        <pt x="451" y="256" on="1"/>
        <pt x="441" y="260" on="0"/>
        <pt x="421" y="260" on="0"/>
        <pt x="410" y="260" on="1"/>
        <pt x="382" y="259" on="0"/>
        <pt x="327" y="253" on="0"/>
        <pt x="298" y="253" on="1"/>
        <pt x="279" y="253" on="0"/>
        <pt x="260" y="278" on="0"/>
        <pt x="260" y="308" on="0"/>
        <pt x="279" y="332" on="0"/>
        <pt x="298" y="332" on="1"/>
        <pt x="325" y="332" on="0"/>
        <pt x="379" y="338" on="0"/>
        <pt x="433" y="340" on="0"/>
        <pt x="485" y="334" on="0"/>
        <pt x="511" y="323" on="1"/>
        <pt x="537" y="313" on="0"/>
        <pt x="555" y="287" on="1"/>
        <pt x="566" y="270" on="0"/>
        <pt x="563" y="228" on="0"/>
        <pt x="563" y="208" on="1"/>
        <pt x="561" y="165" on="0"/>
        <pt x="560" y="80" on="0"/>
        <pt x="559" y="38" on="1"/>
        <pt x="559" y="18" on="0"/>
        <pt x="533" y="-1" on="0"/>
        <pt x="503" y="-1" on="0"/>
        <pt x="479" y="18" on="0"/>
        <pt x="479" y="38" on="1"/>
        <pt x="480" y="58" on="0"/>
        <pt x="480" y="98" on="0"/>
        <pt x="481" y="118" on="1"/>
        <pt x="452" y="72" on="0"/>
        <pt x="416" y="33" on="1"/>
        <pt x="392" y="7" on="0"/>
        <pt x="328" y="-30" on="0"/>
        <pt x="259" y="-46" on="0"/>
        <pt x="187" y="-38" on="0"/>
      </contour>
    </TTGlyph>
    <TTGlyph name="H" xMin="27" yMin="-12" xMax="492" yMax="757">
      <contour>
        <pt x="56" y="341" on="1"/>
        <pt x="57" y="426" on="0"/>
        <pt x="52" y="593" on="0"/>
        <pt x="32" y="676" on="1"/>
        <pt x="27" y="695" on="0"/>
        <pt x="47" y="720" on="0"/>
        <pt x="76" y="728" on="0"/>
        <pt x="104" y="716" on="0"/>
        <pt x="109" y="697" on="1"/>
        <pt x="130" y="612" on="0"/>
        <pt x="134" y="439" on="0"/>
        <pt x="133" y="351" on="1"/>
        <pt x="164" y="348" on="0"/>
        <pt x="226" y="341" on="0"/>
        <pt x="288" y="338" on="0"/>
        <pt x="349" y="341" on="0"/>
        <pt x="379" y="349" on="1"/>
        <pt x="387" y="352" on="0"/>
        <pt x="396" y="350" on="1"/>
        <pt x="399" y="395" on="0"/>
        <pt x="409" y="482" on="0"/>
        <pt x="410" y="527" on="1"/>
        <pt x="412" y="575" on="0"/>
        <pt x="404" y="669" on="0"/>
        <pt x="399" y="717" on="1"/>
        <pt x="397" y="733" on="0"/>
        <pt x="423" y="757" on="0"/>
        <pt x="439" y="757" on="1"/>
        <pt x="456" y="757" on="0"/>
        <pt x="476" y="733" on="0"/>
        <pt x="478" y="717" on="1"/>
        <pt x="483" y="669" on="0"/>
        <pt x="492" y="575" on="0"/>
        <pt x="490" y="527" on="1"/>
        <pt x="488" y="479" on="0"/>
        <pt x="477" y="388" on="0"/>
        <pt x="475" y="340" on="1"/>
        <pt x="470" y="262" on="0"/>
        <pt x="466" y="105" on="0"/>
        <pt x="471" y="27" on="1"/>
        <pt x="472" y="7" on="0"/>
        <pt x="448" y="-12" on="0"/>
        <pt x="418" y="-12" on="0"/>
        <pt x="392" y="7" on="0"/>
        <pt x="391" y="27" on="1"/>
        <pt x="387" y="87" on="0"/>
        <pt x="388" y="209" on="0"/>
        <pt x="391" y="270" on="1"/>
        <pt x="359" y="262" on="0"/>
        <pt x="295" y="259" on="0"/>
        <pt x="231" y="262" on="0"/>
        <pt x="166" y="269" on="0"/>
        <pt x="134" y="272" on="1"/>
        <pt x="135" y="216" on="0"/>
        <pt x="144" y="106" on="0"/>
        <pt x="158" y="51" on="1"/>
        <pt x="163" y="32" on="0"/>
        <pt x="144" y="7" on="0"/>
        <pt x="115" y="-1" on="0"/>
        <pt x="86" y="11" on="0"/>
        <pt x="82" y="30" on="1"/>
        <pt x="65" y="94" on="0"/>
        <pt x="57" y="223" on="0"/>
        <pt x="56" y="289" on="1"/>
        <pt x="48" y="300" on="0"/>
        <pt x="48" y="330" on="0"/>
      </contour>
    </TTGlyph>
    <TTGlyph name="I" xMin="-12" yMin="-20" xMax="469" yMax="749">
      <contour>
        <pt x="18" y="0" on="1"/>
        <pt x="0" y="5" on="0"/>
        <pt x="-12" y="35" on="0"/>
        <pt x="-4" y="63" on="0"/>
        <pt x="21" y="82" on="0"/>
        <pt x="39" y="77" on="1"/>
        <pt x="79" y="65" on="0"/>
        <pt x="159" y="59" on="0"/>
        <pt x="201" y="61" on="1"/>
        <pt x="184" y="132" on="0"/>
        <pt x="184" y="275" on="0"/>
        <pt x="195" y="418" on="0"/>
        <pt x="206" y="562" on="0"/>
        <pt x="201" y="634" on="1"/>
        <pt x="163" y="635" on="0"/>
        <pt x="86" y="640" on="0"/>
        <pt x="48" y="645" on="1"/>
        <pt x="31" y="647" on="0"/>
        <pt x="8" y="667" on="0"/>
        <pt x="8" y="684" on="1"/>
        <pt x="8" y="699" on="0"/>
        <pt x="31" y="726" on="0"/>
        <pt x="48" y="724" on="1"/>
        <pt x="94" y="719" on="0"/>
        <pt x="187" y="712" on="0"/>
        <pt x="279" y="714" on="0"/>
        <pt x="370" y="728" on="0"/>
        <pt x="415" y="744" on="1"/>
        <pt x="430" y="749" on="0"/>
        <pt x="459" y="731" on="0"/>
        <pt x="464" y="716" on="1"/>
        <pt x="469" y="699" on="0"/>
        <pt x="452" y="672" on="0"/>
        <pt x="436" y="667" on="1"/>
        <pt x="361" y="641" on="0"/>
        <pt x="280" y="636" on="1"/>
        <pt x="286" y="565" on="0"/>
        <pt x="274" y="421" on="0"/>
        <pt x="262" y="279" on="0"/>
        <pt x="263" y="137" on="0"/>
        <pt x="281" y="67" on="1"/>
        <pt x="313" y="70" on="0"/>
        <pt x="375" y="76" on="0"/>
        <pt x="406" y="78" on="1"/>
        <pt x="425" y="79" on="0"/>
        <pt x="444" y="56" on="0"/>
        <pt x="444" y="26" on="0"/>
        <pt x="425" y="0" on="0"/>
        <pt x="406" y="-1" on="1"/>
        <pt x="357" y="-4" on="0"/>
        <pt x="260" y="-15" on="0"/>
        <pt x="163" y="-20" on="0"/>
        <pt x="66" y="-14" on="0"/>
      </contour>
    </TTGlyph>
    <TTGlyph name="Iacute" xMin="-12" yMin="-20" xMax="469" yMax="958">
      <component glyphName="I" x="0" y="0" flags="0x204"/>
      <component glyphName="acute" x="0" y="205" flags="0x4"/>
    </TTGlyph>
    <TTGlyph name="Icircumflex" xMin="-12" yMin="-20" xMax="469" yMax="953">
      <component glyphName="I" x="0" y="0" flags="0x204"/>
      <component glyphName="circumflex" x="-50" y="195" flags="0x4"/>
    </TTGlyph>
    <TTGlyph name="Idieresis" xMin="-12" yMin="-20" xMax="469" yMax="900">
      <component glyphName="I" x="0" y="0" flags="0x204"/>
      <component glyphName="dieresis" x="-50" y="174" flags="0x4"/>
    </TTGlyph>
    <TTGlyph name="Igrave" xMin="-12" yMin="-20" xMax="469" yMax="968">
      <component glyphName="I" x="0" y="0" flags="0x204"/>
      <component glyphName="grave" x="-81" y="215" flags="0x4"/>
    </TTGlyph>
    <TTGlyph name="J" xMin="-30" yMin="-48" xMax="562" yMax="687">
      <contour>
        <pt x="176" y="-37" on="1"/>
        <pt x="144" y="-27" on="0"/>
        <pt x="88" y="10" on="0"/>
        <pt x="39" y="56" on="0"/>
        <pt x="-3" y="109" on="0"/>
        <pt x="-20" y="137" on="1"/>
        <pt x="-30" y="153" on="0"/>
        <pt x="-18" y="182" on="0"/>
        <pt x="8" y="197" on="0"/>
        <pt x="39" y="193" on="0"/>
        <pt x="49" y="177" on="1"/>
        <pt x="62" y="156" on="0"/>
        <pt x="95" y="112" on="0"/>
        <pt x="136" y="72" on="0"/>
        <pt x="182" y="43" on="0"/>
        <pt x="207" y="37" on="1"/>
        <pt x="218" y="35" on="0"/>
        <pt x="240" y="35" on="0"/>
        <pt x="252" y="40" on="1"/>
        <pt x="262" y="43" on="0"/>
        <pt x="268" y="49" on="1"/>
        <pt x="286" y="72" on="0"/>
        <pt x="297" y="112" on="0"/>
        <pt x="299" y="131" on="1"/>
        <pt x="305" y="186" on="0"/>
        <pt x="299" y="296" on="0"/>
        <pt x="293" y="351" on="1"/>
        <pt x="286" y="413" on="0"/>
        <pt x="282" y="537" on="0"/>
        <pt x="270" y="598" on="1"/>
        <pt x="222" y="596" on="0"/>
        <pt x="130" y="599" on="0"/>
        <pt x="82" y="607" on="1"/>
        <pt x="66" y="610" on="0"/>
        <pt x="50" y="642" on="0"/>
        <pt x="54" y="656" on="1"/>
        <pt x="59" y="673" on="0"/>
        <pt x="87" y="687" on="0"/>
        <pt x="104" y="684" on="1"/>
        <pt x="157" y="675" on="0"/>
        <pt x="263" y="676" on="0"/>
        <pt x="370" y="680" on="0"/>
        <pt x="476" y="680" on="0"/>
        <pt x="529" y="671" on="1"/>
        <pt x="546" y="668" on="0"/>
        <pt x="562" y="636" on="0"/>
        <pt x="557" y="622" on="1"/>
        <pt x="552" y="605" on="0"/>
        <pt x="525" y="591" on="0"/>
        <pt x="508" y="594" on="1"/>
        <pt x="469" y="601" on="0"/>
        <pt x="390" y="603" on="0"/>
        <pt x="350" y="601" on="1"/>
        <pt x="358" y="556" on="0"/>
        <pt x="363" y="467" on="0"/>
        <pt x="366" y="422" on="1"/>
        <pt x="368" y="396" on="0"/>
        <pt x="373" y="347" on="0"/>
        <pt x="376" y="321" on="1"/>
        <pt x="381" y="261" on="0"/>
        <pt x="386" y="135" on="0"/>
        <pt x="369" y="76" on="1"/>
        <pt x="362" y="49" on="0"/>
        <pt x="334" y="-1" on="0"/>
        <pt x="311" y="-18" on="1"/>
        <pt x="282" y="-38" on="0"/>
        <pt x="210" y="-48" on="0"/>
      </contour>
    </TTGlyph>
    <TTGlyph name="K" xMin="19" yMin="-32" xMax="518" yMax="725">
      <contour>
        <pt x="54" y="340" on="1"/>
        <pt x="50" y="424" on="0"/>
        <pt x="32" y="589" on="0"/>
        <pt x="21" y="672" on="1"/>
        <pt x="19" y="689" on="0"/>
        <pt x="32" y="716" on="0"/>
        <pt x="49" y="721" on="1"/>
        <pt x="63" y="725" on="0"/>
        <pt x="96" y="710" on="0"/>
        <pt x="98" y="693" on="1"/>
        <pt x="109" y="612" on="0"/>
        <pt x="127" y="452" on="0"/>
        <pt x="132" y="370" on="1"/>
        <pt x="141" y="373" on="0"/>
        <pt x="148" y="372" on="1"/>
        <pt x="190" y="387" on="0"/>
        <pt x="270" y="428" on="0"/>
        <pt x="304" y="456" on="1"/>
        <pt x="329" y="477" on="0"/>
        <pt x="366" y="525" on="0"/>
        <pt x="381" y="554" on="1"/>
        <pt x="395" y="583" on="0"/>
        <pt x="426" y="640" on="0"/>
        <pt x="448" y="664" on="1"/>
        <pt x="461" y="678" on="0"/>
        <pt x="492" y="675" on="0"/>
        <pt x="513" y="654" on="0"/>
        <pt x="518" y="622" on="0"/>
        <pt x="505" y="608" on="1"/>
        <pt x="482" y="582" on="0"/>
        <pt x="454" y="520" on="0"/>
        <pt x="437" y="491" on="1"/>
        <pt x="404" y="435" on="0"/>
        <pt x="351" y="392" on="1"/>
        <pt x="324" y="371" on="0"/>
        <pt x="266" y="336" on="0"/>
        <pt x="235" y="322" on="1"/>
        <pt x="256" y="310" on="0"/>
        <pt x="295" y="281" on="0"/>
        <pt x="311" y="261" on="1"/>
        <pt x="329" y="238" on="0"/>
        <pt x="361" y="189" on="0"/>
        <pt x="381" y="166" on="1"/>
        <pt x="400" y="146" on="0"/>
        <pt x="440" y="109" on="0"/>
        <pt x="460" y="90" on="1"/>
        <pt x="474" y="77" on="0"/>
        <pt x="470" y="46" on="0"/>
        <pt x="449" y="25" on="0"/>
        <pt x="417" y="20" on="0"/>
        <pt x="403" y="33" on="1"/>
        <pt x="383" y="52" on="0"/>
        <pt x="343" y="90" on="0"/>
        <pt x="325" y="110" on="1"/>
        <pt x="305" y="132" on="0"/>
        <pt x="273" y="179" on="0"/>
        <pt x="256" y="202" on="1"/>
        <pt x="234" y="232" on="0"/>
        <pt x="172" y="267" on="0"/>
        <pt x="141" y="286" on="1"/>
        <pt x="135" y="259" on="0"/>
        <pt x="135" y="211" on="0"/>
        <pt x="134" y="187" on="1"/>
        <pt x="133" y="145" on="0"/>
        <pt x="132" y="63" on="0"/>
        <pt x="139" y="21" on="1"/>
        <pt x="141" y="5" on="0"/>
        <pt x="128" y="-23" on="0"/>
        <pt x="111" y="-28" on="1"/>
        <pt x="97" y="-32" on="0"/>
        <pt x="65" y="-16" on="0"/>
        <pt x="62" y="0" on="1"/>
        <pt x="50" y="72" on="0"/>
        <pt x="55" y="219" on="0"/>
        <pt x="55" y="292" on="1"/>
        <pt x="44" y="311" on="0"/>
        <pt x="54" y="331" on="1"/>
      </contour>
    </TTGlyph>
    <TTGlyph name="L" xMin="44" yMin="-26" xMax="481" yMax="750">
      <contour>
        <pt x="85" y="-8" on="1"/>
        <pt x="69" y="-8" on="0"/>
        <pt x="50" y="9" on="0"/>
        <pt x="44" y="32" on="0"/>
        <pt x="51" y="56" on="0"/>
        <pt x="61" y="64" on="1"/>
        <pt x="69" y="98" on="0"/>
        <pt x="61" y="167" on="0"/>
        <pt x="57" y="201" on="1"/>
        <pt x="52" y="243" on="0"/>
        <pt x="56" y="324" on="0"/>
        <pt x="62" y="366" on="1"/>
        <pt x="68" y="408" on="0"/>
        <pt x="82" y="491" on="0"/>
        <pt x="87" y="533" on="1"/>
        <pt x="92" y="578" on="0"/>
        <pt x="99" y="666" on="0"/>
        <pt x="101" y="711" on="1"/>
        <pt x="101" y="730" on="0"/>
        <pt x="127" y="750" on="0"/>
        <pt x="157" y="750" on="0"/>
        <pt x="181" y="730" on="0"/>
        <pt x="180" y="711" on="1"/>
        <pt x="178" y="664" on="0"/>
        <pt x="171" y="572" on="0"/>
        <pt x="166" y="524" on="1"/>
        <pt x="161" y="480" on="0"/>
        <pt x="146" y="396" on="0"/>
        <pt x="140" y="352" on="1"/>
        <pt x="134" y="310" on="0"/>
        <pt x="134" y="229" on="0"/>
        <pt x="139" y="187" on="1"/>
        <pt x="142" y="158" on="0"/>
        <pt x="147" y="100" on="0"/>
        <pt x="143" y="71" on="1"/>
        <pt x="218" y="69" on="0"/>
        <pt x="368" y="58" on="0"/>
        <pt x="443" y="55" on="1"/>
        <pt x="462" y="54" on="0"/>
        <pt x="481" y="28" on="0"/>
        <pt x="481" y="-2" on="0"/>
        <pt x="462" y="-26" on="0"/>
        <pt x="443" y="-25" on="1"/>
        <pt x="352" y="-21" on="0"/>
        <pt x="175" y="-8" on="0"/>
      </contour>
    </TTGlyph>
    <TTGlyph name="Lslash" xMin="-57" yMin="-26" xMax="481" yMax="750">
      <contour>
        <pt x="199" y="443" on="1"/>
        <pt x="217" y="450" on="0"/>
        <pt x="245" y="435" on="0"/>
        <pt x="257" y="408" on="0"/>
        <pt x="250" y="377" on="0"/>
        <pt x="232" y="370" on="1"/>
        <pt x="201" y="357" on="0"/>
        <pt x="156" y="341" on="0"/>
        <pt x="138" y="335" on="1"/>
        <pt x="129" y="258" on="0"/>
        <pt x="139" y="187" on="1"/>
        <pt x="142" y="158" on="0"/>
        <pt x="147" y="100" on="0"/>
        <pt x="143" y="71" on="1"/>
        <pt x="218" y="69" on="0"/>
        <pt x="368" y="58" on="0"/>
        <pt x="443" y="55" on="1"/>
        <pt x="462" y="54" on="0"/>
        <pt x="481" y="28" on="0"/>
        <pt x="481" y="-2" on="0"/>
        <pt x="462" y="-26" on="0"/>
        <pt x="443" y="-25" on="1"/>
        <pt x="352" y="-21" on="0"/>
        <pt x="175" y="-8" on="0"/>
        <pt x="85" y="-8" on="1"/>
        <pt x="69" y="-8" on="0"/>
        <pt x="50" y="9" on="0"/>
        <pt x="44" y="32" on="0"/>
        <pt x="51" y="56" on="0"/>
        <pt x="61" y="64" on="1"/>
        <pt x="69" y="98" on="0"/>
        <pt x="61" y="167" on="0"/>
        <pt x="57" y="201" on="1"/>
        <pt x="55" y="225" on="0"/>
        <pt x="53" y="273" on="0"/>
        <pt x="55" y="297" on="1"/>
        <pt x="44" y="291" on="0"/>
        <pt x="23" y="276" on="0"/>
        <pt x="9" y="267" on="1"/>
        <pt x="-5" y="258" on="0"/>
        <pt x="-36" y="259" on="0"/>
        <pt x="-47" y="272" on="1"/>
        <pt x="-57" y="284" on="0"/>
        <pt x="-56" y="319" on="0"/>
        <pt x="-42" y="329" on="1"/>
        <pt x="-7" y="353" on="0"/>
        <pt x="43" y="380" on="0"/>
        <pt x="66" y="391" on="1"/>
        <pt x="71" y="426" on="0"/>
        <pt x="83" y="497" on="0"/>
        <pt x="87" y="533" on="1"/>
        <pt x="92" y="578" on="0"/>
        <pt x="99" y="666" on="0"/>
        <pt x="101" y="711" on="1"/>
        <pt x="101" y="730" on="0"/>
        <pt x="127" y="750" on="0"/>
        <pt x="157" y="750" on="0"/>
        <pt x="181" y="730" on="0"/>
        <pt x="180" y="711" on="1"/>
        <pt x="178" y="664" on="0"/>
        <pt x="171" y="572" on="0"/>
        <pt x="166" y="524" on="1"/>
        <pt x="160" y="474" on="0"/>
        <pt x="151" y="424" on="1"/>
        <pt x="162" y="428" on="0"/>
        <pt x="185" y="437" on="0"/>
      </contour>
    </TTGlyph>
    <TTGlyph name="M" xMin="61" yMin="-37" xMax="583" yMax="771">
      <contour>
        <pt x="141" y="20" on="1"/>
        <pt x="141" y="1" on="0"/>
        <pt x="116" y="-18" on="0"/>
        <pt x="86" y="-18" on="0"/>
        <pt x="61" y="1" on="0"/>
        <pt x="61" y="20" on="1"/>
        <pt x="61" y="180" on="0"/>
        <pt x="69" y="497" on="0"/>
        <pt x="84" y="656" on="1"/>
        <pt x="86" y="673" on="0"/>
        <pt x="107" y="693" on="0"/>
        <pt x="132" y="696" on="0"/>
        <pt x="157" y="683" on="0"/>
        <pt x="163" y="667" on="1"/>
        <pt x="183" y="610" on="0"/>
        <pt x="217" y="495" on="0"/>
        <pt x="250" y="379" on="0"/>
        <pt x="285" y="264" on="0"/>
        <pt x="306" y="208" on="1"/>
        <pt x="358" y="339" on="0"/>
        <pt x="443" y="603" on="0"/>
        <pt x="469" y="742" on="1"/>
        <pt x="472" y="757" on="0"/>
        <pt x="494" y="771" on="0"/>
        <pt x="521" y="771" on="0"/>
        <pt x="543" y="757" on="0"/>
        <pt x="546" y="742" on="1"/>
        <pt x="554" y="697" on="0"/>
        <pt x="549" y="610" on="0"/>
        <pt x="549" y="565" on="1"/>
        <pt x="549" y="517" on="0"/>
        <pt x="560" y="425" on="0"/>
        <pt x="564" y="378" on="1"/>
        <pt x="572" y="284" on="0"/>
        <pt x="580" y="96" on="0"/>
        <pt x="583" y="2" on="1"/>
        <pt x="583" y="-18" on="0"/>
        <pt x="559" y="-37" on="0"/>
        <pt x="529" y="-37" on="0"/>
        <pt x="503" y="-18" on="0"/>
        <pt x="503" y="2" on="1"/>
        <pt x="501" y="96" on="0"/>
        <pt x="492" y="284" on="0"/>
        <pt x="484" y="378" on="1"/>
        <pt x="482" y="395" on="0"/>
        <pt x="479" y="431" on="0"/>
        <pt x="477" y="448" on="1"/>
        <pt x="448" y="357" on="0"/>
        <pt x="381" y="181" on="0"/>
        <pt x="345" y="93" on="1"/>
        <pt x="340" y="81" on="0"/>
        <pt x="321" y="64" on="0"/>
        <pt x="307" y="64" on="1"/>
        <pt x="297" y="64" on="0"/>
        <pt x="277" y="75" on="0"/>
        <pt x="272" y="84" on="1"/>
        <pt x="232" y="172" on="0"/>
        <pt x="176" y="354" on="0"/>
        <pt x="149" y="447" on="1"/>
        <pt x="144" y="340" on="0"/>
        <pt x="141" y="127" on="0"/>
      </contour>
    </TTGlyph>
    <TTGlyph name="N" xMin="25" yMin="11" xMax="486" yMax="798">
      <contour>
        <pt x="44" y="586" on="1"/>
        <pt x="42" y="588" on="0"/>
        <pt x="39" y="592" on="0"/>
        <pt x="37" y="594" on="1"/>
        <pt x="25" y="606" on="0"/>
        <pt x="26" y="633" on="0"/>
        <pt x="41" y="654" on="0"/>
        <pt x="66" y="665" on="0"/>
        <pt x="79" y="660" on="1"/>
        <pt x="95" y="662" on="0"/>
        <pt x="124" y="643" on="0"/>
        <pt x="124" y="622" on="1"/>
        <pt x="175" y="561" on="0"/>
        <pt x="265" y="443" on="0"/>
        <pt x="302" y="377" on="1"/>
        <pt x="319" y="347" on="0"/>
        <pt x="348" y="284" on="0"/>
        <pt x="361" y="252" on="1"/>
        <pt x="361" y="293" on="0"/>
        <pt x="368" y="373" on="0"/>
        <pt x="373" y="415" on="1"/>
        <pt x="384" y="501" on="0"/>
        <pt x="405" y="672" on="0"/>
        <pt x="406" y="760" on="1"/>
        <pt x="406" y="779" on="0"/>
        <pt x="431" y="798" on="0"/>
        <pt x="461" y="798" on="0"/>
        <pt x="486" y="779" on="0"/>
        <pt x="486" y="760" on="1"/>
        <pt x="485" y="670" on="0"/>
        <pt x="462" y="495" on="0"/>
        <pt x="451" y="407" on="1"/>
        <pt x="446" y="362" on="0"/>
        <pt x="440" y="275" on="0"/>
        <pt x="441" y="230" on="1"/>
        <pt x="442" y="187" on="0"/>
        <pt x="445" y="103" on="0"/>
        <pt x="443" y="60" on="1"/>
        <pt x="442" y="45" on="0"/>
        <pt x="425" y="26" on="0"/>
        <pt x="401" y="20" on="0"/>
        <pt x="377" y="28" on="0"/>
        <pt x="369" y="40" on="1"/>
        <pt x="346" y="75" on="0"/>
        <pt x="314" y="152" on="0"/>
        <pt x="300" y="190" on="1"/>
        <pt x="286" y="227" on="0"/>
        <pt x="256" y="296" on="0"/>
        <pt x="237" y="330" on="1"/>
        <pt x="212" y="375" on="0"/>
        <pt x="155" y="457" on="0"/>
        <pt x="123" y="496" on="1"/>
        <pt x="123" y="455" on="0"/>
        <pt x="123" y="376" on="0"/>
        <pt x="125" y="335" on="1"/>
        <pt x="127" y="263" on="0"/>
        <pt x="143" y="122" on="0"/>
        <pt x="152" y="51" on="1"/>
        <pt x="154" y="34" on="0"/>
        <pt x="127" y="11" on="0"/>
        <pt x="113" y="11" on="1"/>
        <pt x="95" y="11" on="0"/>
        <pt x="75" y="34" on="0"/>
        <pt x="73" y="51" on="1"/>
        <pt x="63" y="122" on="0"/>
        <pt x="47" y="263" on="0"/>
        <pt x="45" y="335" on="1"/>
        <pt x="43" y="398" on="0"/>
        <pt x="44" y="523" on="0"/>
      </contour>
    </TTGlyph>
    <TTGlyph name="Ntilde" xMin="14" yMin="11" xMax="486" yMax="883">
      <component glyphName="N" x="0" y="0" flags="0x204"/>
      <component glyphName="tilde" x="-91" y="154" flags="0x4"/>
    </TTGlyph>
    <TTGlyph name="O" xMin="4" yMin="5" xMax="546" yMax="687">
      <contour>
        <pt x="150" y="49" on="1"/>
        <pt x="127" y="66" on="0"/>
        <pt x="90" y="109" on="0"/>
        <pt x="75" y="133" on="1"/>
        <pt x="61" y="154" on="0"/>
        <pt x="35" y="202" on="0"/>
        <pt x="15" y="252" on="0"/>
        <pt x="4" y="304" on="0"/>
        <pt x="6" y="330" on="1"/>
        <pt x="9" y="381" on="0"/>
        <pt x="24" y="480" on="0"/>
        <pt x="37" y="528" on="1"/>
        <pt x="41" y="546" on="0"/>
        <pt x="53" y="590" on="0"/>
        <pt x="72" y="631" on="0"/>
        <pt x="98" y="665" on="0"/>
        <pt x="118" y="674" on="1"/>
        <pt x="148" y="687" on="0"/>
        <pt x="208" y="680" on="0"/>
        <pt x="265" y="654" on="0"/>
        <pt x="317" y="617" on="0"/>
        <pt x="340" y="599" on="1"/>
        <pt x="361" y="582" on="0"/>
        <pt x="402" y="545" on="0"/>
        <pt x="424" y="528" on="1"/>
        <pt x="450" y="505" on="0"/>
        <pt x="503" y="459" on="0"/>
        <pt x="520" y="429" on="1"/>
        <pt x="540" y="395" on="0"/>
        <pt x="546" y="326" on="0"/>
        <pt x="530" y="259" on="0"/>
        <pt x="496" y="195" on="0"/>
        <pt x="476" y="165" on="1"/>
        <pt x="458" y="139" on="0"/>
        <pt x="411" y="81" on="0"/>
        <pt x="354" y="33" on="0"/>
        <pt x="289" y="5" on="0"/>
        <pt x="253" y="9" on="1"/>
        <pt x="232" y="12" on="0"/>
        <pt x="222" y="25" on="1"/>
        <pt x="203" y="28" on="0"/>
        <pt x="167" y="38" on="0"/>
      </contour>
      <contour>
        <pt x="86" y="337" on="1"/>
        <pt x="84" y="312" on="0"/>
        <pt x="93" y="270" on="0"/>
        <pt x="104" y="244" on="1"/>
        <pt x="118" y="215" on="0"/>
        <pt x="152" y="156" on="0"/>
        <pt x="175" y="132" on="1"/>
        <pt x="195" y="110" on="0"/>
        <pt x="221" y="105" on="1"/>
        <pt x="238" y="102" on="0"/>
        <pt x="270" y="97" on="0"/>
        <pt x="286" y="92" on="1"/>
        <pt x="292" y="94" on="0"/>
        <pt x="304" y="99" on="0"/>
        <pt x="310" y="104" on="1"/>
        <pt x="327" y="115" on="0"/>
        <pt x="355" y="141" on="0"/>
        <pt x="368" y="155" on="1"/>
        <pt x="393" y="183" on="0"/>
        <pt x="440" y="249" on="0"/>
        <pt x="454" y="284" on="1"/>
        <pt x="468" y="319" on="0"/>
        <pt x="462" y="381" on="0"/>
        <pt x="436" y="410" on="1"/>
        <pt x="412" y="437" on="0"/>
        <pt x="355" y="482" on="0"/>
        <pt x="328" y="505" on="1"/>
        <pt x="305" y="525" on="0"/>
        <pt x="261" y="561" on="0"/>
        <pt x="235" y="577" on="1"/>
        <pt x="211" y="593" on="0"/>
        <pt x="188" y="601" on="1"/>
        <pt x="185" y="602" on="0"/>
        <pt x="180" y="603" on="0"/>
        <pt x="177" y="604" on="1"/>
        <pt x="162" y="605" on="1"/>
        <pt x="154" y="603" on="0"/>
        <pt x="152" y="601" on="1"/>
        <pt x="145" y="593" on="0"/>
        <pt x="144" y="593" on="1"/>
        <pt x="137" y="581" on="0"/>
        <pt x="133" y="571" on="0"/>
        <pt x="129" y="560" on="1"/>
        <pt x="119" y="531" on="0"/>
        <pt x="105" y="472" on="0"/>
        <pt x="100" y="443" on="1"/>
        <pt x="95" y="414" on="0"/>
        <pt x="88" y="366" on="0"/>
      </contour>
    </TTGlyph>
    <TTGlyph name="OE" xMin="20" yMin="-22" xMax="736" yMax="750">
      <contour>
        <pt x="277" y="-15" on="1"/>
        <pt x="246" y="-11" on="0"/>
        <pt x="183" y="5" on="0"/>
        <pt x="125" y="31" on="0"/>
        <pt x="74" y="69" on="0"/>
        <pt x="55" y="96" on="1"/>
        <pt x="36" y="123" on="0"/>
        <pt x="21" y="181" on="0"/>
        <pt x="20" y="241" on="0"/>
        <pt x="29" y="303" on="0"/>
        <pt x="34" y="333" on="1"/>
        <pt x="45" y="393" on="0"/>
        <pt x="79" y="510" on="0"/>
        <pt x="112" y="562" on="1"/>
        <pt x="151" y="625" on="0"/>
        <pt x="265" y="709" on="0"/>
        <pt x="335" y="733" on="1"/>
        <pt x="355" y="742" on="0"/>
        <pt x="383" y="747" on="0"/>
        <pt x="398" y="748" on="1"/>
        <pt x="424" y="750" on="0"/>
        <pt x="477" y="750" on="0"/>
        <pt x="503" y="749" on="1"/>
        <pt x="552" y="747" on="0"/>
        <pt x="649" y="740" on="0"/>
        <pt x="697" y="739" on="1"/>
        <pt x="716" y="739" on="0"/>
        <pt x="736" y="714" on="0"/>
        <pt x="736" y="684" on="0"/>
        <pt x="716" y="659" on="0"/>
        <pt x="697" y="659" on="1"/>
        <pt x="682" y="660" on="0"/>
        <pt x="651" y="661" on="0"/>
        <pt x="636" y="662" on="1"/>
        <pt x="579" y="666" on="0"/>
        <pt x="468" y="673" on="0"/>
        <pt x="412" y="670" on="1"/>
        <pt x="407" y="669" on="0"/>
        <pt x="397" y="669" on="0"/>
        <pt x="392" y="668" on="1"/>
        <pt x="384" y="657" on="0"/>
        <pt x="384" y="646" on="0"/>
        <pt x="384" y="641" on="1"/>
        <pt x="384" y="616" on="0"/>
        <pt x="387" y="591" on="1"/>
        <pt x="392" y="549" on="0"/>
        <pt x="411" y="457" on="0"/>
        <pt x="419" y="411" on="1"/>
        <pt x="468" y="413" on="0"/>
        <pt x="563" y="428" on="0"/>
        <pt x="611" y="431" on="1"/>
        <pt x="628" y="433" on="0"/>
        <pt x="651" y="407" on="0"/>
        <pt x="651" y="391" on="1"/>
        <pt x="651" y="374" on="0"/>
        <pt x="628" y="353" on="0"/>
        <pt x="611" y="352" on="1"/>
        <pt x="566" y="348" on="0"/>
        <pt x="476" y="334" on="0"/>
        <pt x="430" y="332" on="1"/>
        <pt x="432" y="304" on="0"/>
        <pt x="435" y="249" on="0"/>
        <pt x="438" y="222" on="1"/>
        <pt x="450" y="72" on="1"/>
        <pt x="499" y="80" on="0"/>
        <pt x="594" y="99" on="0"/>
        <pt x="643" y="107" on="1"/>
        <pt x="659" y="110" on="0"/>
        <pt x="687" y="96" on="0"/>
        <pt x="692" y="79" on="1"/>
        <pt x="696" y="65" on="0"/>
        <pt x="680" y="33" on="0"/>
        <pt x="664" y="30" on="1"/>
        <pt x="608" y="21" on="0"/>
        <pt x="499" y="-1" on="0"/>
        <pt x="443" y="-9" on="1"/>
        <pt x="432" y="-18" on="0"/>
        <pt x="417" y="-18" on="1"/>
        <pt x="411" y="-20" on="0"/>
        <pt x="407" y="-20" on="1"/>
        <pt x="375" y="-22" on="0"/>
        <pt x="309" y="-20" on="0"/>
      </contour>
      <contour>
        <pt x="105" y="275" on="1"/>
        <pt x="100" y="247" on="0"/>
        <pt x="98" y="196" on="0"/>
        <pt x="106" y="171" on="1"/>
        <pt x="112" y="151" on="0"/>
        <pt x="140" y="116" on="0"/>
        <pt x="159" y="105" on="1"/>
        <pt x="204" y="76" on="0"/>
        <pt x="315" y="58" on="0"/>
        <pt x="371" y="59" on="1"/>
        <pt x="367" y="116" on="0"/>
        <pt x="357" y="229" on="0"/>
        <pt x="353" y="286" on="1"/>
        <pt x="351" y="304" on="0"/>
        <pt x="349" y="337" on="0"/>
        <pt x="347" y="354" on="1"/>
        <pt x="340" y="370" on="0"/>
        <pt x="344" y="383" on="1"/>
        <pt x="343" y="388" on="0"/>
        <pt x="342" y="395" on="0"/>
        <pt x="341" y="400" on="1"/>
        <pt x="335" y="426" on="0"/>
        <pt x="325" y="480" on="0"/>
        <pt x="320" y="506" on="1"/>
        <pt x="315" y="536" on="0"/>
        <pt x="306" y="595" on="0"/>
        <pt x="305" y="625" on="1"/>
        <pt x="214" y="587" on="0"/>
        <pt x="166" y="497" on="1"/>
        <pt x="140" y="446" on="0"/>
        <pt x="114" y="332" on="0"/>
      </contour>
    </TTGlyph>
    <TTGlyph name="Oacute" xMin="4" yMin="5" xMax="546" yMax="896">
      <component glyphName="O" x="0" y="0" flags="0x204"/>
      <component glyphName="acute" x="20" y="143" flags="0x4"/>
    </TTGlyph>
    <TTGlyph name="Ocircumflex" xMin="4" yMin="5" xMax="546" yMax="901">
      <component glyphName="O" x="0" y="0" flags="0x204"/>
      <component glyphName="circumflex" x="-30" y="143" flags="0x4"/>
    </TTGlyph>
    <TTGlyph name="Odieresis" xMin="4" yMin="5" xMax="546" yMax="859">
      <component glyphName="O" x="0" y="0" flags="0x204"/>
      <component glyphName="dieresis" x="-81" y="133" flags="0x4"/>
    </TTGlyph>
    <TTGlyph name="Ograve" xMin="4" yMin="5" xMax="546" yMax="896">
      <component glyphName="O" x="0" y="0" flags="0x204"/>
      <component glyphName="grave" x="-40" y="143" flags="0x4"/>
    </TTGlyph>
    <TTGlyph name="Oslash" xMin="9" yMin="-92" xMax="551" yMax="710">
      <contour>
        <pt x="429" y="528" on="1"/>
        <pt x="456" y="505" on="0"/>
        <pt x="508" y="459" on="0"/>
        <pt x="525" y="429" on="1"/>
        <pt x="545" y="395" on="0"/>
        <pt x="551" y="326" on="0"/>
        <pt x="535" y="259" on="0"/>
        <pt x="501" y="195" on="0"/>
        <pt x="481" y="165" on="1"/>
        <pt x="463" y="139" on="0"/>
        <pt x="416" y="81" on="0"/>
        <pt x="359" y="33" on="0"/>
        <pt x="294" y="5" on="0"/>
        <pt x="258" y="9" on="1"/>
        <pt x="249" y="11" on="0"/>
        <pt x="232" y="18" on="0"/>
        <pt x="227" y="25" on="1"/>
        <pt x="211" y="28" on="0"/>
        <pt x="180" y="34" on="0"/>
        <pt x="166" y="42" on="1"/>
        <pt x="155" y="17" on="0"/>
        <pt x="135" y="-33" on="0"/>
        <pt x="126" y="-59" on="1"/>
        <pt x="121" y="-74" on="0"/>
        <pt x="94" y="-92" on="0"/>
        <pt x="77" y="-87" on="1"/>
        <pt x="62" y="-82" on="0"/>
        <pt x="44" y="-53" on="0"/>
        <pt x="49" y="-38" on="1"/>
        <pt x="62" y="-3" on="0"/>
        <pt x="89" y="65" on="0"/>
        <pt x="105" y="98" on="1"/>
        <pt x="98" y="106" on="0"/>
        <pt x="86" y="124" on="0"/>
        <pt x="80" y="133" on="1"/>
        <pt x="66" y="154" on="0"/>
        <pt x="40" y="202" on="0"/>
        <pt x="20" y="252" on="0"/>
        <pt x="9" y="304" on="0"/>
        <pt x="11" y="330" on="1"/>
        <pt x="14" y="381" on="0"/>
        <pt x="30" y="480" on="0"/>
        <pt x="42" y="528" on="1"/>
        <pt x="46" y="546" on="0"/>
        <pt x="58" y="590" on="0"/>
        <pt x="77" y="631" on="0"/>
        <pt x="103" y="665" on="0"/>
        <pt x="123" y="674" on="1"/>
        <pt x="153" y="687" on="0"/>
        <pt x="213" y="680" on="0"/>
        <pt x="270" y="654" on="0"/>
        <pt x="322" y="617" on="0"/>
        <pt x="345" y="599" on="1"/>
        <pt x="350" y="595" on="0"/>
        <pt x="359" y="587" on="0"/>
        <pt x="364" y="583" on="1"/>
        <pt x="378" y="609" on="0"/>
        <pt x="403" y="661" on="0"/>
        <pt x="415" y="687" on="1"/>
        <pt x="422" y="702" on="0"/>
        <pt x="457" y="710" on="0"/>
        <pt x="470" y="702" on="1"/>
        <pt x="485" y="693" on="0"/>
        <pt x="491" y="662" on="0"/>
        <pt x="484" y="647" on="1"/>
        <pt x="470" y="617" on="0"/>
        <pt x="442" y="559" on="0"/>
        <pt x="426" y="530" on="1"/>
      </contour>
      <contour>
        <pt x="144" y="180" on="1"/>
        <pt x="187" y="265" on="0"/>
        <pt x="281" y="428" on="0"/>
        <pt x="326" y="511" on="1"/>
        <pt x="306" y="529" on="0"/>
        <pt x="263" y="563" on="0"/>
        <pt x="240" y="577" on="1"/>
        <pt x="216" y="593" on="0"/>
        <pt x="193" y="601" on="1"/>
        <pt x="190" y="602" on="0"/>
        <pt x="185" y="603" on="0"/>
        <pt x="182" y="604" on="1"/>
        <pt x="167" y="605" on="1"/>
        <pt x="161" y="603" on="0"/>
        <pt x="157" y="601" on="1"/>
        <pt x="150" y="593" on="0"/>
        <pt x="149" y="593" on="1"/>
        <pt x="142" y="581" on="0"/>
        <pt x="138" y="571" on="0"/>
        <pt x="134" y="560" on="1"/>
        <pt x="124" y="531" on="0"/>
        <pt x="110" y="472" on="0"/>
        <pt x="105" y="443" on="1"/>
        <pt x="100" y="414" on="0"/>
        <pt x="93" y="366" on="0"/>
        <pt x="91" y="337" on="1"/>
        <pt x="89" y="312" on="0"/>
        <pt x="98" y="270" on="0"/>
        <pt x="109" y="244" on="1"/>
        <pt x="117" y="227" on="0"/>
        <pt x="134" y="195" on="0"/>
      </contour>
      <contour>
        <pt x="459" y="284" on="1"/>
        <pt x="473" y="319" on="0"/>
        <pt x="467" y="381" on="0"/>
        <pt x="441" y="410" on="1"/>
        <pt x="429" y="424" on="0"/>
        <pt x="402" y="448" on="0"/>
        <pt x="388" y="460" on="1"/>
        <pt x="340" y="373" on="0"/>
        <pt x="243" y="204" on="0"/>
        <pt x="200" y="115" on="1"/>
        <pt x="206" y="112" on="0"/>
        <pt x="218" y="107" on="0"/>
        <pt x="226" y="105" on="1"/>
        <pt x="243" y="102" on="0"/>
        <pt x="275" y="97" on="0"/>
        <pt x="292" y="92" on="1"/>
        <pt x="297" y="94" on="0"/>
        <pt x="309" y="99" on="0"/>
        <pt x="315" y="104" on="1"/>
        <pt x="332" y="115" on="0"/>
        <pt x="360" y="141" on="0"/>
        <pt x="373" y="155" on="1"/>
        <pt x="398" y="183" on="0"/>
        <pt x="445" y="249" on="0"/>
      </contour>
    </TTGlyph>
    <TTGlyph name="Otilde" xMin="4" yMin="5" xMax="546" yMax="872">
      <component glyphName="O" x="0" y="0" flags="0x204"/>
      <component glyphName="tilde" x="0" y="143" flags="0x4"/>
    </TTGlyph>
    <TTGlyph name="P" xMin="40" yMin="-45" xMax="424" yMax="777">
      <contour>
        <pt x="50" y="579" on="1"/>
        <pt x="48" y="595" on="0"/>
        <pt x="43" y="625" on="0"/>
        <pt x="42" y="640" on="1"/>
        <pt x="40" y="658" on="0"/>
        <pt x="43" y="698" on="0"/>
        <pt x="56" y="734" on="0"/>
        <pt x="80" y="762" on="0"/>
        <pt x="101" y="768" on="1"/>
        <pt x="133" y="777" on="0"/>
        <pt x="199" y="754" on="0"/>
        <pt x="228" y="740" on="1"/>
        <pt x="256" y="726" on="0"/>
        <pt x="310" y="694" on="0"/>
        <pt x="339" y="680" on="1"/>
        <pt x="354" y="673" on="0"/>
        <pt x="384" y="657" on="0"/>
        <pt x="407" y="636" on="0"/>
        <pt x="422" y="607" on="0"/>
        <pt x="423" y="588" on="1"/>
        <pt x="424" y="568" on="0"/>
        <pt x="409" y="530" on="0"/>
        <pt x="401" y="512" on="1"/>
        <pt x="356" y="412" on="0"/>
        <pt x="286" y="325" on="1"/>
        <pt x="260" y="293" on="0"/>
        <pt x="195" y="238" on="0"/>
        <pt x="154" y="230" on="1"/>
        <pt x="163" y="173" on="0"/>
        <pt x="186" y="63" on="0"/>
        <pt x="201" y="7" on="1"/>
        <pt x="206" y="-12" on="0"/>
        <pt x="187" y="-37" on="0"/>
        <pt x="159" y="-45" on="0"/>
        <pt x="129" y="-33" on="0"/>
        <pt x="124" y="-14" on="1"/>
        <pt x="92" y="108" on="0"/>
        <pt x="58" y="353" on="0"/>
        <pt x="53" y="480" on="1"/>
        <pt x="52" y="497" on="0"/>
        <pt x="52" y="529" on="0"/>
        <pt x="51" y="546" on="1"/>
        <pt x="51" y="553" on="0"/>
        <pt x="51" y="566" on="0"/>
        <pt x="50" y="572" on="1"/>
      </contour>
      <contour>
        <pt x="121" y="676" on="1"/>
        <pt x="120" y="654" on="0"/>
        <pt x="123" y="629" on="1"/>
        <pt x="124" y="618" on="0"/>
        <pt x="125" y="612" on="0"/>
        <pt x="125" y="610" on="1"/>
        <pt x="128" y="592" on="1"/>
        <pt x="131" y="562" on="0"/>
        <pt x="131" y="531" on="1"/>
        <pt x="133" y="487" on="0"/>
        <pt x="136" y="400" on="0"/>
        <pt x="140" y="356" on="1"/>
        <pt x="141" y="344" on="0"/>
        <pt x="142" y="320" on="0"/>
        <pt x="144" y="309" on="1"/>
        <pt x="154" y="312" on="0"/>
        <pt x="162" y="317" on="0"/>
        <pt x="166" y="319" on="1"/>
        <pt x="172" y="323" on="0"/>
        <pt x="175" y="326" on="1"/>
        <pt x="200" y="346" on="0"/>
        <pt x="234" y="386" on="0"/>
        <pt x="249" y="407" on="1"/>
        <pt x="282" y="453" on="0"/>
        <pt x="308" y="502" on="1"/>
        <pt x="313" y="513" on="0"/>
        <pt x="323" y="532" on="0"/>
        <pt x="328" y="543" on="1"/>
        <pt x="330" y="548" on="0"/>
        <pt x="334" y="556" on="0"/>
        <pt x="336" y="561" on="1"/>
        <pt x="341" y="573" on="0"/>
        <pt x="343" y="581" on="1"/>
        <pt x="343" y="588" on="0"/>
        <pt x="340" y="591" on="1"/>
        <pt x="326" y="599" on="0"/>
        <pt x="319" y="602" on="1"/>
        <pt x="290" y="616" on="0"/>
        <pt x="236" y="645" on="0"/>
        <pt x="207" y="661" on="1"/>
        <pt x="193" y="669" on="0"/>
        <pt x="164" y="683" on="0"/>
        <pt x="148" y="688" on="1"/>
        <pt x="145" y="689" on="0"/>
        <pt x="138" y="691" on="0"/>
        <pt x="135" y="691" on="1"/>
        <pt x="128" y="692" on="0"/>
        <pt x="126" y="691" on="0"/>
        <pt x="125" y="691" on="1"/>
        <pt x="123" y="688" on="0"/>
        <pt x="122" y="682" on="0"/>
        <pt x="121" y="680" on="1"/>
      </contour>
    </TTGlyph>
    <TTGlyph name="Q" xMin="18" yMin="-36" xMax="521" yMax="710">
      <contour>
        <pt x="170" y="38" on="1"/>
        <pt x="123" y="65" on="0"/>
        <pt x="60" y="149" on="0"/>
        <pt x="26" y="249" on="0"/>
        <pt x="18" y="358" on="0"/>
        <pt x="25" y="411" on="1"/>
        <pt x="29" y="442" on="0"/>
        <pt x="42" y="508" on="0"/>
        <pt x="64" y="572" on="0"/>
        <pt x="97" y="630" on="0"/>
        <pt x="120" y="653" on="1"/>
        <pt x="160" y="692" on="0"/>
        <pt x="264" y="710" on="0"/>
        <pt x="316" y="689" on="1"/>
        <pt x="370" y="667" on="0"/>
        <pt x="460" y="584" on="0"/>
        <pt x="485" y="531" on="1"/>
        <pt x="514" y="471" on="0"/>
        <pt x="521" y="338" on="0"/>
        <pt x="504" y="274" on="1"/>
        <pt x="487" y="208" on="0"/>
        <pt x="453" y="150" on="1"/>
        <pt x="464" y="136" on="0"/>
        <pt x="487" y="109" on="0"/>
        <pt x="500" y="95" on="1"/>
        <pt x="513" y="81" on="0"/>
        <pt x="508" y="49" on="0"/>
        <pt x="487" y="28" on="0"/>
        <pt x="456" y="25" on="0"/>
        <pt x="443" y="39" on="1"/>
        <pt x="424" y="59" on="0"/>
        <pt x="406" y="82" on="1"/>
        <pt x="386" y="58" on="0"/>
        <pt x="359" y="34" on="1"/>
        <pt x="346" y="23" on="0"/>
        <pt x="315" y="-4" on="0"/>
        <pt x="279" y="-25" on="0"/>
        <pt x="242" y="-36" on="0"/>
        <pt x="223" y="-31" on="1"/>
        <pt x="197" y="-25" on="0"/>
        <pt x="175" y="15" on="0"/>
      </contour>
      <contour>
        <pt x="125" y="499" on="1"/>
        <pt x="106" y="439" on="0"/>
        <pt x="96" y="312" on="0"/>
        <pt x="110" y="252" on="1"/>
        <pt x="121" y="210" on="0"/>
        <pt x="161" y="139" on="0"/>
        <pt x="195" y="116" on="1"/>
        <pt x="198" y="117" on="0"/>
        <pt x="205" y="117" on="1"/>
        <pt x="218" y="117" on="0"/>
        <pt x="236" y="104" on="0"/>
        <pt x="241" y="93" on="1"/>
        <pt x="263" y="84" on="0"/>
        <pt x="266" y="62" on="1"/>
        <pt x="279" y="71" on="0"/>
        <pt x="295" y="83" on="0"/>
        <pt x="303" y="91" on="1"/>
        <pt x="318" y="105" on="0"/>
        <pt x="345" y="133" on="0"/>
        <pt x="356" y="149" on="1"/>
        <pt x="343" y="168" on="0"/>
        <pt x="316" y="205" on="0"/>
        <pt x="302" y="223" on="1"/>
        <pt x="291" y="236" on="0"/>
        <pt x="289" y="267" on="0"/>
        <pt x="302" y="279" on="1"/>
        <pt x="313" y="290" on="0"/>
        <pt x="347" y="292" on="0"/>
        <pt x="358" y="279" on="1"/>
        <pt x="369" y="265" on="0"/>
        <pt x="390" y="236" on="0"/>
        <pt x="401" y="222" on="1"/>
        <pt x="417" y="257" on="0"/>
        <pt x="437" y="329" on="0"/>
        <pt x="440" y="402" on="0"/>
        <pt x="427" y="472" on="0"/>
        <pt x="409" y="503" on="1"/>
        <pt x="397" y="524" on="0"/>
        <pt x="366" y="564" on="0"/>
        <pt x="327" y="596" on="0"/>
        <pt x="283" y="619" on="0"/>
        <pt x="259" y="623" on="1"/>
        <pt x="242" y="627" on="0"/>
        <pt x="201" y="619" on="0"/>
        <pt x="187" y="606" on="1"/>
        <pt x="163" y="585" on="0"/>
        <pt x="134" y="529" on="0"/>
      </contour>
    </TTGlyph>
    <TTGlyph name="R" xMin="4" yMin="-39" xMax="458" yMax="770">
      <contour>
        <pt x="434" y="25" on="1"/>
        <pt x="426" y="11" on="0"/>
        <pt x="393" y="1" on="0"/>
        <pt x="379" y="11" on="1"/>
        <pt x="352" y="31" on="0"/>
        <pt x="302" y="74" on="0"/>
        <pt x="273" y="91" on="1"/>
        <pt x="247" y="107" on="0"/>
        <pt x="195" y="134" on="0"/>
        <pt x="171" y="152" on="1"/>
        <pt x="142" y="174" on="0"/>
        <pt x="117" y="200" on="1"/>
        <pt x="116" y="150" on="0"/>
        <pt x="120" y="51" on="0"/>
        <pt x="124" y="1" on="1"/>
        <pt x="126" y="-16" on="0"/>
        <pt x="100" y="-39" on="0"/>
        <pt x="85" y="-39" on="1"/>
        <pt x="67" y="-39" on="0"/>
        <pt x="47" y="-16" on="0"/>
        <pt x="45" y="1" on="1"/>
        <pt x="39" y="73" on="0"/>
        <pt x="37" y="212" on="0"/>
        <pt x="41" y="283" on="1"/>
        <pt x="33" y="294" on="0"/>
        <pt x="17" y="317" on="0"/>
        <pt x="10" y="329" on="1"/>
        <pt x="4" y="341" on="0"/>
        <pt x="7" y="363" on="0"/>
        <pt x="20" y="379" on="0"/>
        <pt x="39" y="389" on="0"/>
        <pt x="50" y="388" on="1"/>
        <pt x="52" y="411" on="0"/>
        <pt x="58" y="458" on="0"/>
        <pt x="61" y="481" on="1"/>
        <pt x="64" y="497" on="0"/>
        <pt x="69" y="528" on="0"/>
        <pt x="71" y="544" on="1"/>
        <pt x="73" y="552" on="0"/>
        <pt x="74" y="566" on="0"/>
        <pt x="76" y="574" on="1"/>
        <pt x="76" y="578" on="0"/>
        <pt x="78" y="584" on="1"/>
        <pt x="79" y="597" on="0"/>
        <pt x="79" y="622" on="0"/>
        <pt x="80" y="635" on="1"/>
        <pt x="81" y="651" on="0"/>
        <pt x="86" y="688" on="0"/>
        <pt x="97" y="723" on="0"/>
        <pt x="117" y="753" on="0"/>
        <pt x="134" y="761" on="1"/>
        <pt x="150" y="768" on="0"/>
        <pt x="183" y="770" on="0"/>
        <pt x="216" y="764" on="0"/>
        <pt x="248" y="753" on="0"/>
        <pt x="263" y="747" on="1"/>
        <pt x="298" y="734" on="0"/>
        <pt x="367" y="701" on="0"/>
        <pt x="394" y="675" on="1"/>
        <pt x="420" y="649" on="0"/>
        <pt x="458" y="578" on="0"/>
        <pt x="456" y="540" on="1"/>
        <pt x="454" y="517" on="0"/>
        <pt x="439" y="482" on="0"/>
        <pt x="426" y="464" on="1"/>
        <pt x="394" y="419" on="0"/>
        <pt x="320" y="337" on="0"/>
        <pt x="278" y="303" on="1"/>
        <pt x="258" y="287" on="0"/>
        <pt x="211" y="255" on="0"/>
        <pt x="185" y="244" on="1"/>
        <pt x="194" y="236" on="0"/>
        <pt x="212" y="220" on="0"/>
        <pt x="222" y="214" on="1"/>
        <pt x="248" y="197" on="0"/>
        <pt x="301" y="168" on="0"/>
        <pt x="326" y="151" on="1"/>
        <pt x="350" y="134" on="0"/>
        <pt x="396" y="96" on="0"/>
        <pt x="419" y="79" on="1"/>
        <pt x="433" y="70" on="0"/>
        <pt x="442" y="40" on="0"/>
      </contour>
      <contour>
        <pt x="164" y="322" on="1"/>
        <pt x="188" y="335" on="0"/>
        <pt x="227" y="364" on="0"/>
        <pt x="246" y="381" on="1"/>
        <pt x="266" y="399" on="0"/>
        <pt x="304" y="439" on="0"/>
        <pt x="322" y="459" on="1"/>
        <pt x="329" y="468" on="0"/>
        <pt x="341" y="482" on="0"/>
        <pt x="351" y="495" on="0"/>
        <pt x="362" y="510" on="0"/>
        <pt x="368" y="520" on="1"/>
        <pt x="370" y="523" on="0"/>
        <pt x="374" y="529" on="0"/>
        <pt x="376" y="532" on="1"/>
        <pt x="377" y="560" on="0"/>
        <pt x="364" y="584" on="1"/>
        <pt x="347" y="613" on="0"/>
        <pt x="296" y="649" on="0"/>
        <pt x="265" y="661" on="1"/>
        <pt x="247" y="669" on="0"/>
        <pt x="211" y="681" on="0"/>
        <pt x="191" y="686" on="1"/>
        <pt x="186" y="688" on="0"/>
        <pt x="176" y="690" on="1"/>
        <pt x="170" y="688" on="0"/>
        <pt x="168" y="684" on="1"/>
        <pt x="164" y="671" on="0"/>
        <pt x="164" y="666" on="1"/>
        <pt x="163" y="663" on="0"/>
        <pt x="161" y="655" on="1"/>
        <pt x="160" y="645" on="0"/>
        <pt x="159" y="634" on="0"/>
        <pt x="159" y="628" on="1"/>
        <pt x="156" y="559" on="0"/>
        <pt x="133" y="425" on="0"/>
        <pt x="126" y="356" on="1"/>
        <pt x="124" y="345" on="0"/>
        <pt x="123" y="322" on="0"/>
        <pt x="122" y="311" on="1"/>
        <pt x="131" y="310" on="0"/>
        <pt x="132" y="311" on="1"/>
        <pt x="143" y="313" on="0"/>
        <pt x="156" y="318" on="0"/>
      </contour>
    </TTGlyph>
    <TTGlyph name="S" xMin="-10" yMin="-31" xMax="467" yMax="745">
      <contour>
        <pt x="239" y="274" on="1"/>
        <pt x="215" y="299" on="0"/>
        <pt x="161" y="342" on="0"/>
        <pt x="108" y="385" on="0"/>
        <pt x="58" y="432" on="0"/>
        <pt x="37" y="460" on="1"/>
        <pt x="15" y="489" on="0"/>
        <pt x="-10" y="558" on="0"/>
        <pt x="-2" y="595" on="1"/>
        <pt x="6" y="635" on="0"/>
        <pt x="68" y="695" on="0"/>
        <pt x="104" y="712" on="1"/>
        <pt x="143" y="729" on="0"/>
        <pt x="223" y="742" on="0"/>
        <pt x="305" y="745" on="0"/>
        <pt x="388" y="742" on="0"/>
        <pt x="429" y="744" on="1"/>
        <pt x="448" y="745" on="0"/>
        <pt x="467" y="721" on="0"/>
        <pt x="467" y="691" on="0"/>
        <pt x="448" y="666" on="0"/>
        <pt x="429" y="665" on="1"/>
        <pt x="400" y="663" on="0"/>
        <pt x="343" y="664" on="0"/>
        <pt x="314" y="665" on="1"/>
        <pt x="275" y="666" on="0"/>
        <pt x="196" y="662" on="0"/>
        <pt x="158" y="648" on="1"/>
        <pt x="145" y="643" on="0"/>
        <pt x="115" y="628" on="0"/>
        <pt x="90" y="606" on="0"/>
        <pt x="74" y="580" on="0"/>
        <pt x="75" y="565" on="1"/>
        <pt x="76" y="551" on="0"/>
        <pt x="88" y="524" on="0"/>
        <pt x="107" y="498" on="0"/>
        <pt x="129" y="474" on="0"/>
        <pt x="139" y="464" on="1"/>
        <pt x="162" y="441" on="0"/>
        <pt x="212" y="403" on="0"/>
        <pt x="237" y="383" on="1"/>
        <pt x="263" y="362" on="0"/>
        <pt x="316" y="311" on="0"/>
        <pt x="355" y="252" on="0"/>
        <pt x="374" y="186" on="0"/>
        <pt x="367" y="149" on="1"/>
        <pt x="360" y="114" on="0"/>
        <pt x="321" y="65" on="0"/>
        <pt x="268" y="26" on="0"/>
        <pt x="209" y="-5" on="0"/>
        <pt x="182" y="-21" on="1"/>
        <pt x="165" y="-31" on="0"/>
        <pt x="136" y="-19" on="0"/>
        <pt x="121" y="7" on="0"/>
        <pt x="124" y="38" on="0"/>
        <pt x="141" y="48" on="1"/>
        <pt x="165" y="62" on="0"/>
        <pt x="213" y="86" on="0"/>
        <pt x="236" y="101" on="1"/>
        <pt x="258" y="115" on="0"/>
        <pt x="291" y="154" on="0"/>
        <pt x="291" y="180" on="1"/>
        <pt x="290" y="206" on="0"/>
        <pt x="259" y="254" on="0"/>
      </contour>
    </TTGlyph>
    <TTGlyph name="Scaron" xMin="-10" yMin="-31" xMax="467" yMax="990">
      <component glyphName="S" x="0" y="0" flags="0x204"/>
      <component glyphName="caron" x="-60" y="225" flags="0x4"/>
    </TTGlyph>
    <TTGlyph name="T" xMin="-26" yMin="-12" xMax="462" yMax="704">
      <contour>
        <pt x="14" y="618" on="1"/>
        <pt x="-2" y="616" on="0"/>
        <pt x="-26" y="642" on="0"/>
        <pt x="-26" y="658" on="1"/>
        <pt x="-26" y="675" on="0"/>
        <pt x="-2" y="696" on="0"/>
        <pt x="14" y="698" on="1"/>
        <pt x="64" y="702" on="0"/>
        <pt x="162" y="702" on="0"/>
        <pt x="212" y="699" on="1"/>
        <pt x="226" y="704" on="0"/>
        <pt x="242" y="697" on="1"/>
        <pt x="335" y="690" on="0"/>
        <pt x="430" y="673" on="1"/>
        <pt x="446" y="670" on="0"/>
        <pt x="462" y="638" on="0"/>
        <pt x="457" y="624" on="1"/>
        <pt x="452" y="607" on="0"/>
        <pt x="425" y="594" on="0"/>
        <pt x="408" y="596" on="1"/>
        <pt x="370" y="603" on="0"/>
        <pt x="296" y="613" on="0"/>
        <pt x="258" y="616" on="1"/>
        <pt x="244" y="546" on="0"/>
        <pt x="239" y="406" on="0"/>
        <pt x="246" y="334" on="1"/>
        <pt x="253" y="260" on="0"/>
        <pt x="279" y="115" on="0"/>
        <pt x="293" y="42" on="1"/>
        <pt x="296" y="25" on="0"/>
        <pt x="283" y="-2" on="0"/>
        <pt x="266" y="-7" on="1"/>
        <pt x="251" y="-12" on="0"/>
        <pt x="220" y="4" on="0"/>
        <pt x="217" y="20" on="1"/>
        <pt x="201" y="101" on="0"/>
        <pt x="172" y="260" on="0"/>
        <pt x="165" y="341" on="1"/>
        <pt x="159" y="412" on="0"/>
        <pt x="165" y="552" on="0"/>
        <pt x="178" y="621" on="1"/>
        <pt x="96" y="624" on="0"/>
      </contour>
    </TTGlyph>
    <TTGlyph name="Thorn" xMin="41" yMin="-45" xMax="450" yMax="753">
      <contour>
        <pt x="361" y="564" on="1"/>
        <pt x="390" y="555" on="0"/>
        <pt x="442" y="521" on="0"/>
        <pt x="447" y="487" on="1"/>
        <pt x="450" y="467" on="0"/>
        <pt x="441" y="430" on="0"/>
        <pt x="434" y="411" on="1"/>
        <pt x="416" y="360" on="0"/>
        <pt x="368" y="259" on="0"/>
        <pt x="336" y="214" on="1"/>
        <pt x="322" y="194" on="0"/>
        <pt x="289" y="154" on="0"/>
        <pt x="249" y="120" on="0"/>
        <pt x="204" y="97" on="0"/>
        <pt x="178" y="96" on="1"/>
        <pt x="187" y="49" on="0"/>
        <pt x="199" y="7" on="1"/>
        <pt x="204" y="-12" on="0"/>
        <pt x="185" y="-37" on="0"/>
        <pt x="156" y="-45" on="0"/>
        <pt x="127" y="-33" on="0"/>
        <pt x="122" y="-14" on="1"/>
        <pt x="93" y="94" on="0"/>
        <pt x="64" y="315" on="0"/>
        <pt x="54" y="425" on="1"/>
        <pt x="49" y="475" on="0"/>
        <pt x="43" y="572" on="0"/>
        <pt x="42" y="621" on="1"/>
        <pt x="41" y="647" on="0"/>
        <pt x="41" y="708" on="0"/>
        <pt x="54" y="732" on="1"/>
        <pt x="63" y="749" on="0"/>
        <pt x="93" y="753" on="0"/>
        <pt x="119" y="738" on="0"/>
        <pt x="131" y="708" on="0"/>
        <pt x="122" y="691" on="1"/>
        <pt x="123" y="688" on="0"/>
        <pt x="122" y="676" on="0"/>
        <pt x="122" y="674" on="1"/>
        <pt x="121" y="663" on="0"/>
        <pt x="121" y="644" on="0"/>
        <pt x="121" y="633" on="1"/>
        <pt x="153" y="635" on="0"/>
        <pt x="215" y="615" on="0"/>
        <pt x="244" y="604" on="1"/>
        <pt x="302" y="582" on="0"/>
      </contour>
      <contour>
        <pt x="369" y="474" on="1"/>
        <pt x="355" y="483" on="0"/>
        <pt x="330" y="490" on="0"/>
        <pt x="317" y="493" on="1"/>
        <pt x="291" y="501" on="0"/>
        <pt x="243" y="520" on="0"/>
        <pt x="217" y="529" on="1"/>
        <pt x="194" y="537" on="0"/>
        <pt x="147" y="553" on="0"/>
        <pt x="124" y="553" on="1"/>
        <pt x="126" y="518" on="0"/>
        <pt x="131" y="450" on="0"/>
        <pt x="135" y="415" on="1"/>
        <pt x="140" y="355" on="0"/>
        <pt x="154" y="235" on="0"/>
        <pt x="164" y="175" on="1"/>
        <pt x="174" y="175" on="1"/>
        <pt x="178" y="176" on="0"/>
        <pt x="191" y="181" on="0"/>
        <pt x="187" y="179" on="1"/>
        <pt x="197" y="182" on="0"/>
        <pt x="204" y="188" on="1"/>
        <pt x="212" y="193" on="0"/>
        <pt x="214" y="195" on="1"/>
        <pt x="232" y="211" on="0"/>
        <pt x="260" y="244" on="0"/>
        <pt x="272" y="262" on="1"/>
        <pt x="286" y="284" on="0"/>
        <pt x="312" y="328" on="0"/>
        <pt x="323" y="351" on="1"/>
        <pt x="334" y="373" on="0"/>
        <pt x="347" y="404" on="0"/>
        <pt x="355" y="426" on="1"/>
        <pt x="358" y="434" on="0"/>
        <pt x="363" y="449" on="0"/>
        <pt x="365" y="457" on="1"/>
        <pt x="366" y="460" on="0"/>
        <pt x="368" y="466" on="0"/>
        <pt x="369" y="470" on="1"/>
      </contour>
    </TTGlyph>
    <TTGlyph name="U" xMin="8" yMin="-15" xMax="465" yMax="716">
      <contour>
        <pt x="40" y="272" on="1"/>
        <pt x="29" y="372" on="0"/>
        <pt x="21" y="569" on="0"/>
        <pt x="10" y="668" on="1"/>
        <pt x="8" y="685" on="0"/>
        <pt x="35" y="708" on="0"/>
        <pt x="50" y="708" on="1"/>
        <pt x="68" y="708" on="0"/>
        <pt x="88" y="685" on="0"/>
        <pt x="90" y="668" on="1"/>
        <pt x="97" y="608" on="0"/>
        <pt x="104" y="491" on="0"/>
        <pt x="107" y="431" on="1"/>
        <pt x="111" y="344" on="0"/>
        <pt x="122" y="255" on="1"/>
        <pt x="123" y="244" on="0"/>
        <pt x="126" y="216" on="0"/>
        <pt x="127" y="209" on="1"/>
        <pt x="129" y="195" on="0"/>
        <pt x="134" y="169" on="0"/>
        <pt x="137" y="156" on="1"/>
        <pt x="143" y="131" on="0"/>
        <pt x="158" y="90" on="0"/>
        <pt x="173" y="76" on="1"/>
        <pt x="182" y="71" on="1"/>
        <pt x="190" y="69" on="0"/>
        <pt x="196" y="69" on="1"/>
        <pt x="203" y="70" on="0"/>
        <pt x="230" y="79" on="0"/>
        <pt x="240" y="86" on="1"/>
        <pt x="267" y="104" on="0"/>
        <pt x="305" y="158" on="0"/>
        <pt x="319" y="187" on="1"/>
        <pt x="335" y="219" on="0"/>
        <pt x="359" y="287" on="0"/>
        <pt x="367" y="322" on="1"/>
        <pt x="387" y="410" on="0"/>
        <pt x="382" y="588" on="0"/>
        <pt x="371" y="676" on="1"/>
        <pt x="369" y="692" on="0"/>
        <pt x="396" y="716" on="0"/>
        <pt x="410" y="716" on="1"/>
        <pt x="428" y="716" on="0"/>
        <pt x="448" y="692" on="0"/>
        <pt x="450" y="676" on="1"/>
        <pt x="463" y="580" on="0"/>
        <pt x="465" y="383" on="0"/>
        <pt x="440" y="289" on="1"/>
        <pt x="431" y="255" on="0"/>
        <pt x="407" y="183" on="0"/>
        <pt x="374" y="116" on="0"/>
        <pt x="330" y="55" on="0"/>
        <pt x="302" y="33" on="1"/>
        <pt x="274" y="11" on="0"/>
        <pt x="206" y="-15" on="0"/>
        <pt x="171" y="-8" on="1"/>
        <pt x="144" y="-3" on="0"/>
        <pt x="101" y="34" on="0"/>
        <pt x="88" y="57" on="1"/>
        <pt x="62" y="107" on="0"/>
        <pt x="46" y="218" on="0"/>
      </contour>
    </TTGlyph>
    <TTGlyph name="Uacute" xMin="8" yMin="-15" xMax="465" yMax="927">
      <component glyphName="U" x="0" y="0" flags="0x204"/>
      <component glyphName="acute" x="-19" y="174" flags="0x4"/>
    </TTGlyph>
    <TTGlyph name="Ucircumflex" xMin="8" yMin="-15" xMax="465" yMax="942">
      <component glyphName="U" x="0" y="0" flags="0x204"/>
      <component glyphName="circumflex" x="-60" y="184" flags="0x4"/>
    </TTGlyph>
    <TTGlyph name="Udieresis" xMin="8" yMin="-15" xMax="465" yMax="880">
      <component glyphName="U" x="0" y="0" flags="0x204"/>
      <component glyphName="dieresis" x="-50" y="154" flags="0x4"/>
    </TTGlyph>
    <TTGlyph name="Ugrave" xMin="8" yMin="-15" xMax="465" yMax="907">
      <component glyphName="U" x="0" y="0" flags="0x204"/>
      <component glyphName="grave" x="-101" y="154" flags="0x4"/>
    </TTGlyph>
    <TTGlyph name="V" xMin="2" yMin="-24" xMax="481" yMax="752">
      <contour>
        <pt x="180" y="-3" on="1"/>
        <pt x="144" y="80" on="0"/>
        <pt x="94" y="255" on="0"/>
        <pt x="57" y="432" on="0"/>
        <pt x="25" y="611" on="0"/>
        <pt x="6" y="699" on="1"/>
        <pt x="2" y="718" on="0"/>
        <pt x="22" y="744" on="0"/>
        <pt x="51" y="752" on="0"/>
        <pt x="79" y="740" on="0"/>
        <pt x="83" y="721" on="1"/>
        <pt x="102" y="633" on="0"/>
        <pt x="134" y="458" on="0"/>
        <pt x="153" y="370" on="1"/>
        <pt x="167" y="303" on="0"/>
        <pt x="200" y="170" on="0"/>
        <pt x="223" y="104" on="1"/>
        <pt x="231" y="118" on="0"/>
        <pt x="245" y="147" on="0"/>
        <pt x="252" y="162" on="1"/>
        <pt x="291" y="247" on="0"/>
        <pt x="321" y="336" on="1"/>
        <pt x="351" y="425" on="0"/>
        <pt x="398" y="611" on="0"/>
        <pt x="401" y="705" on="1"/>
        <pt x="401" y="724" on="0"/>
        <pt x="427" y="743" on="0"/>
        <pt x="457" y="743" on="0"/>
        <pt x="481" y="724" on="0"/>
        <pt x="480" y="705" on="1"/>
        <pt x="478" y="604" on="0"/>
        <pt x="428" y="405" on="0"/>
        <pt x="396" y="309" on="1"/>
        <pt x="379" y="260" on="0"/>
        <pt x="341" y="165" on="0"/>
        <pt x="319" y="117" on="1"/>
        <pt x="302" y="83" on="0"/>
        <pt x="266" y="18" on="0"/>
        <pt x="243" y="-11" on="1"/>
        <pt x="237" y="-18" on="0"/>
        <pt x="219" y="-24" on="0"/>
        <pt x="200" y="-21" on="0"/>
        <pt x="184" y="-11" on="0"/>
      </contour>
    </TTGlyph>
    <TTGlyph name="W" xMin="-1" yMin="7" xMax="840" yMax="694">
      <contour>
        <pt x="208" y="28" on="1"/>
        <pt x="199" y="15" on="0"/>
        <pt x="175" y="7" on="0"/>
        <pt x="152" y="14" on="0"/>
        <pt x="134" y="33" on="0"/>
        <pt x="133" y="48" on="1"/>
        <pt x="131" y="62" on="0"/>
        <pt x="131" y="66" on="1"/>
        <pt x="129" y="74" on="0"/>
        <pt x="127" y="90" on="0"/>
        <pt x="125" y="98" on="1"/>
        <pt x="121" y="118" on="0"/>
        <pt x="114" y="158" on="0"/>
        <pt x="109" y="178" on="1"/>
        <pt x="98" y="229" on="0"/>
        <pt x="74" y="328" on="0"/>
        <pt x="63" y="378" on="1"/>
        <pt x="52" y="423" on="0"/>
        <pt x="30" y="514" on="0"/>
        <pt x="19" y="559" on="1"/>
        <pt x="15" y="574" on="0"/>
        <pt x="9" y="604" on="0"/>
        <pt x="5" y="619" on="1"/>
        <pt x="3" y="627" on="0"/>
        <pt x="-1" y="646" on="0"/>
        <pt x="0" y="654" on="1"/>
        <pt x="2" y="671" on="0"/>
        <pt x="23" y="694" on="0"/>
        <pt x="40" y="694" on="1"/>
        <pt x="55" y="694" on="0"/>
        <pt x="82" y="671" on="0"/>
        <pt x="80" y="654" on="1"/>
        <pt x="81" y="648" on="0"/>
        <pt x="82" y="640" on="0"/>
        <pt x="84" y="635" on="1"/>
        <pt x="87" y="619" on="0"/>
        <pt x="94" y="589" on="0"/>
        <pt x="97" y="574" on="1"/>
        <pt x="108" y="527" on="0"/>
        <pt x="131" y="436" on="0"/>
        <pt x="142" y="390" on="1"/>
        <pt x="153" y="340" on="0"/>
        <pt x="176" y="242" on="0"/>
        <pt x="187" y="192" on="1"/>
        <pt x="189" y="182" on="0"/>
        <pt x="193" y="164" on="0"/>
        <pt x="195" y="155" on="1"/>
        <pt x="228" y="206" on="0"/>
        <pt x="289" y="311" on="0"/>
        <pt x="316" y="366" on="1"/>
        <pt x="349" y="433" on="0"/>
        <pt x="401" y="577" on="0"/>
        <pt x="406" y="652" on="1"/>
        <pt x="407" y="668" on="0"/>
        <pt x="429" y="688" on="0"/>
        <pt x="455" y="692" on="0"/>
        <pt x="480" y="679" on="0"/>
        <pt x="484" y="662" on="1"/>
        <pt x="501" y="598" on="0"/>
        <pt x="528" y="466" on="0"/>
        <pt x="557" y="336" on="0"/>
        <pt x="594" y="208" on="0"/>
        <pt x="622" y="147" on="1"/>
        <pt x="651" y="185" on="0"/>
        <pt x="695" y="268" on="0"/>
        <pt x="709" y="315" on="1"/>
        <pt x="733" y="393" on="0"/>
        <pt x="750" y="554" on="0"/>
        <pt x="758" y="635" on="1"/>
        <pt x="760" y="651" on="0"/>
        <pt x="781" y="675" on="0"/>
        <pt x="798" y="675" on="1"/>
        <pt x="813" y="675" on="0"/>
        <pt x="840" y="652" on="0"/>
        <pt x="838" y="635" on="1"/>
        <pt x="829" y="546" on="0"/>
        <pt x="811" y="371" on="0"/>
        <pt x="784" y="286" on="1"/>
        <pt x="761" y="217" on="0"/>
        <pt x="690" y="101" on="0"/>
        <pt x="642" y="47" on="1"/>
        <pt x="629" y="33" on="0"/>
        <pt x="588" y="38" on="0"/>
        <pt x="579" y="55" on="1"/>
        <pt x="552" y="103" on="0"/>
        <pt x="512" y="205" on="0"/>
        <pt x="482" y="309" on="0"/>
        <pt x="458" y="416" on="0"/>
        <pt x="447" y="469" on="1"/>
        <pt x="421" y="400" on="0"/>
        <pt x="388" y="333" on="1"/>
        <pt x="349" y="253" on="0"/>
        <pt x="257" y="102" on="0"/>
      </contour>
    </TTGlyph>
    <TTGlyph name="X" xMin="17" yMin="-1" xMax="513" yMax="776">
      <contour>
        <pt x="216" y="326" on="1"/>
        <pt x="168" y="413" on="0"/>
        <pt x="75" y="584" on="0"/>
        <pt x="26" y="670" on="1"/>
        <pt x="17" y="686" on="0"/>
        <pt x="29" y="715" on="0"/>
        <pt x="54" y="730" on="0"/>
        <pt x="85" y="726" on="0"/>
        <pt x="95" y="710" on="1"/>
        <pt x="139" y="633" on="0"/>
        <pt x="222" y="480" on="0"/>
        <pt x="264" y="403" on="1"/>
        <pt x="315" y="485" on="0"/>
        <pt x="400" y="655" on="0"/>
        <pt x="431" y="746" on="1"/>
        <pt x="437" y="764" on="0"/>
        <pt x="467" y="776" on="0"/>
        <pt x="496" y="768" on="0"/>
        <pt x="513" y="743" on="0"/>
        <pt x="507" y="725" on="1"/>
        <pt x="472" y="619" on="0"/>
        <pt x="373" y="424" on="0"/>
        <pt x="313" y="330" on="1"/>
        <pt x="346" y="256" on="0"/>
        <pt x="421" y="126" on="0"/>
        <pt x="463" y="61" on="1"/>
        <pt x="473" y="45" on="0"/>
        <pt x="462" y="16" on="0"/>
        <pt x="436" y="1" on="0"/>
        <pt x="404" y="5" on="0"/>
        <pt x="394" y="21" on="1"/>
        <pt x="358" y="77" on="0"/>
        <pt x="291" y="190" on="0"/>
        <pt x="259" y="248" on="1"/>
        <pt x="205" y="173" on="1"/>
        <pt x="194" y="159" on="0"/>
        <pt x="170" y="126" on="0"/>
        <pt x="149" y="92" on="0"/>
        <pt x="136" y="56" on="0"/>
        <pt x="136" y="38" on="1"/>
        <pt x="136" y="18" on="0"/>
        <pt x="112" y="-1" on="0"/>
        <pt x="82" y="-1" on="0"/>
        <pt x="56" y="18" on="0"/>
        <pt x="56" y="38" on="1"/>
        <pt x="56" y="83" on="0"/>
        <pt x="99" y="164" on="0"/>
        <pt x="125" y="199" on="1"/>
        <pt x="148" y="231" on="0"/>
        <pt x="194" y="294" on="0"/>
      </contour>
    </TTGlyph>
    <TTGlyph name="Y" xMin="-73" yMin="-16" xMax="500" yMax="784">
      <contour>
        <pt x="-52" y="670" on="1"/>
        <pt x="-69" y="679" on="0"/>
        <pt x="-73" y="710" on="0"/>
        <pt x="-58" y="736" on="0"/>
        <pt x="-29" y="748" on="0"/>
        <pt x="-12" y="739" on="1"/>
        <pt x="41" y="711" on="0"/>
        <pt x="111" y="626" on="0"/>
        <pt x="134" y="572" on="1"/>
        <pt x="149" y="537" on="0"/>
        <pt x="178" y="469" on="0"/>
        <pt x="201" y="440" on="1"/>
        <pt x="238" y="472" on="0"/>
        <pt x="298" y="550" on="0"/>
        <pt x="350" y="635" on="0"/>
        <pt x="397" y="723" on="0"/>
        <pt x="421" y="764" on="1"/>
        <pt x="431" y="780" on="0"/>
        <pt x="462" y="784" on="0"/>
        <pt x="488" y="769" on="0"/>
        <pt x="500" y="740" on="0"/>
        <pt x="490" y="723" on="1"/>
        <pt x="464" y="679" on="0"/>
        <pt x="413" y="588" on="0"/>
        <pt x="358" y="500" on="0"/>
        <pt x="295" y="419" on="0"/>
        <pt x="257" y="384" on="1"/>
        <pt x="253" y="293" on="0"/>
        <pt x="250" y="114" on="0"/>
        <pt x="257" y="23" on="1"/>
        <pt x="258" y="7" on="0"/>
        <pt x="232" y="-16" on="0"/>
        <pt x="217" y="-16" on="1"/>
        <pt x="200" y="-16" on="0"/>
        <pt x="178" y="7" on="0"/>
        <pt x="177" y="23" on="1"/>
        <pt x="171" y="105" on="0"/>
        <pt x="172" y="267" on="0"/>
        <pt x="175" y="349" on="1"/>
        <pt x="166" y="355" on="0"/>
        <pt x="160" y="364" on="1"/>
        <pt x="126" y="401" on="0"/>
        <pt x="86" y="483" on="0"/>
        <pt x="67" y="528" on="1"/>
        <pt x="48" y="573" on="0"/>
        <pt x="-7" y="646" on="0"/>
      </contour>
    </TTGlyph>
    <TTGlyph name="Yacute" xMin="-73" yMin="-16" xMax="500" yMax="948">
      <component glyphName="Y" x="0" y="0" flags="0x204"/>
      <component glyphName="acute" x="-9" y="195" flags="0x4"/>
    </TTGlyph>
    <TTGlyph name="Ydieresis" xMin="-73" yMin="-16" xMax="500" yMax="869">
      <component glyphName="Y" x="0" y="0" flags="0x204"/>
      <component glyphName="dieresis" x="-71" y="143" flags="0x4"/>
    </TTGlyph>
    <TTGlyph name="Z" xMin="23" yMin="16" xMax="527" yMax="731">
      <contour>
        <pt x="473" y="190" on="1"/>
        <pt x="488" y="195" on="0"/>
        <pt x="517" y="177" on="0"/>
        <pt x="522" y="162" on="1"/>
        <pt x="527" y="145" on="0"/>
        <pt x="509" y="118" on="0"/>
        <pt x="494" y="113" on="1"/>
        <pt x="439" y="93" on="0"/>
        <pt x="333" y="48" on="0"/>
        <pt x="276" y="33" on="1"/>
        <pt x="248" y="25" on="0"/>
        <pt x="190" y="16" on="0"/>
        <pt x="133" y="16" on="0"/>
        <pt x="77" y="30" on="0"/>
        <pt x="51" y="45" on="1"/>
        <pt x="36" y="53" on="0"/>
        <pt x="29" y="85" on="0"/>
        <pt x="36" y="99" on="1"/>
        <pt x="75" y="180" on="0"/>
        <pt x="176" y="323" on="0"/>
        <pt x="234" y="391" on="1"/>
        <pt x="281" y="446" on="0"/>
        <pt x="373" y="554" on="0"/>
        <pt x="415" y="614" on="1"/>
        <pt x="376" y="631" on="0"/>
        <pt x="290" y="648" on="0"/>
        <pt x="203" y="651" on="0"/>
        <pt x="116" y="643" on="0"/>
        <pt x="76" y="635" on="1"/>
        <pt x="60" y="632" on="0"/>
        <pt x="32" y="646" on="0"/>
        <pt x="27" y="663" on="1"/>
        <pt x="23" y="678" on="0"/>
        <pt x="38" y="709" on="0"/>
        <pt x="55" y="712" on="1"/>
        <pt x="108" y="722" on="0"/>
        <pt x="222" y="731" on="0"/>
        <pt x="336" y="722" on="0"/>
        <pt x="445" y="691" on="0"/>
        <pt x="493" y="663" on="1"/>
        <pt x="507" y="655" on="0"/>
        <pt x="516" y="623" on="0"/>
        <pt x="508" y="609" on="1"/>
        <pt x="461" y="537" on="0"/>
        <pt x="353" y="409" on="0"/>
        <pt x="298" y="344" on="1"/>
        <pt x="249" y="286" on="0"/>
        <pt x="162" y="166" on="0"/>
        <pt x="126" y="100" on="1"/>
        <pt x="162" y="91" on="0"/>
        <pt x="238" y="104" on="0"/>
        <pt x="273" y="115" on="1"/>
        <pt x="324" y="130" on="0"/>
        <pt x="422" y="171" on="0"/>
      </contour>
    </TTGlyph>
    <TTGlyph name="Zcaron" xMin="23" yMin="16" xMax="527" yMax="980">
      <component glyphName="Z" x="0" y="0" flags="0x204"/>
      <component glyphName="caron" x="20" y="215" flags="0x4"/>
    </TTGlyph>
    <TTGlyph name="a" xMin="29" yMin="-6" xMax="447" yMax="439">
      <contour>
        <pt x="117" y="27" on="1"/>
        <pt x="83" y="42" on="0"/>
        <pt x="44" y="95" on="0"/>
        <pt x="29" y="159" on="0"/>
        <pt x="35" y="228" on="0"/>
        <pt x="46" y="260" on="1"/>
        <pt x="55" y="285" on="0"/>
        <pt x="78" y="339" on="0"/>
        <pt x="110" y="385" on="0"/>
        <pt x="154" y="418" on="0"/>
        <pt x="184" y="423" on="1"/>
        <pt x="215" y="428" on="0"/>
        <pt x="278" y="425" on="0"/>
        <pt x="309" y="420" on="1"/>
        <pt x="323" y="418" on="0"/>
        <pt x="349" y="409" on="0"/>
        <pt x="362" y="404" on="1"/>
        <pt x="363" y="419" on="0"/>
        <pt x="388" y="439" on="0"/>
        <pt x="402" y="439" on="1"/>
        <pt x="419" y="439" on="0"/>
        <pt x="440" y="416" on="0"/>
        <pt x="442" y="400" on="1"/>
        <pt x="447" y="354" on="0"/>
        <pt x="446" y="262" on="0"/>
        <pt x="441" y="170" on="0"/>
        <pt x="438" y="78" on="0"/>
        <pt x="440" y="32" on="1"/>
        <pt x="441" y="13" on="0"/>
        <pt x="416" y="-6" on="0"/>
        <pt x="386" y="-6" on="0"/>
        <pt x="361" y="13" on="0"/>
        <pt x="360" y="32" on="1"/>
        <pt x="303" y="8" on="0"/>
        <pt x="175" y="1" on="0"/>
      </contour>
      <contour>
        <pt x="124" y="244" on="1"/>
        <pt x="118" y="226" on="0"/>
        <pt x="108" y="180" on="0"/>
        <pt x="112" y="138" on="0"/>
        <pt x="134" y="103" on="0"/>
        <pt x="159" y="96" on="1"/>
        <pt x="210" y="80" on="0"/>
        <pt x="313" y="94" on="0"/>
        <pt x="358" y="123" on="1"/>
        <pt x="362" y="172" on="0"/>
        <pt x="367" y="264" on="0"/>
        <pt x="366" y="311" on="1"/>
        <pt x="349" y="322" on="0"/>
        <pt x="314" y="339" on="0"/>
        <pt x="293" y="342" on="1"/>
        <pt x="272" y="345" on="0"/>
        <pt x="225" y="348" on="0"/>
        <pt x="203" y="346" on="1"/>
        <pt x="201" y="346" on="0"/>
        <pt x="184" y="341" on="0"/>
        <pt x="183" y="340" on="1"/>
        <pt x="173" y="335" on="0"/>
        <pt x="165" y="324" on="1"/>
        <pt x="152" y="306" on="0"/>
        <pt x="132" y="265" on="0"/>
      </contour>
    </TTGlyph>
    <TTGlyph name="aacute" xMin="29" yMin="-6" xMax="447" yMax="672">
      <component glyphName="a" x="0" y="0" flags="0x204"/>
      <component glyphName="acute" x="31" y="-81" flags="0x4"/>
    </TTGlyph>
    <TTGlyph name="acircumflex" xMin="29" yMin="-6" xMax="447" yMax="677">
      <component glyphName="a" x="0" y="0" flags="0x204"/>
      <component glyphName="circumflex" x="-19" y="-81" flags="0x4"/>
    </TTGlyph>
    <TTGlyph name="acute" xMin="169" yMin="579" xMax="394" yMax="753">
      <contour>
        <pt x="325" y="740" on="1"/>
        <pt x="338" y="750" on="0"/>
        <pt x="368" y="753" on="0"/>
        <pt x="381" y="740" on="1"/>
        <pt x="392" y="729" on="0"/>
        <pt x="394" y="694" on="0"/>
        <pt x="381" y="683" on="1"/>
        <pt x="309" y="628" on="0"/>
        <pt x="231" y="588" on="1"/>
        <pt x="214" y="579" on="0"/>
        <pt x="184" y="592" on="0"/>
        <pt x="169" y="618" on="0"/>
        <pt x="173" y="648" on="0"/>
        <pt x="190" y="657" on="1"/>
        <pt x="226" y="675" on="0"/>
        <pt x="293" y="715" on="0"/>
      </contour>
    </TTGlyph>
    <TTGlyph name="adieresis" xMin="29" yMin="-6" xMax="447" yMax="614">
      <component glyphName="a" x="0" y="0" flags="0x204"/>
      <component glyphName="dieresis" x="-30" y="-112" flags="0x4"/>
    </TTGlyph>
    <TTGlyph name="ae" xMin="29" yMin="-6" xMax="782" yMax="477">
      <contour>
        <pt x="771" y="109" on="1"/>
        <pt x="742" y="70" on="0"/>
        <pt x="663" y="15" on="0"/>
        <pt x="612" y="13" on="1"/>
        <pt x="571" y="11" on="0"/>
        <pt x="495" y="44" on="0"/>
        <pt x="466" y="72" on="1"/>
        <pt x="450" y="88" on="0"/>
        <pt x="439" y="103" on="1"/>
        <pt x="439" y="85" on="0"/>
        <pt x="439" y="50" on="0"/>
        <pt x="440" y="32" on="1"/>
        <pt x="441" y="13" on="0"/>
        <pt x="416" y="-6" on="0"/>
        <pt x="386" y="-6" on="0"/>
        <pt x="361" y="13" on="0"/>
        <pt x="360" y="32" on="1"/>
        <pt x="303" y="8" on="0"/>
        <pt x="175" y="1" on="0"/>
        <pt x="117" y="27" on="1"/>
        <pt x="83" y="42" on="0"/>
        <pt x="44" y="95" on="0"/>
        <pt x="29" y="159" on="0"/>
        <pt x="35" y="228" on="0"/>
        <pt x="46" y="260" on="1"/>
        <pt x="55" y="285" on="0"/>
        <pt x="78" y="339" on="0"/>
        <pt x="110" y="385" on="0"/>
        <pt x="154" y="418" on="0"/>
        <pt x="184" y="423" on="1"/>
        <pt x="215" y="428" on="0"/>
        <pt x="278" y="425" on="0"/>
        <pt x="309" y="420" on="1"/>
        <pt x="323" y="418" on="0"/>
        <pt x="349" y="409" on="0"/>
        <pt x="362" y="404" on="1"/>
        <pt x="363" y="419" on="0"/>
        <pt x="388" y="439" on="0"/>
        <pt x="402" y="439" on="1"/>
        <pt x="419" y="439" on="0"/>
        <pt x="439" y="418" on="0"/>
        <pt x="441" y="403" on="1"/>
        <pt x="461" y="426" on="0"/>
        <pt x="511" y="460" on="0"/>
        <pt x="568" y="477" on="0"/>
        <pt x="628" y="477" on="0"/>
        <pt x="658" y="465" on="1"/>
        <pt x="688" y="453" on="0"/>
        <pt x="738" y="412" on="0"/>
        <pt x="752" y="380" on="1"/>
        <pt x="763" y="356" on="0"/>
        <pt x="767" y="300" on="0"/>
        <pt x="750" y="277" on="1"/>
        <pt x="735" y="256" on="0"/>
        <pt x="692" y="234" on="0"/>
        <pt x="643" y="224" on="0"/>
        <pt x="592" y="224" on="0"/>
        <pt x="569" y="225" on="1"/>
        <pt x="543" y="226" on="0"/>
        <pt x="492" y="232" on="0"/>
        <pt x="466" y="235" on="1"/>
        <pt x="474" y="190" on="0"/>
        <pt x="523" y="120" on="0"/>
        <pt x="563" y="102" on="1"/>
        <pt x="574" y="98" on="0"/>
        <pt x="580" y="96" on="1"/>
        <pt x="583" y="95" on="0"/>
        <pt x="588" y="94" on="0"/>
        <pt x="591" y="94" on="1"/>
        <pt x="599" y="93" on="0"/>
        <pt x="611" y="92" on="0"/>
        <pt x="616" y="93" on="1"/>
        <pt x="627" y="95" on="0"/>
        <pt x="630" y="96" on="1"/>
        <pt x="641" y="99" on="0"/>
        <pt x="658" y="107" on="0"/>
        <pt x="670" y="116" on="1"/>
        <pt x="676" y="121" on="0"/>
        <pt x="696" y="141" on="0"/>
        <pt x="703" y="149" on="1"/>
        <pt x="713" y="163" on="0"/>
        <pt x="742" y="173" on="0"/>
        <pt x="757" y="164" on="1"/>
        <pt x="770" y="156" on="0"/>
        <pt x="782" y="123" on="0"/>
      </contour>
      <contour>
        <pt x="547" y="388" on="1"/>
        <pt x="524" y="377" on="0"/>
        <pt x="488" y="338" on="0"/>
        <pt x="477" y="314" on="1"/>
        <pt x="501" y="311" on="0"/>
        <pt x="549" y="305" on="0"/>
        <pt x="573" y="304" on="1"/>
        <pt x="587" y="304" on="0"/>
        <pt x="612" y="304" on="0"/>
        <pt x="625" y="305" on="1"/>
        <pt x="629" y="305" on="0"/>
        <pt x="636" y="306" on="0"/>
        <pt x="640" y="306" on="1"/>
        <pt x="649" y="308" on="0"/>
        <pt x="658" y="309" on="0"/>
        <pt x="663" y="311" on="1"/>
        <pt x="667" y="312" on="0"/>
        <pt x="673" y="314" on="1"/>
        <pt x="678" y="316" on="0"/>
        <pt x="681" y="318" on="0"/>
        <pt x="683" y="319" on="1"/>
        <pt x="685" y="331" on="1"/>
        <pt x="683" y="335" on="0"/>
        <pt x="682" y="342" on="0"/>
        <pt x="681" y="345" on="1"/>
        <pt x="679" y="348" on="0"/>
        <pt x="672" y="360" on="0"/>
        <pt x="669" y="364" on="1"/>
        <pt x="664" y="371" on="0"/>
        <pt x="646" y="384" on="0"/>
        <pt x="635" y="389" on="1"/>
        <pt x="617" y="397" on="0"/>
        <pt x="566" y="397" on="0"/>
      </contour>
      <contour>
        <pt x="360" y="124" on="1"/>
        <pt x="362" y="172" on="0"/>
        <pt x="367" y="264" on="0"/>
        <pt x="366" y="311" on="1"/>
        <pt x="349" y="322" on="0"/>
        <pt x="314" y="339" on="0"/>
        <pt x="293" y="342" on="1"/>
        <pt x="272" y="345" on="0"/>
        <pt x="225" y="348" on="0"/>
        <pt x="203" y="346" on="1"/>
        <pt x="201" y="346" on="0"/>
        <pt x="184" y="341" on="0"/>
        <pt x="183" y="340" on="1"/>
        <pt x="173" y="335" on="0"/>
        <pt x="165" y="324" on="1"/>
        <pt x="152" y="306" on="0"/>
        <pt x="132" y="265" on="0"/>
        <pt x="124" y="244" on="1"/>
        <pt x="118" y="226" on="0"/>
        <pt x="108" y="180" on="0"/>
        <pt x="112" y="138" on="0"/>
        <pt x="134" y="103" on="0"/>
        <pt x="159" y="96" on="1"/>
        <pt x="210" y="80" on="0"/>
        <pt x="313" y="94" on="0"/>
        <pt x="358" y="123" on="1"/>
      </contour>
    </TTGlyph>
    <TTGlyph name="agrave" xMin="29" yMin="-6" xMax="447" yMax="662">
      <component glyphName="a" x="0" y="0" flags="0x204"/>
      <component glyphName="grave" x="-60" y="-91" flags="0x4"/>
    </TTGlyph>
    <TTGlyph name="ampersand" xMin="18" yMin="-35" xMax="563" yMax="711">
      <contour>
        <pt x="540" y="89" on="1"/>
        <pt x="553" y="80" on="0"/>
        <pt x="563" y="50" on="0"/>
        <pt x="554" y="35" on="1"/>
        <pt x="546" y="21" on="0"/>
        <pt x="513" y="11" on="0"/>
        <pt x="500" y="20" on="1"/>
        <pt x="479" y="35" on="0"/>
        <pt x="441" y="69" on="0"/>
        <pt x="423" y="87" on="1"/>
        <pt x="404" y="65" on="0"/>
        <pt x="375" y="41" on="1"/>
        <pt x="336" y="9" on="0"/>
        <pt x="233" y="-32" on="0"/>
        <pt x="182" y="-34" on="1"/>
        <pt x="153" y="-35" on="0"/>
        <pt x="97" y="-19" on="0"/>
        <pt x="74" y="1" on="1"/>
        <pt x="48" y="22" on="0"/>
        <pt x="23" y="84" on="0"/>
        <pt x="21" y="116" on="1"/>
        <pt x="18" y="152" on="0"/>
        <pt x="34" y="223" on="0"/>
        <pt x="67" y="288" on="0"/>
        <pt x="113" y="344" on="0"/>
        <pt x="140" y="367" on="1"/>
        <pt x="150" y="375" on="0"/>
        <pt x="168" y="391" on="0"/>
        <pt x="177" y="399" on="1"/>
        <pt x="174" y="403" on="0"/>
        <pt x="170" y="411" on="1"/>
        <pt x="150" y="448" on="0"/>
        <pt x="125" y="528" on="0"/>
        <pt x="134" y="570" on="1"/>
        <pt x="142" y="608" on="0"/>
        <pt x="198" y="674" on="0"/>
        <pt x="272" y="711" on="0"/>
        <pt x="353" y="710" on="0"/>
        <pt x="386" y="681" on="1"/>
        <pt x="415" y="655" on="0"/>
        <pt x="439" y="587" on="0"/>
        <pt x="423" y="549" on="1"/>
        <pt x="409" y="516" on="0"/>
        <pt x="362" y="463" on="0"/>
        <pt x="336" y="439" on="1"/>
        <pt x="322" y="426" on="0"/>
        <pt x="295" y="400" on="0"/>
        <pt x="281" y="386" on="1"/>
        <pt x="290" y="375" on="0"/>
        <pt x="308" y="351" on="0"/>
        <pt x="318" y="340" on="1"/>
        <pt x="344" y="308" on="0"/>
        <pt x="395" y="244" on="0"/>
        <pt x="421" y="212" on="1"/>
        <pt x="433" y="232" on="0"/>
        <pt x="455" y="271" on="0"/>
        <pt x="466" y="290" on="1"/>
        <pt x="476" y="306" on="0"/>
        <pt x="507" y="310" on="0"/>
        <pt x="533" y="295" on="0"/>
        <pt x="545" y="266" on="0"/>
        <pt x="535" y="250" on="1"/>
        <pt x="520" y="224" on="0"/>
        <pt x="490" y="174" on="0"/>
        <pt x="473" y="150" on="1"/>
        <pt x="489" y="133" on="0"/>
        <pt x="521" y="103" on="0"/>
      </contour>
      <contour>
        <pt x="227" y="587" on="1"/>
        <pt x="207" y="562" on="0"/>
        <pt x="213" y="502" on="0"/>
        <pt x="226" y="475" on="1"/>
        <pt x="230" y="465" on="0"/>
        <pt x="237" y="455" on="1"/>
        <pt x="260" y="475" on="0"/>
        <pt x="304" y="517" on="0"/>
        <pt x="324" y="540" on="1"/>
        <pt x="333" y="551" on="0"/>
        <pt x="350" y="575" on="0"/>
        <pt x="352" y="588" on="1"/>
        <pt x="355" y="603" on="0"/>
        <pt x="335" y="620" on="1"/>
        <pt x="323" y="631" on="0"/>
        <pt x="292" y="631" on="0"/>
        <pt x="262" y="619" on="0"/>
        <pt x="235" y="597" on="0"/>
      </contour>
      <contour>
        <pt x="352" y="128" on="1"/>
        <pt x="362" y="137" on="0"/>
        <pt x="371" y="147" on="1"/>
        <pt x="345" y="179" on="0"/>
        <pt x="295" y="243" on="0"/>
        <pt x="269" y="274" on="1"/>
        <pt x="244" y="304" on="0"/>
        <pt x="222" y="333" on="1"/>
        <pt x="202" y="317" on="0"/>
        <pt x="165" y="285" on="0"/>
        <pt x="150" y="265" on="1"/>
        <pt x="130" y="239" on="0"/>
        <pt x="101" y="173" on="0"/>
        <pt x="100" y="139" on="1"/>
        <pt x="100" y="123" on="0"/>
        <pt x="105" y="91" on="0"/>
        <pt x="112" y="78" on="1"/>
        <pt x="118" y="67" on="0"/>
        <pt x="127" y="58" on="0"/>
        <pt x="138" y="53" on="1"/>
        <pt x="152" y="46" on="0"/>
        <pt x="178" y="46" on="1"/>
        <pt x="192" y="46" on="0"/>
        <pt x="210" y="49" on="0"/>
        <pt x="224" y="53" on="1"/>
        <pt x="249" y="60" on="0"/>
        <pt x="290" y="77" on="0"/>
        <pt x="312" y="93" on="1"/>
        <pt x="326" y="104" on="1"/>
        <pt x="341" y="116" on="0"/>
      </contour>
    </TTGlyph>
    <TTGlyph name="aring" xMin="29" yMin="-6" xMax="447" yMax="684">
      <contour>
        <pt x="124" y="244" on="1"/>
        <pt x="118" y="226" on="0"/>
        <pt x="108" y="180" on="0"/>
        <pt x="112" y="138" on="0"/>
        <pt x="134" y="103" on="0"/>
        <pt x="159" y="96" on="1"/>
        <pt x="210" y="80" on="0"/>
        <pt x="311" y="97" on="0"/>
        <pt x="358" y="123" on="1"/>
        <pt x="362" y="172" on="0"/>
        <pt x="367" y="264" on="0"/>
        <pt x="366" y="311" on="1"/>
        <pt x="349" y="322" on="0"/>
        <pt x="314" y="339" on="0"/>
        <pt x="293" y="342" on="1"/>
        <pt x="272" y="345" on="0"/>
        <pt x="225" y="348" on="0"/>
        <pt x="203" y="346" on="1"/>
        <pt x="201" y="346" on="0"/>
        <pt x="184" y="341" on="0"/>
        <pt x="183" y="340" on="1"/>
        <pt x="173" y="335" on="0"/>
        <pt x="165" y="324" on="1"/>
        <pt x="152" y="306" on="0"/>
        <pt x="132" y="265" on="0"/>
      </contour>
      <contour>
        <pt x="194" y="672" on="1"/>
        <pt x="220" y="684" on="0"/>
        <pt x="274" y="682" on="0"/>
        <pt x="320" y="659" on="0"/>
        <pt x="355" y="617" on="0"/>
        <pt x="363" y="590" on="1"/>
        <pt x="369" y="569" on="0"/>
        <pt x="369" y="519" on="0"/>
        <pt x="354" y="473" on="0"/>
        <pt x="325" y="435" on="0"/>
        <pt x="303" y="425" on="1"/>
        <pt x="323" y="418" on="0"/>
        <pt x="349" y="409" on="0"/>
        <pt x="362" y="404" on="1"/>
        <pt x="363" y="419" on="0"/>
        <pt x="388" y="439" on="0"/>
        <pt x="402" y="439" on="1"/>
        <pt x="419" y="439" on="0"/>
        <pt x="440" y="416" on="0"/>
        <pt x="442" y="400" on="1"/>
        <pt x="447" y="354" on="0"/>
        <pt x="446" y="262" on="0"/>
        <pt x="441" y="170" on="0"/>
        <pt x="438" y="78" on="0"/>
        <pt x="440" y="32" on="1"/>
        <pt x="441" y="13" on="0"/>
        <pt x="416" y="-6" on="0"/>
        <pt x="386" y="-6" on="0"/>
        <pt x="361" y="13" on="0"/>
        <pt x="360" y="32" on="1"/>
        <pt x="303" y="8" on="0"/>
        <pt x="175" y="1" on="0"/>
        <pt x="117" y="27" on="1"/>
        <pt x="83" y="42" on="0"/>
        <pt x="44" y="95" on="0"/>
        <pt x="29" y="159" on="0"/>
        <pt x="35" y="228" on="0"/>
        <pt x="46" y="260" on="1"/>
        <pt x="55" y="285" on="0"/>
        <pt x="78" y="339" on="0"/>
        <pt x="110" y="386" on="0"/>
        <pt x="154" y="419" on="0"/>
        <pt x="184" y="423" on="1"/>
        <pt x="162" y="435" on="0"/>
        <pt x="120" y="477" on="0"/>
        <pt x="114" y="509" on="1"/>
        <pt x="113" y="517" on="0"/>
        <pt x="113" y="520" on="1"/>
        <pt x="110" y="540" on="0"/>
        <pt x="121" y="586" on="0"/>
        <pt x="144" y="629" on="0"/>
        <pt x="176" y="663" on="0"/>
      </contour>
      <contour>
        <pt x="290" y="541" on="1"/>
        <pt x="290" y="554" on="1"/>
        <pt x="289" y="555" on="0"/>
        <pt x="288" y="564" on="0"/>
        <pt x="288" y="565" on="1"/>
        <pt x="287" y="567" on="0"/>
        <pt x="286" y="573" on="0"/>
        <pt x="285" y="575" on="1"/>
        <pt x="285" y="574" on="0"/>
        <pt x="280" y="583" on="0"/>
        <pt x="279" y="584" on="1"/>
        <pt x="272" y="592" on="0"/>
        <pt x="260" y="601" on="0"/>
        <pt x="255" y="603" on="1"/>
        <pt x="236" y="608" on="0"/>
        <pt x="224" y="596" on="1"/>
        <pt x="215" y="588" on="0"/>
        <pt x="202" y="566" on="0"/>
        <pt x="198" y="557" on="1"/>
        <pt x="196" y="552" on="0"/>
        <pt x="194" y="541" on="0"/>
        <pt x="193" y="536" on="1"/>
        <pt x="192" y="526" on="1"/>
        <pt x="196" y="511" on="0"/>
        <pt x="212" y="501" on="0"/>
        <pt x="228" y="497" on="1"/>
        <pt x="231" y="496" on="0"/>
        <pt x="236" y="495" on="0"/>
        <pt x="239" y="494" on="1"/>
        <pt x="247" y="493" on="0"/>
        <pt x="258" y="494" on="0"/>
        <pt x="254" y="493" on="1"/>
        <pt x="262" y="495" on="0"/>
        <pt x="265" y="495" on="0"/>
        <pt x="272" y="500" on="1"/>
        <pt x="277" y="506" on="0"/>
        <pt x="282" y="512" on="0"/>
        <pt x="282" y="513" on="1"/>
        <pt x="287" y="524" on="0"/>
        <pt x="289" y="532" on="1"/>
      </contour>
    </TTGlyph>
    <TTGlyph name="asciicircum" xMin="19" yMin="331" xMax="381" yMax="752">
      <contour>
        <pt x="326" y="574" on="1"/>
        <pt x="332" y="552" on="0"/>
        <pt x="338" y="504" on="0"/>
        <pt x="346" y="457" on="0"/>
        <pt x="359" y="412" on="0"/>
        <pt x="371" y="392" on="1"/>
        <pt x="381" y="375" on="0"/>
        <pt x="370" y="346" on="0"/>
        <pt x="344" y="331" on="0"/>
        <pt x="312" y="335" on="0"/>
        <pt x="302" y="352" on="1"/>
        <pt x="289" y="373" on="0"/>
        <pt x="274" y="419" on="0"/>
        <pt x="265" y="466" on="0"/>
        <pt x="258" y="514" on="0"/>
        <pt x="252" y="537" on="1"/>
        <pt x="246" y="564" on="0"/>
        <pt x="228" y="620" on="0"/>
        <pt x="214" y="644" on="1"/>
        <pt x="201" y="618" on="0"/>
        <pt x="184" y="561" on="0"/>
        <pt x="171" y="535" on="1"/>
        <pt x="163" y="518" on="0"/>
        <pt x="140" y="483" on="0"/>
        <pt x="118" y="447" on="0"/>
        <pt x="102" y="409" on="0"/>
        <pt x="100" y="389" on="1"/>
        <pt x="98" y="372" on="0"/>
        <pt x="78" y="349" on="0"/>
        <pt x="60" y="349" on="1"/>
        <pt x="45" y="349" on="0"/>
        <pt x="19" y="372" on="0"/>
        <pt x="21" y="389" on="1"/>
        <pt x="23" y="416" on="0"/>
        <pt x="41" y="463" on="0"/>
        <pt x="65" y="508" on="0"/>
        <pt x="92" y="552" on="0"/>
        <pt x="103" y="576" on="1"/>
        <pt x="112" y="597" on="0"/>
        <pt x="128" y="640" on="0"/>
        <pt x="144" y="681" on="0"/>
        <pt x="166" y="721" on="0"/>
        <pt x="181" y="739" on="1"/>
        <pt x="192" y="752" on="0"/>
        <pt x="226" y="749" on="0"/>
        <pt x="238" y="739" on="1"/>
        <pt x="274" y="708" on="0"/>
        <pt x="314" y="619" on="0"/>
      </contour>
    </TTGlyph>
    <TTGlyph name="asciitilde" xMin="19" yMin="190" xMax="522" yMax="360">
      <contour>
        <pt x="453" y="341" on="1"/>
        <pt x="466" y="355" on="0"/>
        <pt x="497" y="351" on="0"/>
        <pt x="518" y="330" on="0"/>
        <pt x="522" y="299" on="0"/>
        <pt x="509" y="285" on="1"/>
        <pt x="487" y="262" on="0"/>
        <pt x="439" y="221" on="0"/>
        <pt x="385" y="195" on="0"/>
        <pt x="325" y="190" on="0"/>
        <pt x="292" y="204" on="1"/>
        <pt x="262" y="217" on="0"/>
        <pt x="210" y="259" on="0"/>
        <pt x="179" y="270" on="1"/>
        <pt x="151" y="280" on="0"/>
        <pt x="104" y="267" on="0"/>
        <pt x="79" y="251" on="1"/>
        <pt x="63" y="240" on="0"/>
        <pt x="34" y="252" on="0"/>
        <pt x="19" y="277" on="0"/>
        <pt x="23" y="309" on="0"/>
        <pt x="39" y="320" on="1"/>
        <pt x="67" y="337" on="0"/>
        <pt x="130" y="360" on="0"/>
        <pt x="164" y="355" on="1"/>
        <pt x="196" y="351" on="0"/>
        <pt x="254" y="322" on="0"/>
        <pt x="280" y="302" on="1"/>
        <pt x="302" y="286" on="0"/>
        <pt x="349" y="267" on="0"/>
        <pt x="374" y="276" on="1"/>
        <pt x="397" y="285" on="0"/>
        <pt x="436" y="323" on="0"/>
      </contour>
    </TTGlyph>
    <TTGlyph name="asterisk" xMin="18" yMin="352" xMax="446" yMax="751">
      <contour>
        <pt x="407" y="597" on="1"/>
        <pt x="426" y="597" on="0"/>
        <pt x="446" y="572" on="0"/>
        <pt x="446" y="542" on="0"/>
        <pt x="426" y="517" on="0"/>
        <pt x="407" y="517" on="1"/>
        <pt x="388" y="518" on="0"/>
        <pt x="350" y="518" on="0"/>
        <pt x="331" y="518" on="1"/>
        <pt x="347" y="489" on="0"/>
        <pt x="369" y="427" on="0"/>
        <pt x="374" y="392" on="1"/>
        <pt x="376" y="376" on="0"/>
        <pt x="348" y="352" on="0"/>
        <pt x="334" y="352" on="1"/>
        <pt x="316" y="352" on="0"/>
        <pt x="296" y="376" on="0"/>
        <pt x="294" y="392" on="1"/>
        <pt x="291" y="418" on="0"/>
        <pt x="271" y="466" on="0"/>
        <pt x="257" y="489" on="1"/>
        <pt x="237" y="453" on="0"/>
        <pt x="184" y="392" on="0"/>
        <pt x="148" y="371" on="1"/>
        <pt x="131" y="361" on="0"/>
        <pt x="102" y="372" on="0"/>
        <pt x="87" y="398" on="0"/>
        <pt x="91" y="429" on="0"/>
        <pt x="108" y="439" on="1"/>
        <pt x="131" y="453" on="0"/>
        <pt x="163" y="489" on="0"/>
        <pt x="177" y="510" on="1"/>
        <pt x="150" y="508" on="0"/>
        <pt x="97" y="499" on="0"/>
        <pt x="70" y="494" on="1"/>
        <pt x="51" y="490" on="0"/>
        <pt x="26" y="510" on="0"/>
        <pt x="18" y="538" on="0"/>
        <pt x="30" y="566" on="0"/>
        <pt x="49" y="570" on="1"/>
        <pt x="81" y="578" on="0"/>
        <pt x="146" y="587" on="0"/>
        <pt x="179" y="590" on="1"/>
        <pt x="159" y="613" on="0"/>
        <pt x="117" y="657" on="0"/>
        <pt x="97" y="680" on="1"/>
        <pt x="84" y="695" on="0"/>
        <pt x="89" y="727" on="0"/>
        <pt x="111" y="748" on="0"/>
        <pt x="141" y="751" on="0"/>
        <pt x="154" y="737" on="1"/>
        <pt x="175" y="713" on="0"/>
        <pt x="220" y="665" on="0"/>
        <pt x="242" y="640" on="1"/>
        <pt x="255" y="665" on="0"/>
        <pt x="287" y="711" on="0"/>
        <pt x="307" y="731" on="1"/>
        <pt x="321" y="744" on="0"/>
        <pt x="352" y="740" on="0"/>
        <pt x="373" y="719" on="0"/>
        <pt x="377" y="688" on="0"/>
        <pt x="363" y="674" on="1"/>
        <pt x="346" y="657" on="0"/>
        <pt x="320" y="618" on="0"/>
        <pt x="309" y="597" on="1"/>
      </contour>
    </TTGlyph>
    <TTGlyph name="at" xMin="13" yMin="-10" xMax="671" yMax="756">
      <contour>
        <pt x="391" y="-8" on="1"/>
        <pt x="356" y="-10" on="0"/>
        <pt x="284" y="-9" on="0"/>
        <pt x="249" y="-2" on="1"/>
        <pt x="176" y="13" on="0"/>
        <pt x="66" y="111" on="0"/>
        <pt x="43" y="182" on="1"/>
        <pt x="13" y="273" on="0"/>
        <pt x="18" y="459" on="0"/>
        <pt x="60" y="546" on="1"/>
        <pt x="77" y="581" on="0"/>
        <pt x="119" y="653" on="0"/>
        <pt x="148" y="679" on="1"/>
        <pt x="212" y="737" on="0"/>
        <pt x="297" y="749" on="1"/>
        <pt x="320" y="752" on="0"/>
        <pt x="363" y="756" on="0"/>
        <pt x="385" y="754" on="1"/>
        <pt x="402" y="753" on="0"/>
        <pt x="443" y="752" on="0"/>
        <pt x="460" y="746" on="1"/>
        <pt x="476" y="741" on="0"/>
        <pt x="503" y="724" on="0"/>
        <pt x="517" y="714" on="1"/>
        <pt x="528" y="707" on="0"/>
        <pt x="549" y="696" on="0"/>
        <pt x="559" y="689" on="1"/>
        <pt x="590" y="667" on="0"/>
        <pt x="627" y="604" on="0"/>
        <pt x="639" y="569" on="1"/>
        <pt x="653" y="529" on="0"/>
        <pt x="671" y="443" on="0"/>
        <pt x="671" y="399" on="1"/>
        <pt x="669" y="322" on="0"/>
        <pt x="641" y="250" on="1"/>
        <pt x="630" y="219" on="0"/>
        <pt x="599" y="157" on="0"/>
        <pt x="573" y="136" on="1"/>
        <pt x="541" y="110" on="0"/>
        <pt x="469" y="115" on="0"/>
        <pt x="436" y="136" on="1"/>
        <pt x="397" y="161" on="0"/>
        <pt x="381" y="197" on="1"/>
        <pt x="339" y="190" on="0"/>
        <pt x="254" y="205" on="0"/>
        <pt x="223" y="239" on="1"/>
        <pt x="191" y="274" on="0"/>
        <pt x="172" y="366" on="0"/>
        <pt x="178" y="413" on="1"/>
        <pt x="181" y="434" on="0"/>
        <pt x="191" y="475" on="0"/>
        <pt x="211" y="511" on="0"/>
        <pt x="241" y="538" on="0"/>
        <pt x="263" y="545" on="1"/>
        <pt x="295" y="556" on="0"/>
        <pt x="364" y="551" on="0"/>
        <pt x="397" y="546" on="1"/>
        <pt x="401" y="570" on="0"/>
        <pt x="433" y="586" on="0"/>
        <pt x="447" y="582" on="1"/>
        <pt x="464" y="577" on="0"/>
        <pt x="478" y="549" on="0"/>
        <pt x="475" y="533" on="1"/>
        <pt x="467" y="492" on="0"/>
        <pt x="462" y="413" on="0"/>
        <pt x="460" y="371" on="1"/>
        <pt x="458" y="338" on="0"/>
        <pt x="448" y="281" on="0"/>
        <pt x="450" y="249" on="1"/>
        <pt x="450" y="242" on="0"/>
        <pt x="454" y="225" on="0"/>
        <pt x="458" y="221" on="1"/>
        <pt x="477" y="200" on="0"/>
        <pt x="502" y="193" on="1"/>
        <pt x="511" y="191" on="0"/>
        <pt x="513" y="192" on="1"/>
        <pt x="519" y="194" on="0"/>
        <pt x="523" y="198" on="1"/>
        <pt x="538" y="213" on="0"/>
        <pt x="550" y="237" on="1"/>
        <pt x="564" y="264" on="0"/>
        <pt x="584" y="326" on="0"/>
        <pt x="589" y="356" on="1"/>
        <pt x="594" y="395" on="0"/>
        <pt x="585" y="475" on="0"/>
        <pt x="574" y="513" on="1"/>
        <pt x="566" y="539" on="0"/>
        <pt x="546" y="594" on="0"/>
        <pt x="526" y="613" on="1"/>
        <pt x="518" y="621" on="0"/>
        <pt x="498" y="631" on="0"/>
        <pt x="489" y="637" on="1"/>
        <pt x="478" y="645" on="0"/>
        <pt x="456" y="661" on="0"/>
        <pt x="444" y="667" on="1"/>
        <pt x="434" y="670" on="0"/>
        <pt x="422" y="672" on="0"/>
        <pt x="424" y="672" on="1"/>
        <pt x="385" y="675" on="1"/>
        <pt x="367" y="675" on="0"/>
        <pt x="330" y="675" on="0"/>
        <pt x="312" y="671" on="1"/>
        <pt x="277" y="665" on="0"/>
        <pt x="209" y="634" on="0"/>
        <pt x="187" y="604" on="1"/>
        <pt x="136" y="535" on="0"/>
        <pt x="84" y="373" on="0"/>
        <pt x="99" y="286" on="1"/>
        <pt x="106" y="250" on="0"/>
        <pt x="126" y="180" on="0"/>
        <pt x="148" y="150" on="1"/>
        <pt x="165" y="124" on="0"/>
        <pt x="217" y="89" on="0"/>
        <pt x="246" y="81" on="1"/>
        <pt x="277" y="73" on="0"/>
        <pt x="342" y="69" on="0"/>
        <pt x="374" y="71" on="1"/>
        <pt x="403" y="72" on="0"/>
        <pt x="464" y="81" on="0"/>
        <pt x="487" y="97" on="1"/>
        <pt x="500" y="107" on="0"/>
        <pt x="533" y="96" on="0"/>
        <pt x="541" y="83" on="1"/>
        <pt x="550" y="68" on="0"/>
        <pt x="541" y="38" on="0"/>
        <pt x="527" y="29" on="1"/>
        <pt x="498" y="8" on="0"/>
        <pt x="426" y="-6" on="0"/>
      </contour>
      <contour>
        <pt x="381" y="378" on="1"/>
        <pt x="383" y="401" on="0"/>
        <pt x="385" y="445" on="0"/>
        <pt x="387" y="467" on="1"/>
        <pt x="375" y="469" on="0"/>
        <pt x="352" y="471" on="0"/>
        <pt x="340" y="472" on="1"/>
        <pt x="332" y="473" on="0"/>
        <pt x="316" y="473" on="0"/>
        <pt x="308" y="473" on="1"/>
        <pt x="297" y="471" on="0"/>
        <pt x="293" y="471" on="0"/>
        <pt x="291" y="470" on="1"/>
        <pt x="282" y="467" on="0"/>
        <pt x="278" y="465" on="1"/>
        <pt x="271" y="458" on="0"/>
        <pt x="271" y="457" on="1"/>
        <pt x="266" y="449" on="0"/>
        <pt x="264" y="446" on="0"/>
        <pt x="262" y="435" on="1"/>
        <pt x="260" y="428" on="0"/>
        <pt x="258" y="414" on="0"/>
        <pt x="257" y="408" on="1"/>
        <pt x="254" y="375" on="0"/>
        <pt x="260" y="314" on="0"/>
        <pt x="280" y="295" on="1"/>
        <pt x="286" y="289" on="0"/>
        <pt x="292" y="284" on="0"/>
        <pt x="301" y="279" on="1"/>
        <pt x="299" y="281" on="0"/>
        <pt x="310" y="276" on="0"/>
        <pt x="312" y="276" on="1"/>
        <pt x="316" y="275" on="0"/>
        <pt x="322" y="273" on="0"/>
        <pt x="326" y="273" on="1"/>
        <pt x="336" y="271" on="0"/>
        <pt x="360" y="274" on="0"/>
        <pt x="371" y="276" on="1"/>
        <pt x="372" y="283" on="0"/>
        <pt x="373" y="295" on="0"/>
        <pt x="374" y="301" on="1"/>
        <pt x="376" y="317" on="0"/>
        <pt x="380" y="358" on="0"/>
      </contour>
    </TTGlyph>
    <TTGlyph name="atilde" xMin="29" yMin="-6" xMax="447" yMax="648">
      <component glyphName="a" x="0" y="0" flags="0x204"/>
      <component glyphName="tilde" x="-30" y="-81" flags="0x4"/>
    </TTGlyph>
    <TTGlyph name="b" xMin="45" yMin="12" xMax="491" yMax="785">
      <contour>
        <pt x="46" y="746" on="1"/>
        <pt x="45" y="765" on="0"/>
        <pt x="69" y="785" on="0"/>
        <pt x="99" y="785" on="0"/>
        <pt x="125" y="765" on="0"/>
        <pt x="126" y="746" on="1"/>
        <pt x="130" y="665" on="0"/>
        <pt x="148" y="505" on="0"/>
        <pt x="146" y="424" on="1"/>
        <pt x="199" y="440" on="0"/>
        <pt x="310" y="453" on="0"/>
        <pt x="363" y="439" on="1"/>
        <pt x="395" y="431" on="0"/>
        <pt x="454" y="395" on="0"/>
        <pt x="469" y="363" on="1"/>
        <pt x="482" y="334" on="0"/>
        <pt x="491" y="274" on="0"/>
        <pt x="489" y="242" on="1"/>
        <pt x="486" y="205" on="0"/>
        <pt x="463" y="141" on="0"/>
        <pt x="440" y="112" on="1"/>
        <pt x="419" y="85" on="0"/>
        <pt x="366" y="36" on="0"/>
        <pt x="334" y="21" on="1"/>
        <pt x="315" y="13" on="0"/>
        <pt x="278" y="12" on="0"/>
        <pt x="242" y="23" on="0"/>
        <pt x="208" y="40" on="0"/>
        <pt x="192" y="50" on="1"/>
        <pt x="176" y="60" on="0"/>
        <pt x="146" y="79" on="0"/>
        <pt x="132" y="92" on="1"/>
        <pt x="126" y="72" on="1"/>
        <pt x="126" y="52" on="0"/>
        <pt x="101" y="33" on="0"/>
        <pt x="71" y="33" on="0"/>
        <pt x="46" y="52" on="0"/>
        <pt x="46" y="72" on="1"/>
        <pt x="45" y="138" on="0"/>
        <pt x="57" y="266" on="0"/>
        <pt x="62" y="331" on="1"/>
        <pt x="50" y="349" on="0"/>
        <pt x="54" y="379" on="0"/>
        <pt x="65" y="388" on="1"/>
        <pt x="66" y="397" on="0"/>
        <pt x="66" y="415" on="0"/>
        <pt x="66" y="424" on="1"/>
        <pt x="68" y="505" on="0"/>
        <pt x="50" y="665" on="0"/>
      </contour>
      <contour>
        <pt x="141" y="336" on="1"/>
        <pt x="139" y="301" on="0"/>
        <pt x="133" y="233" on="0"/>
        <pt x="130" y="198" on="1"/>
        <pt x="153" y="181" on="0"/>
        <pt x="193" y="142" on="0"/>
        <pt x="218" y="128" on="1"/>
        <pt x="224" y="124" on="0"/>
        <pt x="245" y="109" on="0"/>
        <pt x="268" y="95" on="0"/>
        <pt x="291" y="88" on="0"/>
        <pt x="299" y="93" on="1"/>
        <pt x="320" y="104" on="0"/>
        <pt x="358" y="135" on="0"/>
        <pt x="389" y="174" on="0"/>
        <pt x="408" y="218" on="0"/>
        <pt x="409" y="242" on="1"/>
        <pt x="411" y="263" on="0"/>
        <pt x="408" y="309" on="0"/>
        <pt x="398" y="328" on="1"/>
        <pt x="387" y="347" on="0"/>
        <pt x="346" y="363" on="0"/>
        <pt x="324" y="366" on="1"/>
        <pt x="278" y="373" on="0"/>
        <pt x="185" y="354" on="0"/>
      </contour>
    </TTGlyph>
    <TTGlyph name="backslash" xMin="-14" yMin="-45" xMax="361" yMax="769">
      <contour>
        <pt x="69" y="739" on="1"/>
        <pt x="101" y="646" on="0"/>
        <pt x="182" y="466" on="0"/>
        <pt x="262" y="286" on="0"/>
        <pt x="334" y="103" on="0"/>
        <pt x="357" y="7" on="1"/>
        <pt x="361" y="-12" on="0"/>
        <pt x="342" y="-37" on="0"/>
        <pt x="313" y="-45" on="0"/>
        <pt x="284" y="-33" on="0"/>
        <pt x="280" y="-14" on="1"/>
        <pt x="257" y="82" on="0"/>
        <pt x="186" y="265" on="0"/>
        <pt x="105" y="445" on="0"/>
        <pt x="24" y="625" on="0"/>
        <pt x="-8" y="718" on="1"/>
        <pt x="-14" y="736" on="0"/>
        <pt x="3" y="761" on="0"/>
        <pt x="32" y="769" on="0"/>
        <pt x="63" y="757" on="0"/>
      </contour>
    </TTGlyph>
    <TTGlyph name="bar" xMin="51" yMin="-25" xMax="174" yMax="760">
      <contour>
        <pt x="95" y="721" on="1"/>
        <pt x="95" y="740" on="0"/>
        <pt x="120" y="760" on="0"/>
        <pt x="150" y="760" on="0"/>
        <pt x="174" y="740" on="0"/>
        <pt x="174" y="721" on="1"/>
        <pt x="174" y="630" on="0"/>
        <pt x="158" y="449" on="0"/>
        <pt x="156" y="358" on="1"/>
        <pt x="155" y="313" on="0"/>
        <pt x="157" y="224" on="0"/>
        <pt x="151" y="179" on="1"/>
        <pt x="146" y="137" on="0"/>
        <pt x="131" y="56" on="0"/>
        <pt x="131" y="14" on="1"/>
        <pt x="131" y="-6" on="0"/>
        <pt x="106" y="-25" on="0"/>
        <pt x="76" y="-25" on="0"/>
        <pt x="51" y="-6" on="0"/>
        <pt x="51" y="14" on="1"/>
        <pt x="52" y="58" on="0"/>
        <pt x="68" y="143" on="0"/>
        <pt x="73" y="187" on="1"/>
        <pt x="78" y="230" on="0"/>
        <pt x="75" y="315" on="0"/>
        <pt x="77" y="358" on="1"/>
        <pt x="79" y="449" on="0"/>
        <pt x="95" y="630" on="0"/>
      </contour>
    </TTGlyph>
    <TTGlyph name="braceleft" xMin="19" yMin="-92" xMax="395" yMax="832">
      <contour>
        <pt x="386" y="-6" on="1"/>
        <pt x="395" y="-21" on="0"/>
        <pt x="385" y="-51" on="0"/>
        <pt x="372" y="-61" on="1"/>
        <pt x="330" y="-92" on="0"/>
        <pt x="245" y="-84" on="0"/>
        <pt x="176" y="-33" on="0"/>
        <pt x="127" y="48" on="0"/>
        <pt x="121" y="90" on="1"/>
        <pt x="116" y="119" on="0"/>
        <pt x="120" y="172" on="0"/>
        <pt x="126" y="200" on="1"/>
        <pt x="131" y="223" on="0"/>
        <pt x="139" y="272" on="0"/>
        <pt x="130" y="295" on="1"/>
        <pt x="125" y="309" on="0"/>
        <pt x="104" y="326" on="0"/>
        <pt x="92" y="334" on="1"/>
        <pt x="76" y="344" on="0"/>
        <pt x="46" y="363" on="0"/>
        <pt x="32" y="376" on="1"/>
        <pt x="23" y="384" on="0"/>
        <pt x="19" y="404" on="0"/>
        <pt x="25" y="424" on="0"/>
        <pt x="40" y="439" on="0"/>
        <pt x="50" y="442" on="1"/>
        <pt x="60" y="446" on="0"/>
        <pt x="77" y="452" on="0"/>
        <pt x="85" y="456" on="1"/>
        <pt x="90" y="458" on="0"/>
        <pt x="98" y="463" on="0"/>
        <pt x="102" y="466" on="1"/>
        <pt x="115" y="477" on="1"/>
        <pt x="117" y="479" on="0"/>
        <pt x="118" y="484" on="0"/>
        <pt x="120" y="486" on="1"/>
        <pt x="124" y="498" on="0"/>
        <pt x="125" y="505" on="0"/>
        <pt x="126" y="508" on="1"/>
        <pt x="125" y="508" on="0"/>
        <pt x="127" y="522" on="0"/>
        <pt x="127" y="524" on="1"/>
        <pt x="127" y="543" on="1"/>
        <pt x="126" y="554" on="0"/>
        <pt x="125" y="576" on="0"/>
        <pt x="124" y="587" on="1"/>
        <pt x="122" y="610" on="0"/>
        <pt x="118" y="657" on="0"/>
        <pt x="120" y="680" on="1"/>
        <pt x="122" y="717" on="0"/>
        <pt x="142" y="786" on="0"/>
        <pt x="173" y="809" on="1"/>
        <pt x="189" y="821" on="0"/>
        <pt x="226" y="830" on="0"/>
        <pt x="265" y="832" on="0"/>
        <pt x="304" y="827" on="0"/>
        <pt x="322" y="824" on="1"/>
        <pt x="339" y="822" on="0"/>
        <pt x="354" y="790" on="0"/>
        <pt x="350" y="775" on="1"/>
        <pt x="345" y="758" on="0"/>
        <pt x="317" y="745" on="0"/>
        <pt x="301" y="747" on="1"/>
        <pt x="291" y="749" on="0"/>
        <pt x="272" y="751" on="0"/>
        <pt x="262" y="752" on="1"/>
        <pt x="257" y="752" on="0"/>
        <pt x="250" y="752" on="0"/>
        <pt x="245" y="751" on="1"/>
        <pt x="230" y="749" on="0"/>
        <pt x="225" y="747" on="1"/>
        <pt x="215" y="741" on="1"/>
        <pt x="211" y="736" on="0"/>
        <pt x="206" y="725" on="0"/>
        <pt x="207" y="728" on="1"/>
        <pt x="206" y="726" on="0"/>
        <pt x="205" y="720" on="0"/>
        <pt x="204" y="718" on="1"/>
        <pt x="203" y="713" on="0"/>
        <pt x="201" y="705" on="1"/>
        <pt x="201" y="704" on="0"/>
        <pt x="200" y="695" on="0"/>
        <pt x="200" y="693" on="1"/>
        <pt x="198" y="673" on="0"/>
        <pt x="199" y="632" on="0"/>
        <pt x="201" y="612" on="1"/>
        <pt x="202" y="592" on="0"/>
        <pt x="206" y="550" on="0"/>
        <pt x="206" y="508" on="0"/>
        <pt x="199" y="467" on="0"/>
        <pt x="190" y="448" on="1"/>
        <pt x="182" y="431" on="0"/>
        <pt x="156" y="406" on="0"/>
        <pt x="141" y="396" on="1"/>
        <pt x="155" y="387" on="0"/>
        <pt x="181" y="365" on="0"/>
        <pt x="191" y="350" on="1"/>
        <pt x="205" y="327" on="0"/>
        <pt x="215" y="282" on="0"/>
        <pt x="213" y="236" on="0"/>
        <pt x="204" y="189" on="0"/>
        <pt x="200" y="165" on="1"/>
        <pt x="193" y="128" on="0"/>
        <pt x="210" y="51" on="0"/>
        <pt x="236" y="23" on="1"/>
        <pt x="259" y="-2" on="0"/>
        <pt x="304" y="-12" on="0"/>
        <pt x="331" y="8" on="1"/>
        <pt x="345" y="18" on="0"/>
        <pt x="378" y="7" on="0"/>
      </contour>
    </TTGlyph>
    <TTGlyph name="braceright" xMin="-14" yMin="-68" xMax="362" yMax="855">
      <contour>
        <pt x="-5" y="770" on="1"/>
        <pt x="-14" y="785" on="0"/>
        <pt x="-4" y="814" on="0"/>
        <pt x="10" y="824" on="1"/>
        <pt x="52" y="855" on="0"/>
        <pt x="136" y="848" on="0"/>
        <pt x="205" y="797" on="0"/>
        <pt x="254" y="716" on="0"/>
        <pt x="260" y="674" on="1"/>
        <pt x="265" y="645" on="0"/>
        <pt x="261" y="592" on="0"/>
        <pt x="255" y="564" on="1"/>
        <pt x="250" y="540" on="0"/>
        <pt x="242" y="492" on="0"/>
        <pt x="251" y="469" on="1"/>
        <pt x="257" y="454" on="0"/>
        <pt x="277" y="437" on="0"/>
        <pt x="290" y="429" on="1"/>
        <pt x="305" y="420" on="0"/>
        <pt x="335" y="400" on="0"/>
        <pt x="349" y="388" on="1"/>
        <pt x="358" y="380" on="0"/>
        <pt x="362" y="360" on="0"/>
        <pt x="356" y="340" on="0"/>
        <pt x="341" y="324" on="0"/>
        <pt x="331" y="321" on="1"/>
        <pt x="321" y="318" on="0"/>
        <pt x="304" y="312" on="0"/>
        <pt x="296" y="308" on="1"/>
        <pt x="291" y="306" on="0"/>
        <pt x="283" y="301" on="0"/>
        <pt x="279" y="298" on="1"/>
        <pt x="267" y="287" on="1"/>
        <pt x="265" y="284" on="0"/>
        <pt x="261" y="278" on="1"/>
        <pt x="257" y="265" on="0"/>
        <pt x="256" y="259" on="0"/>
        <pt x="256" y="255" on="1"/>
        <pt x="256" y="256" on="0"/>
        <pt x="255" y="242" on="0"/>
        <pt x="255" y="240" on="1"/>
        <pt x="254" y="230" on="0"/>
        <pt x="255" y="221" on="1"/>
        <pt x="255" y="198" on="0"/>
        <pt x="258" y="176" on="1"/>
        <pt x="260" y="153" on="0"/>
        <pt x="263" y="107" on="0"/>
        <pt x="262" y="84" on="1"/>
        <pt x="260" y="47" on="0"/>
        <pt x="240" y="-22" on="0"/>
        <pt x="208" y="-45" on="1"/>
        <pt x="192" y="-57" on="0"/>
        <pt x="155" y="-67" on="0"/>
        <pt x="116" y="-68" on="0"/>
        <pt x="77" y="-64" on="0"/>
        <pt x="59" y="-61" on="1"/>
        <pt x="43" y="-58" on="0"/>
        <pt x="27" y="-26" on="0"/>
        <pt x="31" y="-12" on="1"/>
        <pt x="36" y="5" on="0"/>
        <pt x="64" y="19" on="0"/>
        <pt x="80" y="16" on="1"/>
        <pt x="90" y="14" on="0"/>
        <pt x="109" y="12" on="0"/>
        <pt x="119" y="12" on="1"/>
        <pt x="136" y="12" on="1"/>
        <pt x="156" y="16" on="1"/>
        <pt x="164" y="21" on="0"/>
        <pt x="166" y="23" on="1"/>
        <pt x="170" y="28" on="0"/>
        <pt x="175" y="38" on="0"/>
        <pt x="174" y="35" on="1"/>
        <pt x="175" y="38" on="0"/>
        <pt x="176" y="43" on="0"/>
        <pt x="177" y="46" on="1"/>
        <pt x="179" y="54" on="0"/>
        <pt x="180" y="59" on="1"/>
        <pt x="180" y="66" on="0"/>
        <pt x="181" y="69" on="0"/>
        <pt x="181" y="70" on="1"/>
        <pt x="183" y="90" on="0"/>
        <pt x="182" y="132" on="0"/>
        <pt x="180" y="152" on="1"/>
        <pt x="178" y="172" on="0"/>
        <pt x="175" y="214" on="0"/>
        <pt x="175" y="255" on="0"/>
        <pt x="182" y="296" on="0"/>
        <pt x="191" y="315" on="1"/>
        <pt x="199" y="332" on="0"/>
        <pt x="225" y="358" on="0"/>
        <pt x="241" y="368" on="1"/>
        <pt x="226" y="377" on="0"/>
        <pt x="200" y="399" on="0"/>
        <pt x="190" y="414" on="1"/>
        <pt x="176" y="436" on="0"/>
        <pt x="166" y="481" on="0"/>
        <pt x="167" y="528" on="0"/>
        <pt x="176" y="575" on="0"/>
        <pt x="181" y="599" on="1"/>
        <pt x="188" y="635" on="0"/>
        <pt x="171" y="712" on="0"/>
        <pt x="145" y="741" on="1"/>
        <pt x="122" y="765" on="0"/>
        <pt x="77" y="776" on="0"/>
        <pt x="50" y="756" on="1"/>
        <pt x="36" y="746" on="0"/>
        <pt x="3" y="757" on="0"/>
      </contour>
    </TTGlyph>
    <TTGlyph name="bracketleft" xMin="51" yMin="-57" xMax="320" yMax="840">
      <contour>
        <pt x="271" y="-51" on="1"/>
        <pt x="226" y="-57" on="0"/>
        <pt x="137" y="-54" on="0"/>
        <pt x="92" y="-53" on="1"/>
        <pt x="78" y="-52" on="0"/>
        <pt x="51" y="-30" on="0"/>
        <pt x="53" y="-13" on="1"/>
        <pt x="62" y="71" on="0"/>
        <pt x="60" y="237" on="0"/>
        <pt x="58" y="322" on="1"/>
        <pt x="56" y="391" on="0"/>
        <pt x="56" y="527" on="0"/>
        <pt x="53" y="596" on="1"/>
        <pt x="51" y="624" on="0"/>
        <pt x="51" y="680" on="0"/>
        <pt x="53" y="709" on="1"/>
        <pt x="55" y="730" on="0"/>
        <pt x="62" y="782" on="0"/>
        <pt x="76" y="800" on="1"/>
        <pt x="94" y="824" on="0"/>
        <pt x="144" y="840" on="0"/>
        <pt x="200" y="840" on="0"/>
        <pt x="256" y="831" on="0"/>
        <pt x="282" y="831" on="1"/>
        <pt x="301" y="831" on="0"/>
        <pt x="320" y="805" on="0"/>
        <pt x="320" y="775" on="0"/>
        <pt x="301" y="751" on="0"/>
        <pt x="282" y="751" on="1"/>
        <pt x="256" y="752" on="0"/>
        <pt x="207" y="759" on="0"/>
        <pt x="182" y="760" on="1"/>
        <pt x="170" y="760" on="0"/>
        <pt x="152" y="760" on="0"/>
        <pt x="142" y="756" on="1"/>
        <pt x="133" y="729" on="0"/>
        <pt x="130" y="683" on="0"/>
        <pt x="130" y="635" on="0"/>
        <pt x="133" y="587" on="0"/>
        <pt x="134" y="565" on="1"/>
        <pt x="136" y="535" on="0"/>
        <pt x="134" y="475" on="0"/>
        <pt x="135" y="445" on="1"/>
        <pt x="135" y="407" on="0"/>
        <pt x="137" y="329" on="0"/>
        <pt x="139" y="291" on="1"/>
        <pt x="141" y="224" on="0"/>
        <pt x="141" y="92" on="0"/>
        <pt x="136" y="26" on="1"/>
        <pt x="170" y="24" on="0"/>
        <pt x="237" y="24" on="0"/>
        <pt x="271" y="29" on="1"/>
        <pt x="287" y="31" on="0"/>
        <pt x="311" y="3" on="0"/>
        <pt x="311" y="-11" on="1"/>
        <pt x="311" y="-29" on="0"/>
        <pt x="287" y="-49" on="0"/>
      </contour>
    </TTGlyph>
    <TTGlyph name="bracketright" xMin="-20" yMin="-62" xMax="249" yMax="835">
      <contour>
        <pt x="29" y="829" on="1"/>
        <pt x="74" y="835" on="0"/>
        <pt x="162" y="833" on="0"/>
        <pt x="207" y="831" on="1"/>
        <pt x="222" y="830" on="0"/>
        <pt x="249" y="808" on="0"/>
        <pt x="247" y="791" on="1"/>
        <pt x="238" y="707" on="0"/>
        <pt x="239" y="541" on="0"/>
        <pt x="242" y="456" on="1"/>
        <pt x="244" y="387" on="0"/>
        <pt x="244" y="251" on="0"/>
        <pt x="247" y="182" on="1"/>
        <pt x="248" y="154" on="0"/>
        <pt x="249" y="98" on="0"/>
        <pt x="247" y="70" on="1"/>
        <pt x="245" y="48" on="0"/>
        <pt x="238" y="-4" on="0"/>
        <pt x="224" y="-22" on="1"/>
        <pt x="206" y="-46" on="0"/>
        <pt x="156" y="-62" on="0"/>
        <pt x="100" y="-62" on="0"/>
        <pt x="43" y="-53" on="0"/>
        <pt x="18" y="-53" on="1"/>
        <pt x="-1" y="-53" on="0"/>
        <pt x="-20" y="-27" on="0"/>
        <pt x="-20" y="3" on="0"/>
        <pt x="-1" y="27" on="0"/>
        <pt x="18" y="27" on="1"/>
        <pt x="44" y="26" on="0"/>
        <pt x="93" y="19" on="0"/>
        <pt x="118" y="18" on="1"/>
        <pt x="130" y="18" on="0"/>
        <pt x="148" y="19" on="0"/>
        <pt x="157" y="22" on="1"/>
        <pt x="172" y="70" on="0"/>
        <pt x="168" y="168" on="0"/>
        <pt x="166" y="214" on="1"/>
        <pt x="164" y="243" on="0"/>
        <pt x="166" y="303" on="0"/>
        <pt x="165" y="333" on="1"/>
        <pt x="164" y="371" on="0"/>
        <pt x="163" y="449" on="0"/>
        <pt x="161" y="488" on="1"/>
        <pt x="159" y="554" on="0"/>
        <pt x="159" y="687" on="0"/>
        <pt x="164" y="753" on="1"/>
        <pt x="130" y="754" on="0"/>
        <pt x="63" y="754" on="0"/>
        <pt x="29" y="750" on="1"/>
        <pt x="12" y="748" on="0"/>
        <pt x="-11" y="775" on="0"/>
        <pt x="-11" y="790" on="1"/>
        <pt x="-11" y="807" on="0"/>
        <pt x="12" y="827" on="0"/>
      </contour>
    </TTGlyph>
    <TTGlyph name="breve" xMin="140" yMin="581" xMax="424" yMax="739">
      <contour>
        <pt x="400" y="721" on="1"/>
        <pt x="413" y="713" on="0"/>
        <pt x="424" y="680" on="0"/>
        <pt x="414" y="667" on="1"/>
        <pt x="394" y="640" on="0"/>
        <pt x="338" y="595" on="0"/>
        <pt x="305" y="587" on="1"/>
        <pt x="277" y="581" on="0"/>
        <pt x="228" y="591" on="0"/>
        <pt x="187" y="618" on="0"/>
        <pt x="155" y="660" on="0"/>
        <pt x="145" y="685" on="1"/>
        <pt x="140" y="700" on="0"/>
        <pt x="159" y="729" on="0"/>
        <pt x="173" y="734" on="1"/>
        <pt x="190" y="739" on="0"/>
        <pt x="216" y="721" on="0"/>
        <pt x="222" y="706" on="1"/>
        <pt x="226" y="695" on="0"/>
        <pt x="241" y="676" on="0"/>
        <pt x="260" y="664" on="0"/>
        <pt x="282" y="662" on="0"/>
        <pt x="294" y="668" on="1"/>
        <pt x="306" y="673" on="0"/>
        <pt x="324" y="686" on="0"/>
        <pt x="333" y="695" on="1"/>
        <pt x="337" y="698" on="0"/>
        <pt x="343" y="705" on="0"/>
        <pt x="346" y="709" on="1"/>
        <pt x="355" y="720" on="0"/>
        <pt x="384" y="730" on="0"/>
      </contour>
    </TTGlyph>
    <TTGlyph name="brokenbar" xMin="31" yMin="-25" xMax="154" yMax="760">
      <contour>
        <pt x="74" y="721" on="1"/>
        <pt x="74" y="740" on="0"/>
        <pt x="99" y="760" on="0"/>
        <pt x="129" y="760" on="0"/>
        <pt x="154" y="740" on="0"/>
        <pt x="154" y="721" on="1"/>
        <pt x="154" y="655" on="0"/>
        <pt x="151" y="523" on="0"/>
        <pt x="143" y="457" on="1"/>
        <pt x="141" y="440" on="0"/>
        <pt x="121" y="417" on="0"/>
        <pt x="103" y="417" on="1"/>
        <pt x="88" y="417" on="0"/>
        <pt x="61" y="440" on="0"/>
        <pt x="63" y="457" on="1"/>
        <pt x="71" y="523" on="0"/>
        <pt x="74" y="655" on="0"/>
      </contour>
      <contour>
        <pt x="56" y="282" on="1"/>
        <pt x="56" y="301" on="0"/>
        <pt x="80" y="320" on="0"/>
        <pt x="110" y="320" on="0"/>
        <pt x="136" y="301" on="0"/>
        <pt x="136" y="282" on="1"/>
        <pt x="137" y="248" on="0"/>
        <pt x="129" y="181" on="0"/>
        <pt x="119" y="115" on="0"/>
        <pt x="110" y="48" on="0"/>
        <pt x="110" y="14" on="1"/>
        <pt x="110" y="-6" on="0"/>
        <pt x="85" y="-25" on="0"/>
        <pt x="55" y="-25" on="0"/>
        <pt x="31" y="-6" on="0"/>
        <pt x="31" y="14" on="1"/>
        <pt x="31" y="48" on="0"/>
        <pt x="39" y="115" on="0"/>
        <pt x="49" y="181" on="0"/>
        <pt x="57" y="248" on="0"/>
      </contour>
    </TTGlyph>
    <TTGlyph name="bullet" xMin="30" yMin="271" xMax="221" yMax="438">
      <contour>
        <pt x="69" y="285" on="1"/>
        <pt x="59" y="289" on="0"/>
        <pt x="42" y="305" on="0"/>
        <pt x="40" y="316" on="1"/>
        <pt x="32" y="326" on="0"/>
        <pt x="30" y="352" on="0"/>
        <pt x="36" y="363" on="1"/>
        <pt x="38" y="369" on="0"/>
        <pt x="44" y="382" on="0"/>
        <pt x="49" y="387" on="1"/>
        <pt x="47" y="397" on="0"/>
        <pt x="53" y="417" on="0"/>
        <pt x="66" y="432" on="0"/>
        <pt x="85" y="438" on="0"/>
        <pt x="97" y="434" on="1"/>
        <pt x="107" y="430" on="0"/>
        <pt x="126" y="421" on="0"/>
        <pt x="134" y="414" on="1"/>
        <pt x="165" y="411" on="0"/>
        <pt x="185" y="398" on="1"/>
        <pt x="200" y="388" on="0"/>
        <pt x="218" y="356" on="0"/>
        <pt x="221" y="323" on="0"/>
        <pt x="205" y="293" on="0"/>
        <pt x="187" y="284" on="1"/>
        <pt x="161" y="271" on="0"/>
        <pt x="95" y="274" on="0"/>
      </contour>
    </TTGlyph>
    <TTGlyph name="c" xMin="18" yMin="20" xMax="368" yMax="457">
      <contour>
        <pt x="332" y="78" on="1"/>
        <pt x="336" y="64" on="0"/>
        <pt x="320" y="32" on="0"/>
        <pt x="304" y="29" on="1"/>
        <pt x="250" y="20" on="0"/>
        <pt x="144" y="41" on="0"/>
        <pt x="99" y="76" on="1"/>
        <pt x="55" y="111" on="0"/>
        <pt x="18" y="220" on="0"/>
        <pt x="30" y="275" on="1"/>
        <pt x="41" y="324" on="0"/>
        <pt x="111" y="396" on="0"/>
        <pt x="156" y="416" on="1"/>
        <pt x="196" y="435" on="0"/>
        <pt x="284" y="457" on="0"/>
        <pt x="328" y="453" on="1"/>
        <pt x="345" y="451" on="0"/>
        <pt x="368" y="430" on="0"/>
        <pt x="368" y="413" on="1"/>
        <pt x="368" y="398" on="0"/>
        <pt x="345" y="372" on="0"/>
        <pt x="328" y="373" on="1"/>
        <pt x="296" y="376" on="0"/>
        <pt x="234" y="364" on="0"/>
        <pt x="205" y="351" on="1"/>
        <pt x="188" y="343" on="0"/>
        <pt x="155" y="325" on="0"/>
        <pt x="143" y="314" on="1"/>
        <pt x="130" y="302" on="0"/>
        <pt x="113" y="278" on="0"/>
        <pt x="109" y="262" on="1"/>
        <pt x="105" y="246" on="0"/>
        <pt x="107" y="210" on="0"/>
        <pt x="118" y="175" on="0"/>
        <pt x="138" y="146" on="0"/>
        <pt x="152" y="136" on="1"/>
        <pt x="181" y="115" on="0"/>
        <pt x="250" y="100" on="0"/>
        <pt x="283" y="106" on="1"/>
        <pt x="299" y="109" on="0"/>
        <pt x="327" y="95" on="0"/>
      </contour>
    </TTGlyph>
    <TTGlyph name="caron" xMin="132" yMin="594" xMax="432" yMax="765">
      <contour>
        <pt x="145" y="696" on="1"/>
        <pt x="132" y="707" on="0"/>
        <pt x="134" y="742" on="0"/>
        <pt x="145" y="753" on="1"/>
        <pt x="158" y="765" on="0"/>
        <pt x="188" y="763" on="0"/>
        <pt x="201" y="753" on="1"/>
        <pt x="222" y="736" on="0"/>
        <pt x="259" y="699" on="0"/>
        <pt x="280" y="682" on="1"/>
        <pt x="301" y="699" on="0"/>
        <pt x="341" y="733" on="0"/>
        <pt x="361" y="752" on="1"/>
        <pt x="375" y="765" on="0"/>
        <pt x="407" y="761" on="0"/>
        <pt x="428" y="740" on="0"/>
        <pt x="432" y="708" on="0"/>
        <pt x="418" y="695" on="1"/>
        <pt x="390" y="669" on="0"/>
        <pt x="332" y="621" on="0"/>
        <pt x="301" y="599" on="1"/>
        <pt x="292" y="594" on="0"/>
        <pt x="269" y="594" on="0"/>
        <pt x="260" y="599" on="1"/>
        <pt x="227" y="619" on="0"/>
        <pt x="174" y="673" on="0"/>
      </contour>
    </TTGlyph>
    <TTGlyph name="ccedilla" xMin="18" yMin="-257" xMax="368" yMax="457">
      <contour>
        <pt x="272" y="-32" on="1"/>
        <pt x="290" y="-38" on="0"/>
        <pt x="324" y="-59" on="0"/>
        <pt x="348" y="-87" on="0"/>
        <pt x="357" y="-123" on="0"/>
        <pt x="351" y="-145" on="1"/>
        <pt x="340" y="-182" on="0"/>
        <pt x="278" y="-231" on="0"/>
        <pt x="243" y="-244" on="1"/>
        <pt x="227" y="-250" on="0"/>
        <pt x="191" y="-257" on="0"/>
        <pt x="155" y="-255" on="0"/>
        <pt x="123" y="-242" on="0"/>
        <pt x="111" y="-227" on="1"/>
        <pt x="100" y="-214" on="0"/>
        <pt x="97" y="-184" on="0"/>
        <pt x="109" y="-171" on="1"/>
        <pt x="120" y="-160" on="0"/>
        <pt x="155" y="-156" on="0"/>
        <pt x="166" y="-169" on="1"/>
        <pt x="180" y="-177" on="0"/>
        <pt x="184" y="-178" on="0"/>
        <pt x="192" y="-176" on="1"/>
        <pt x="202" y="-174" on="0"/>
        <pt x="227" y="-165" on="0"/>
        <pt x="237" y="-160" on="1"/>
        <pt x="240" y="-158" on="0"/>
        <pt x="246" y="-154" on="0"/>
        <pt x="249" y="-152" on="1"/>
        <pt x="258" y="-146" on="0"/>
        <pt x="262" y="-142" on="0"/>
        <pt x="264" y="-140" on="1"/>
        <pt x="269" y="-133" on="0"/>
        <pt x="273" y="-126" on="0"/>
        <pt x="275" y="-122" on="1"/>
        <pt x="268" y="-116" on="0"/>
        <pt x="245" y="-106" on="0"/>
        <pt x="234" y="-103" on="1"/>
        <pt x="220" y="-98" on="0"/>
        <pt x="192" y="-97" on="0"/>
        <pt x="178" y="-93" on="1"/>
        <pt x="158" y="-88" on="0"/>
        <pt x="132" y="-58" on="0"/>
        <pt x="128" y="-38" on="1"/>
        <pt x="124" y="-20" on="0"/>
        <pt x="132" y="15" on="0"/>
        <pt x="130" y="33" on="1"/>
        <pt x="129" y="42" on="0"/>
        <pt x="134" y="53" on="1"/>
        <pt x="125" y="58" on="0"/>
        <pt x="108" y="69" on="0"/>
        <pt x="99" y="76" on="1"/>
        <pt x="55" y="111" on="0"/>
        <pt x="18" y="220" on="0"/>
        <pt x="30" y="275" on="1"/>
        <pt x="41" y="324" on="0"/>
        <pt x="111" y="396" on="0"/>
        <pt x="156" y="416" on="1"/>
        <pt x="196" y="435" on="0"/>
        <pt x="284" y="457" on="0"/>
        <pt x="328" y="453" on="1"/>
        <pt x="345" y="451" on="0"/>
        <pt x="368" y="430" on="0"/>
        <pt x="368" y="413" on="1"/>
        <pt x="368" y="398" on="0"/>
        <pt x="345" y="372" on="0"/>
        <pt x="328" y="373" on="1"/>
        <pt x="296" y="376" on="0"/>
        <pt x="234" y="364" on="0"/>
        <pt x="205" y="351" on="1"/>
        <pt x="188" y="343" on="0"/>
        <pt x="155" y="325" on="0"/>
        <pt x="143" y="314" on="1"/>
        <pt x="130" y="302" on="0"/>
        <pt x="113" y="278" on="0"/>
        <pt x="109" y="262" on="1"/>
        <pt x="105" y="246" on="0"/>
        <pt x="107" y="210" on="0"/>
        <pt x="118" y="175" on="0"/>
        <pt x="138" y="146" on="0"/>
        <pt x="152" y="136" on="1"/>
        <pt x="181" y="115" on="0"/>
        <pt x="250" y="100" on="0"/>
        <pt x="283" y="106" on="1"/>
        <pt x="299" y="109" on="0"/>
        <pt x="327" y="95" on="0"/>
        <pt x="332" y="78" on="1"/>
        <pt x="336" y="64" on="0"/>
        <pt x="320" y="32" on="0"/>
        <pt x="304" y="29" on="1"/>
        <pt x="281" y="25" on="0"/>
        <pt x="233" y="24" on="0"/>
        <pt x="210" y="28" on="1"/>
        <pt x="211" y="18" on="0"/>
        <pt x="208" y="-2" on="0"/>
        <pt x="206" y="-12" on="1"/>
        <pt x="223" y="-20" on="0"/>
        <pt x="255" y="-26" on="0"/>
      </contour>
    </TTGlyph>
    <TTGlyph name="cedilla" xMin="150" yMin="-301" xMax="411" yMax="29">
      <contour>
        <pt x="308" y="-57" on="1"/>
        <pt x="327" y="-59" on="0"/>
        <pt x="365" y="-71" on="0"/>
        <pt x="394" y="-94" on="0"/>
        <pt x="411" y="-127" on="0"/>
        <pt x="410" y="-150" on="1"/>
        <pt x="408" y="-188" on="0"/>
        <pt x="359" y="-250" on="0"/>
        <pt x="327" y="-271" on="1"/>
        <pt x="313" y="-280" on="0"/>
        <pt x="279" y="-295" on="0"/>
        <pt x="244" y="-301" on="0"/>
        <pt x="210" y="-295" on="0"/>
        <pt x="195" y="-283" on="1"/>
        <pt x="181" y="-273" on="0"/>
        <pt x="171" y="-244" on="0"/>
        <pt x="180" y="-229" on="1"/>
        <pt x="188" y="-216" on="0"/>
        <pt x="222" y="-204" on="0"/>
        <pt x="235" y="-215" on="1"/>
        <pt x="244" y="-220" on="1"/>
        <pt x="250" y="-219" on="0"/>
        <pt x="254" y="-219" on="0"/>
        <pt x="262" y="-216" on="1"/>
        <pt x="271" y="-212" on="0"/>
        <pt x="294" y="-198" on="0"/>
        <pt x="302" y="-190" on="1"/>
        <pt x="309" y="-183" on="0"/>
        <pt x="313" y="-180" on="1"/>
        <pt x="322" y="-168" on="0"/>
        <pt x="324" y="-164" on="1"/>
        <pt x="330" y="-152" on="0"/>
        <pt x="331" y="-144" on="1"/>
        <pt x="323" y="-140" on="0"/>
        <pt x="297" y="-136" on="0"/>
        <pt x="286" y="-135" on="1"/>
        <pt x="272" y="-134" on="0"/>
        <pt x="244" y="-138" on="0"/>
        <pt x="230" y="-138" on="1"/>
        <pt x="210" y="-136" on="0"/>
        <pt x="177" y="-114" on="0"/>
        <pt x="169" y="-96" on="1"/>
        <pt x="161" y="-79" on="0"/>
        <pt x="162" y="-42" on="0"/>
        <pt x="155" y="-25" on="1"/>
        <pt x="150" y="-10" on="0"/>
        <pt x="168" y="19" on="0"/>
        <pt x="183" y="24" on="1"/>
        <pt x="200" y="29" on="0"/>
        <pt x="227" y="11" on="0"/>
        <pt x="232" y="-4" on="1"/>
        <pt x="237" y="-16" on="0"/>
        <pt x="238" y="-40" on="0"/>
        <pt x="239" y="-53" on="1"/>
        <pt x="257" y="-57" on="0"/>
        <pt x="290" y="-55" on="0"/>
      </contour>
    </TTGlyph>
    <TTGlyph name="cent" xMin="5" yMin="-15" xMax="409" yMax="757">
      <contour>
        <pt x="345" y="268" on="1"/>
        <pt x="359" y="279" on="0"/>
        <pt x="392" y="267" on="0"/>
        <pt x="400" y="254" on="1"/>
        <pt x="409" y="239" on="0"/>
        <pt x="399" y="210" on="0"/>
        <pt x="386" y="200" on="1"/>
        <pt x="358" y="179" on="0"/>
        <pt x="291" y="167" on="0"/>
        <pt x="256" y="171" on="1"/>
        <pt x="248" y="97" on="0"/>
        <pt x="244" y="24" on="1"/>
        <pt x="243" y="5" on="0"/>
        <pt x="217" y="-15" on="0"/>
        <pt x="187" y="-15" on="0"/>
        <pt x="164" y="4" on="0"/>
        <pt x="165" y="24" on="1"/>
        <pt x="167" y="66" on="0"/>
        <pt x="173" y="147" on="0"/>
        <pt x="178" y="189" on="1"/>
        <pt x="170" y="191" on="0"/>
        <pt x="155" y="198" on="0"/>
        <pt x="147" y="201" on="1"/>
        <pt x="119" y="214" on="0"/>
        <pt x="64" y="254" on="0"/>
        <pt x="24" y="306" on="0"/>
        <pt x="5" y="368" on="0"/>
        <pt x="14" y="402" on="1"/>
        <pt x="20" y="425" on="0"/>
        <pt x="50" y="464" on="0"/>
        <pt x="67" y="481" on="1"/>
        <pt x="109" y="520" on="0"/>
        <pt x="154" y="549" on="1"/>
        <pt x="160" y="553" on="0"/>
        <pt x="172" y="561" on="0"/>
        <pt x="178" y="565" on="1"/>
        <pt x="173" y="600" on="0"/>
        <pt x="161" y="669" on="0"/>
        <pt x="155" y="704" on="1"/>
        <pt x="153" y="720" on="0"/>
        <pt x="166" y="748" on="0"/>
        <pt x="183" y="753" on="1"/>
        <pt x="197" y="757" on="0"/>
        <pt x="229" y="742" on="0"/>
        <pt x="232" y="725" on="1"/>
        <pt x="253" y="605" on="1"/>
        <pt x="274" y="614" on="0"/>
        <pt x="318" y="626" on="0"/>
        <pt x="341" y="626" on="1"/>
        <pt x="360" y="626" on="0"/>
        <pt x="379" y="601" on="0"/>
        <pt x="379" y="571" on="0"/>
        <pt x="360" y="546" on="0"/>
        <pt x="341" y="546" on="1"/>
        <pt x="327" y="545" on="0"/>
        <pt x="319" y="543" on="0"/>
        <pt x="314" y="542" on="1"/>
        <pt x="306" y="539" on="0"/>
        <pt x="288" y="533" on="0"/>
        <pt x="283" y="530" on="1"/>
        <pt x="278" y="528" on="0"/>
        <pt x="270" y="524" on="0"/>
        <pt x="265" y="522" on="1"/>
        <pt x="270" y="484" on="0"/>
        <pt x="275" y="407" on="0"/>
        <pt x="275" y="369" on="1"/>
        <pt x="274" y="339" on="0"/>
        <pt x="269" y="280" on="0"/>
        <pt x="265" y="250" on="1"/>
        <pt x="275" y="250" on="1"/>
        <pt x="296" y="249" on="0"/>
        <pt x="329" y="256" on="0"/>
      </contour>
      <contour>
        <pt x="188" y="270" on="1"/>
        <pt x="191" y="294" on="0"/>
        <pt x="195" y="343" on="0"/>
        <pt x="195" y="369" on="1"/>
        <pt x="195" y="396" on="0"/>
        <pt x="192" y="450" on="0"/>
        <pt x="190" y="477" on="1"/>
        <pt x="175" y="467" on="0"/>
        <pt x="147" y="446" on="0"/>
        <pt x="134" y="434" on="1"/>
        <pt x="120" y="420" on="0"/>
        <pt x="99" y="399" on="0"/>
        <pt x="92" y="384" on="1"/>
        <pt x="91" y="373" on="0"/>
        <pt x="90" y="367" on="0"/>
        <pt x="92" y="363" on="1"/>
        <pt x="94" y="352" on="0"/>
        <pt x="102" y="332" on="0"/>
        <pt x="110" y="324" on="1"/>
        <pt x="142" y="288" on="0"/>
        <pt x="187" y="270" on="1"/>
      </contour>
    </TTGlyph>
    <TTGlyph name="circumflex" xMin="132" yMin="587" xMax="431" yMax="758">
      <contour>
        <pt x="418" y="656" on="1"/>
        <pt x="431" y="645" on="0"/>
        <pt x="429" y="610" on="0"/>
        <pt x="418" y="599" on="1"/>
        <pt x="406" y="587" on="0"/>
        <pt x="375" y="589" on="0"/>
        <pt x="362" y="599" on="1"/>
        <pt x="341" y="616" on="0"/>
        <pt x="304" y="653" on="0"/>
        <pt x="283" y="670" on="1"/>
        <pt x="262" y="653" on="0"/>
        <pt x="222" y="619" on="0"/>
        <pt x="202" y="600" on="1"/>
        <pt x="188" y="587" on="0"/>
        <pt x="156" y="591" on="0"/>
        <pt x="135" y="612" on="0"/>
        <pt x="132" y="643" on="0"/>
        <pt x="146" y="657" on="1"/>
        <pt x="173" y="683" on="0"/>
        <pt x="231" y="731" on="0"/>
        <pt x="263" y="753" on="1"/>
        <pt x="271" y="758" on="0"/>
        <pt x="294" y="758" on="0"/>
        <pt x="303" y="753" on="1"/>
        <pt x="336" y="733" on="0"/>
        <pt x="389" y="679" on="0"/>
      </contour>
    </TTGlyph>
    <TTGlyph name="colon" xMin="18" yMin="-21" xMax="142" yMax="371">
      <contour>
        <pt x="99" y="70" on="1"/>
        <pt x="112" y="62" on="0"/>
        <pt x="126" y="30" on="0"/>
        <pt x="121" y="16" on="1"/>
        <pt x="115" y="-1" on="0"/>
        <pt x="101" y="-9" on="1"/>
        <pt x="90" y="-21" on="0"/>
        <pt x="56" y="-20" on="0"/>
        <pt x="45" y="-9" on="1"/>
        <pt x="30" y="3" on="0"/>
        <pt x="26" y="11" on="1"/>
        <pt x="18" y="25" on="0"/>
        <pt x="25" y="53" on="0"/>
        <pt x="37" y="63" on="1"/>
        <pt x="39" y="65" on="0"/>
        <pt x="45" y="70" on="0"/>
        <pt x="48" y="72" on="1"/>
        <pt x="57" y="76" on="0"/>
        <pt x="60" y="76" on="0"/>
        <pt x="70" y="78" on="1"/>
        <pt x="78" y="78" on="0"/>
        <pt x="82" y="76" on="1"/>
        <pt x="92" y="74" on="0"/>
      </contour>
      <contour>
        <pt x="115" y="362" on="1"/>
        <pt x="128" y="354" on="0"/>
        <pt x="142" y="323" on="0"/>
        <pt x="137" y="309" on="1"/>
        <pt x="133" y="295" on="0"/>
        <pt x="118" y="283" on="1"/>
        <pt x="107" y="271" on="0"/>
        <pt x="73" y="273" on="0"/>
        <pt x="62" y="284" on="1"/>
        <pt x="48" y="293" on="0"/>
        <pt x="42" y="303" on="1"/>
        <pt x="34" y="317" on="0"/>
        <pt x="42" y="346" on="0"/>
        <pt x="53" y="355" on="1"/>
        <pt x="60" y="362" on="0"/>
        <pt x="65" y="364" on="1"/>
        <pt x="73" y="368" on="0"/>
        <pt x="77" y="369" on="0"/>
        <pt x="86" y="370" on="1"/>
        <pt x="89" y="371" on="0"/>
        <pt x="97" y="369" on="0"/>
        <pt x="99" y="369" on="1"/>
        <pt x="104" y="368" on="0"/>
        <pt x="111" y="364" on="0"/>
      </contour>
    </TTGlyph>
    <TTGlyph name="comma" xMin="-55" yMin="-133" xMax="130" yMax="96">
      <contour>
        <pt x="48" y="65" on="1"/>
        <pt x="53" y="84" on="0"/>
        <pt x="82" y="96" on="0"/>
        <pt x="111" y="88" on="0"/>
        <pt x="130" y="62" on="0"/>
        <pt x="125" y="44" on="1"/>
        <pt x="111" y="-12" on="0"/>
        <pt x="55" y="-105" on="0"/>
        <pt x="-1" y="-127" on="1"/>
        <pt x="-16" y="-133" on="0"/>
        <pt x="-45" y="-114" on="0"/>
        <pt x="-50" y="-99" on="1"/>
        <pt x="-55" y="-82" on="0"/>
        <pt x="-37" y="-57" on="0"/>
        <pt x="-22" y="-50" on="1"/>
        <pt x="-5" y="-43" on="0"/>
        <pt x="18" y="-17" on="0"/>
        <pt x="34" y="14" on="0"/>
        <pt x="44" y="49" on="0"/>
      </contour>
    </TTGlyph>
    <TTGlyph name="copyright" xMin="14" yMin="91" xMax="685" yMax="754">
      <contour>
        <pt x="459" y="334" on="1"/>
        <pt x="475" y="337" on="0"/>
        <pt x="503" y="324" on="0"/>
        <pt x="508" y="307" on="1"/>
        <pt x="512" y="292" on="0"/>
        <pt x="497" y="260" on="0"/>
        <pt x="480" y="258" on="1"/>
        <pt x="453" y="253" on="0"/>
        <pt x="394" y="247" on="0"/>
        <pt x="336" y="248" on="0"/>
        <pt x="279" y="259" on="0"/>
        <pt x="254" y="273" on="1"/>
        <pt x="221" y="290" on="0"/>
        <pt x="179" y="354" on="0"/>
        <pt x="181" y="392" on="1"/>
        <pt x="184" y="435" on="0"/>
        <pt x="226" y="508" on="0"/>
        <pt x="290" y="564" on="0"/>
        <pt x="369" y="601" on="0"/>
        <pt x="408" y="609" on="1"/>
        <pt x="427" y="613" on="0"/>
        <pt x="452" y="593" on="0"/>
        <pt x="460" y="564" on="0"/>
        <pt x="448" y="536" on="0"/>
        <pt x="429" y="532" on="1"/>
        <pt x="393" y="524" on="0"/>
        <pt x="330" y="495" on="0"/>
        <pt x="307" y="473" on="1"/>
        <pt x="302" y="468" on="0"/>
        <pt x="292" y="457" on="0"/>
        <pt x="287" y="451" on="1"/>
        <pt x="287" y="450" on="0"/>
        <pt x="281" y="443" on="0"/>
        <pt x="280" y="441" on="1"/>
        <pt x="278" y="438" on="0"/>
        <pt x="274" y="432" on="0"/>
        <pt x="272" y="429" on="1"/>
        <pt x="271" y="427" on="0"/>
        <pt x="267" y="417" on="0"/>
        <pt x="268" y="419" on="1"/>
        <pt x="263" y="405" on="0"/>
        <pt x="261" y="397" on="1"/>
        <pt x="261" y="382" on="1"/>
        <pt x="262" y="375" on="0"/>
        <pt x="264" y="371" on="1"/>
        <pt x="268" y="362" on="0"/>
        <pt x="270" y="360" on="1"/>
        <pt x="276" y="353" on="0"/>
        <pt x="280" y="350" on="1"/>
        <pt x="290" y="343" on="0"/>
        <pt x="297" y="341" on="1"/>
        <pt x="310" y="336" on="0"/>
        <pt x="318" y="334" on="0"/>
        <pt x="323" y="333" on="1"/>
        <pt x="334" y="330" on="0"/>
        <pt x="346" y="329" on="0"/>
        <pt x="359" y="328" on="1"/>
        <pt x="384" y="326" on="0"/>
        <pt x="434" y="330" on="0"/>
      </contour>
      <contour>
        <pt x="562" y="665" on="1"/>
        <pt x="589" y="639" on="0"/>
        <pt x="634" y="578" on="0"/>
        <pt x="667" y="509" on="0"/>
        <pt x="685" y="435" on="0"/>
        <pt x="685" y="398" on="1"/>
        <pt x="685" y="325" on="0"/>
        <pt x="619" y="191" on="0"/>
        <pt x="557" y="149" on="1"/>
        <pt x="521" y="125" on="0"/>
        <pt x="438" y="99" on="0"/>
        <pt x="350" y="91" on="0"/>
        <pt x="262" y="100" on="0"/>
        <pt x="222" y="111" on="1"/>
        <pt x="172" y="127" on="0"/>
        <pt x="100" y="194" on="0"/>
        <pt x="74" y="233" on="1"/>
        <pt x="46" y="277" on="0"/>
        <pt x="14" y="379" on="0"/>
        <pt x="24" y="432" on="1"/>
        <pt x="34" y="484" on="0"/>
        <pt x="77" y="582" on="0"/>
        <pt x="143" y="662" on="0"/>
        <pt x="229" y="720" on="0"/>
        <pt x="283" y="734" on="1"/>
        <pt x="359" y="754" on="0"/>
        <pt x="505" y="720" on="0"/>
      </contour>
      <contour>
        <pt x="522" y="221" on="1"/>
        <pt x="567" y="258" on="0"/>
        <pt x="613" y="369" on="0"/>
        <pt x="604" y="428" on="1"/>
        <pt x="599" y="459" on="0"/>
        <pt x="573" y="523" on="0"/>
        <pt x="536" y="580" on="0"/>
        <pt x="487" y="628" on="0"/>
        <pt x="459" y="643" on="1"/>
        <pt x="430" y="658" on="0"/>
        <pt x="364" y="668" on="0"/>
        <pt x="297" y="659" on="0"/>
        <pt x="235" y="633" on="0"/>
        <pt x="210" y="612" on="1"/>
        <pt x="183" y="589" on="0"/>
        <pt x="142" y="533" on="0"/>
        <pt x="128" y="501" on="1"/>
        <pt x="114" y="472" on="0"/>
        <pt x="97" y="406" on="0"/>
        <pt x="101" y="374" on="1"/>
        <pt x="105" y="346" on="0"/>
        <pt x="131" y="287" on="0"/>
        <pt x="170" y="234" on="0"/>
        <pt x="217" y="195" on="0"/>
        <pt x="243" y="188" on="1"/>
        <pt x="282" y="177" on="0"/>
        <pt x="363" y="170" on="0"/>
        <pt x="403" y="178" on="1"/>
        <pt x="434" y="183" on="0"/>
        <pt x="497" y="201" on="0"/>
      </contour>
    </TTGlyph>
    <TTGlyph name="currency" xMin="-1" yMin="80" xMax="507" yMax="604">
      <contour>
        <pt x="447" y="574" on="1"/>
        <pt x="463" y="584" on="0"/>
        <pt x="492" y="572" on="0"/>
        <pt x="507" y="546" on="0"/>
        <pt x="503" y="515" on="0"/>
        <pt x="487" y="505" on="1"/>
        <pt x="462" y="489" on="0"/>
        <pt x="414" y="456" on="0"/>
        <pt x="391" y="438" on="1"/>
        <pt x="412" y="400" on="0"/>
        <pt x="417" y="354" on="1"/>
        <pt x="419" y="325" on="0"/>
        <pt x="408" y="266" on="0"/>
        <pt x="394" y="241" on="1"/>
        <pt x="414" y="220" on="0"/>
        <pt x="447" y="171" on="0"/>
        <pt x="467" y="150" on="1"/>
        <pt x="480" y="136" on="0"/>
        <pt x="476" y="105" on="0"/>
        <pt x="455" y="84" on="0"/>
        <pt x="424" y="80" on="0"/>
        <pt x="411" y="94" on="1"/>
        <pt x="389" y="116" on="0"/>
        <pt x="356" y="166" on="0"/>
        <pt x="334" y="187" on="1"/>
        <pt x="299" y="172" on="0"/>
        <pt x="224" y="158" on="0"/>
        <pt x="186" y="172" on="1"/>
        <pt x="177" y="176" on="0"/>
        <pt x="159" y="185" on="0"/>
        <pt x="151" y="192" on="1"/>
        <pt x="129" y="173" on="0"/>
        <pt x="85" y="136" on="0"/>
        <pt x="60" y="121" on="1"/>
        <pt x="43" y="111" on="0"/>
        <pt x="14" y="123" on="0"/>
        <pt x="-1" y="149" on="0"/>
        <pt x="2" y="180" on="0"/>
        <pt x="19" y="190" on="1"/>
        <pt x="42" y="204" on="0"/>
        <pt x="80" y="235" on="0"/>
        <pt x="100" y="252" on="1"/>
        <pt x="96" y="261" on="0"/>
        <pt x="93" y="272" on="1"/>
        <pt x="85" y="304" on="0"/>
        <pt x="95" y="370" on="0"/>
        <pt x="107" y="400" on="1"/>
        <pt x="112" y="411" on="0"/>
        <pt x="122" y="435" on="0"/>
        <pt x="129" y="447" on="1"/>
        <pt x="108" y="467" on="0"/>
        <pt x="72" y="515" on="0"/>
        <pt x="61" y="541" on="1"/>
        <pt x="54" y="556" on="0"/>
        <pt x="60" y="587" on="0"/>
        <pt x="75" y="596" on="1"/>
        <pt x="89" y="604" on="0"/>
        <pt x="123" y="596" on="0"/>
        <pt x="130" y="581" on="1"/>
        <pt x="139" y="561" on="0"/>
        <pt x="168" y="520" on="0"/>
        <pt x="184" y="503" on="1"/>
        <pt x="210" y="516" on="0"/>
        <pt x="275" y="522" on="0"/>
        <pt x="303" y="512" on="1"/>
        <pt x="312" y="509" on="0"/>
        <pt x="329" y="501" on="0"/>
        <pt x="337" y="496" on="1"/>
        <pt x="364" y="517" on="0"/>
        <pt x="418" y="556" on="0"/>
      </contour>
      <contour>
        <pt x="338" y="347" on="1"/>
        <pt x="337" y="356" on="0"/>
        <pt x="336" y="357" on="1"/>
        <pt x="335" y="362" on="0"/>
        <pt x="333" y="373" on="0"/>
        <pt x="331" y="378" on="1"/>
        <pt x="331" y="380" on="0"/>
        <pt x="325" y="392" on="0"/>
        <pt x="327" y="389" on="1"/>
        <pt x="324" y="399" on="0"/>
        <pt x="318" y="406" on="1"/>
        <pt x="312" y="414" on="1"/>
        <pt x="310" y="417" on="0"/>
        <pt x="305" y="422" on="1"/>
        <pt x="293" y="431" on="0"/>
        <pt x="288" y="433" on="1"/>
        <pt x="280" y="437" on="0"/>
        <pt x="275" y="437" on="1"/>
        <pt x="263" y="439" on="1"/>
        <pt x="251" y="439" on="1"/>
        <pt x="241" y="438" on="0"/>
        <pt x="234" y="437" on="0"/>
        <pt x="231" y="436" on="1"/>
        <pt x="220" y="431" on="0"/>
        <pt x="217" y="429" on="0"/>
        <pt x="215" y="427" on="1"/>
        <pt x="208" y="420" on="0"/>
        <pt x="203" y="414" on="0"/>
        <pt x="201" y="410" on="1"/>
        <pt x="187" y="389" on="0"/>
        <pt x="170" y="339" on="0"/>
        <pt x="169" y="316" on="1"/>
        <pt x="168" y="297" on="0"/>
        <pt x="185" y="262" on="0"/>
        <pt x="205" y="251" on="1"/>
        <pt x="221" y="242" on="0"/>
        <pt x="245" y="243" on="1"/>
        <pt x="260" y="244" on="0"/>
        <pt x="288" y="253" on="0"/>
        <pt x="301" y="259" on="1"/>
        <pt x="311" y="265" on="0"/>
        <pt x="313" y="267" on="1"/>
        <pt x="329" y="288" on="1"/>
        <pt x="336" y="308" on="0"/>
        <pt x="337" y="316" on="1"/>
        <pt x="337" y="321" on="0"/>
        <pt x="338" y="324" on="0"/>
        <pt x="338" y="326" on="1"/>
      </contour>
    </TTGlyph>
    <TTGlyph name="d" xMin="14" yMin="-77" xMax="404" yMax="794">
      <contour>
        <pt x="152" y="365" on="1"/>
        <pt x="188" y="387" on="0"/>
        <pt x="271" y="419" on="0"/>
        <pt x="314" y="418" on="1"/>
        <pt x="310" y="503" on="0"/>
        <pt x="305" y="671" on="0"/>
        <pt x="304" y="756" on="1"/>
        <pt x="304" y="775" on="0"/>
        <pt x="328" y="794" on="0"/>
        <pt x="358" y="794" on="0"/>
        <pt x="383" y="775" on="0"/>
        <pt x="383" y="756" on="1"/>
        <pt x="384" y="657" on="0"/>
        <pt x="392" y="458" on="0"/>
        <pt x="400" y="260" on="0"/>
        <pt x="404" y="61" on="0"/>
        <pt x="401" y="-38" on="1"/>
        <pt x="400" y="-57" on="0"/>
        <pt x="374" y="-77" on="0"/>
        <pt x="344" y="-77" on="0"/>
        <pt x="320" y="-58" on="0"/>
        <pt x="321" y="-38" on="1"/>
        <pt x="321" y="-31" on="0"/>
        <pt x="321" y="-17" on="0"/>
        <pt x="322" y="-10" on="1"/>
        <pt x="312" y="-9" on="0"/>
        <pt x="293" y="-8" on="0"/>
        <pt x="284" y="-8" on="1"/>
        <pt x="272" y="-8" on="0"/>
        <pt x="248" y="-8" on="0"/>
        <pt x="237" y="-7" on="1"/>
        <pt x="211" y="-5" on="0"/>
        <pt x="159" y="1" on="0"/>
        <pt x="134" y="10" on="1"/>
        <pt x="109" y="20" on="0"/>
        <pt x="65" y="49" on="0"/>
        <pt x="51" y="73" on="1"/>
        <pt x="35" y="98" on="0"/>
        <pt x="14" y="156" on="0"/>
        <pt x="16" y="187" on="1"/>
        <pt x="18" y="218" on="0"/>
        <pt x="42" y="270" on="0"/>
        <pt x="79" y="314" on="0"/>
        <pt x="126" y="350" on="0"/>
      </contour>
      <contour>
        <pt x="323" y="69" on="1"/>
        <pt x="323" y="203" on="0"/>
        <pt x="317" y="338" on="1"/>
        <pt x="284" y="340" on="0"/>
        <pt x="219" y="313" on="0"/>
        <pt x="192" y="296" on="1"/>
        <pt x="177" y="287" on="0"/>
        <pt x="142" y="264" on="0"/>
        <pt x="113" y="235" on="0"/>
        <pt x="95" y="201" on="0"/>
        <pt x="95" y="181" on="1"/>
        <pt x="96" y="163" on="0"/>
        <pt x="110" y="122" on="0"/>
        <pt x="122" y="109" on="1"/>
        <pt x="134" y="96" on="0"/>
        <pt x="164" y="83" on="0"/>
        <pt x="181" y="79" on="1"/>
        <pt x="201" y="75" on="0"/>
        <pt x="238" y="73" on="0"/>
        <pt x="258" y="72" on="1"/>
        <pt x="274" y="72" on="0"/>
        <pt x="306" y="69" on="0"/>
      </contour>
    </TTGlyph>
    <TTGlyph name="degree" xMin="19" yMin="537" xMax="278" yMax="807">
      <contour>
        <pt x="103" y="795" on="1"/>
        <pt x="128" y="807" on="0"/>
        <pt x="182" y="805" on="0"/>
        <pt x="228" y="782" on="0"/>
        <pt x="264" y="740" on="0"/>
        <pt x="272" y="713" on="1"/>
        <pt x="278" y="692" on="0"/>
        <pt x="277" y="642" on="0"/>
        <pt x="263" y="596" on="0"/>
        <pt x="233" y="558" on="0"/>
        <pt x="211" y="548" on="1"/>
        <pt x="185" y="537" on="0"/>
        <pt x="124" y="537" on="0"/>
        <pt x="69" y="559" on="0"/>
        <pt x="29" y="601" on="0"/>
        <pt x="23" y="632" on="1"/>
        <pt x="22" y="640" on="0"/>
        <pt x="21" y="641" on="0"/>
        <pt x="21" y="642" on="1"/>
        <pt x="19" y="663" on="0"/>
        <pt x="30" y="709" on="0"/>
        <pt x="52" y="752" on="0"/>
        <pt x="84" y="786" on="0"/>
      </contour>
      <contour>
        <pt x="198" y="677" on="1"/>
        <pt x="198" y="678" on="0"/>
        <pt x="196" y="687" on="0"/>
        <pt x="196" y="688" on="1"/>
        <pt x="194" y="694" on="0"/>
        <pt x="193" y="698" on="1"/>
        <pt x="193" y="697" on="0"/>
        <pt x="188" y="706" on="0"/>
        <pt x="188" y="707" on="1"/>
        <pt x="180" y="715" on="0"/>
        <pt x="168" y="724" on="0"/>
        <pt x="163" y="726" on="1"/>
        <pt x="144" y="731" on="0"/>
        <pt x="132" y="719" on="1"/>
        <pt x="123" y="711" on="0"/>
        <pt x="110" y="689" on="0"/>
        <pt x="107" y="679" on="1"/>
        <pt x="103" y="670" on="0"/>
        <pt x="101" y="659" on="1"/>
        <pt x="100" y="650" on="0"/>
        <pt x="101" y="648" on="1"/>
        <pt x="104" y="634" on="0"/>
        <pt x="120" y="624" on="0"/>
        <pt x="136" y="620" on="1"/>
        <pt x="144" y="618" on="0"/>
        <pt x="147" y="617" on="1"/>
        <pt x="155" y="616" on="0"/>
        <pt x="167" y="617" on="0"/>
        <pt x="162" y="615" on="1"/>
        <pt x="171" y="617" on="0"/>
        <pt x="173" y="618" on="0"/>
        <pt x="181" y="623" on="1"/>
        <pt x="186" y="629" on="0"/>
        <pt x="190" y="635" on="0"/>
        <pt x="191" y="636" on="1"/>
        <pt x="195" y="647" on="0"/>
        <pt x="197" y="655" on="1"/>
      </contour>
    </TTGlyph>
    <TTGlyph name="dieresis" xMin="161" yMin="617" xMax="402" yMax="726">
      <contour>
        <pt x="244" y="712" on="1"/>
        <pt x="253" y="705" on="0"/>
        <pt x="255" y="692" on="1"/>
        <pt x="257" y="684" on="0"/>
        <pt x="257" y="676" on="0"/>
        <pt x="255" y="668" on="1"/>
        <pt x="245" y="641" on="1"/>
        <pt x="237" y="626" on="0"/>
        <pt x="204" y="619" on="0"/>
        <pt x="190" y="627" on="1"/>
        <pt x="177" y="634" on="0"/>
        <pt x="172" y="650" on="1"/>
        <pt x="171" y="659" on="0"/>
        <pt x="169" y="661" on="1"/>
        <pt x="161" y="676" on="0"/>
        <pt x="165" y="691" on="1"/>
        <pt x="169" y="705" on="0"/>
        <pt x="184" y="715" on="1"/>
        <pt x="190" y="720" on="0"/>
        <pt x="206" y="726" on="0"/>
        <pt x="214" y="725" on="1"/>
        <pt x="222" y="724" on="0"/>
        <pt x="229" y="723" on="0"/>
        <pt x="235" y="719" on="1"/>
        <pt x="241" y="715" on="0"/>
      </contour>
      <contour>
        <pt x="380" y="704" on="1"/>
        <pt x="394" y="696" on="0"/>
        <pt x="402" y="663" on="0"/>
        <pt x="394" y="649" on="1"/>
        <pt x="389" y="641" on="0"/>
        <pt x="383" y="635" on="1"/>
        <pt x="374" y="626" on="0"/>
        <pt x="363" y="622" on="1"/>
        <pt x="349" y="617" on="0"/>
        <pt x="322" y="630" on="0"/>
        <pt x="314" y="642" on="1"/>
        <pt x="308" y="652" on="0"/>
        <pt x="305" y="673" on="0"/>
        <pt x="305" y="684" on="1"/>
        <pt x="305" y="701" on="0"/>
        <pt x="328" y="724" on="0"/>
        <pt x="345" y="724" on="1"/>
        <pt x="368" y="724" on="0"/>
      </contour>
    </TTGlyph>
    <TTGlyph name="divide" xMin="20" yMin="123" xMax="541" yMax="616">
      <contour>
        <pt x="495" y="401" on="1"/>
        <pt x="518" y="400" on="0"/>
        <pt x="541" y="370" on="0"/>
        <pt x="541" y="334" on="0"/>
        <pt x="518" y="305" on="0"/>
        <pt x="495" y="306" on="1"/>
        <pt x="444" y="307" on="0"/>
        <pt x="340" y="314" on="0"/>
        <pt x="236" y="317" on="0"/>
        <pt x="132" y="313" on="0"/>
        <pt x="81" y="304" on="1"/>
        <pt x="61" y="300" on="0"/>
        <pt x="27" y="317" on="0"/>
        <pt x="22" y="337" on="1"/>
        <pt x="20" y="346" on="0"/>
        <pt x="22" y="365" on="0"/>
        <pt x="31" y="382" on="0"/>
        <pt x="46" y="394" on="0"/>
        <pt x="55" y="396" on="1"/>
        <pt x="110" y="406" on="0"/>
        <pt x="220" y="411" on="0"/>
        <pt x="330" y="409" on="0"/>
        <pt x="440" y="402" on="0"/>
      </contour>
      <contour>
        <pt x="262" y="518" on="1"/>
        <pt x="250" y="524" on="0"/>
        <pt x="244" y="535" on="1"/>
        <pt x="234" y="552" on="0"/>
        <pt x="243" y="587" on="0"/>
        <pt x="257" y="598" on="1"/>
        <pt x="260" y="601" on="0"/>
        <pt x="266" y="607" on="0"/>
        <pt x="271" y="609" on="1"/>
        <pt x="281" y="613" on="0"/>
        <pt x="285" y="614" on="0"/>
        <pt x="296" y="615" on="1"/>
        <pt x="300" y="616" on="0"/>
        <pt x="309" y="614" on="0"/>
        <pt x="311" y="614" on="1"/>
        <pt x="316" y="613" on="0"/>
        <pt x="326" y="608" on="0"/>
        <pt x="331" y="606" on="1"/>
        <pt x="346" y="597" on="0"/>
        <pt x="363" y="559" on="0"/>
        <pt x="357" y="542" on="1"/>
        <pt x="351" y="523" on="0"/>
        <pt x="334" y="512" on="1"/>
        <pt x="321" y="498" on="0"/>
        <pt x="280" y="499" on="0"/>
        <pt x="267" y="512" on="1"/>
      </contour>
      <contour>
        <pt x="331" y="231" on="1"/>
        <pt x="346" y="222" on="0"/>
        <pt x="363" y="184" on="0"/>
        <pt x="357" y="167" on="1"/>
        <pt x="351" y="148" on="0"/>
        <pt x="334" y="137" on="1"/>
        <pt x="321" y="123" on="0"/>
        <pt x="280" y="124" on="0"/>
        <pt x="267" y="137" on="1"/>
        <pt x="250" y="149" on="0"/>
        <pt x="244" y="161" on="1"/>
        <pt x="234" y="177" on="0"/>
        <pt x="243" y="212" on="0"/>
        <pt x="257" y="223" on="1"/>
        <pt x="260" y="226" on="0"/>
        <pt x="266" y="232" on="0"/>
        <pt x="271" y="234" on="1"/>
        <pt x="281" y="238" on="0"/>
        <pt x="285" y="239" on="0"/>
        <pt x="296" y="241" on="1"/>
        <pt x="300" y="241" on="0"/>
        <pt x="309" y="239" on="0"/>
        <pt x="311" y="239" on="1"/>
        <pt x="316" y="238" on="0"/>
        <pt x="326" y="233" on="0"/>
      </contour>
    </TTGlyph>
</ttFont>
